<svg width="240" height="239" viewBox="0 0 240 239" fill="none" xmlns="http://www.w3.org/2000/svg">
<path d="M155.321 19.2179C155.321 19.2179 120.69 6.89959 86.6922 26.508C52.6942 46.1163 35.5381 85.0378 20.8104 116.212C6.0827 147.387 14.5584 179.104 40.5092 193.565C66.4601 208.026 84.1066 186.708 120.504 185.67C156.902 184.632 166.692 189.836 196.914 169.271C227.136 148.706 232.588 100.132 208.756 64.1914C184.924 28.2507 155.321 19.2179 155.321 19.2179Z" fill="#E7EDF6"/>
<path d="M197.714 43.507C194.719 41.8737 193.362 43.2356 192.272 41.8737C191.181 40.5119 195.267 36.974 187.101 33.4361C187.101 33.4361 186.558 25.8175 175.397 25.5414C164.235 25.2652 167.23 33.16 164.235 35.0646C161.24 36.9693 160.426 33.9742 157.431 35.8789C154.436 37.7835 155.798 41.5928 153.345 42.1404C150.893 42.688 147.631 39.6929 144.636 41.5976C141.641 43.5022 141.641 45.1355 140.28 45.1355C138.918 45.1355 136.199 44.045 134.566 45.1355C132.932 46.2259 131.028 47.5877 131.028 47.5877H199.895C199.895 47.5877 200.709 45.1402 197.714 43.507Z" stroke="#263238" stroke-width="0.621622" stroke-linecap="round" stroke-linejoin="round"/>
<path d="M156.979 42.3785C156.586 42.5977 156.178 42.7902 155.76 42.9546" stroke="#263238" stroke-width="0.621622" stroke-linecap="round" stroke-linejoin="round"/>
<path d="M171.711 29.6744C171.034 29.9771 170.438 30.4377 169.975 31.0175C169.512 31.5974 169.195 32.2798 169.049 33.0075C168.573 35.4979 167.392 37.1597 166.059 37.3263C164.726 37.493 159.75 36.993 158.917 38.8215C158.691 39.3557 158.531 39.9153 158.44 40.488" stroke="#263238" stroke-width="0.621622" stroke-linecap="round" stroke-linejoin="round"/>
<path d="M206.476 59.3156C205.304 58.6776 204.771 59.2061 204.347 58.6776C203.924 58.149 205.519 56.7729 202.328 55.3778C202.328 55.3778 202.114 52.4018 197.752 52.297C193.391 52.1922 194.562 55.273 193.391 56.0158C192.219 56.7586 191.905 55.592 190.734 56.3349C189.562 57.0777 190.096 58.5681 189.139 58.7823C188.182 58.9966 186.905 57.83 185.734 58.5681C184.563 59.3061 184.568 59.9537 184.034 59.9537C183.501 59.9537 182.439 59.5251 181.801 59.9537C181.163 60.3822 180.415 60.906 180.415 60.906H207.323C207.323 60.906 207.642 59.9537 206.476 59.3156Z" stroke="#263238" stroke-width="0.621622" stroke-linecap="round" stroke-linejoin="round"/>
<path d="M190.557 58.8776C190.404 58.9631 190.245 59.0378 190.081 59.1014" stroke="#263238" stroke-width="0.621622" stroke-linecap="round" stroke-linejoin="round"/>
<path d="M196.314 53.911C196.05 54.028 195.818 54.2068 195.637 54.4321C195.457 54.6575 195.333 54.9229 195.276 55.2061C195.081 56.1585 194.624 56.8298 194.105 56.8965C193.586 56.9632 191.638 56.7632 191.314 57.4774C191.229 57.6871 191.168 57.906 191.133 58.1298" stroke="#263238" stroke-width="0.621622" stroke-linecap="round" stroke-linejoin="round"/>
<path d="M56.4416 96.9561C55.2702 96.3181 54.7417 96.8514 54.3132 96.3181C53.8846 95.7848 55.4845 94.4134 52.2942 93.023C52.2942 93.023 52.0799 90.047 47.7231 89.9375C43.3662 89.828 44.528 92.9183 43.3614 93.6611C42.1948 94.4039 41.871 93.2373 40.6997 93.9801C39.5283 94.7229 40.0616 96.2133 39.1045 96.4276C38.1474 96.6418 36.8713 95.4753 35.7047 96.2133C34.5381 96.9514 34.5334 97.6132 34.0001 97.6132C33.4668 97.6132 32.4049 97.1847 31.7669 97.6132C31.1288 98.0418 30.386 98.5655 30.386 98.5655H57.2939C57.2939 98.5655 57.6225 97.6132 56.4416 96.9561Z" stroke="#263238" stroke-width="0.621622" stroke-linecap="round" stroke-linejoin="round"/>
<path d="M40.5234 96.5227C40.3702 96.6085 40.2111 96.6833 40.0472 96.7465" stroke="#263238" stroke-width="0.621622" stroke-linecap="round" stroke-linejoin="round"/>
<path d="M46.2802 91.5519C46.0167 91.671 45.7852 91.851 45.6048 92.0769C45.4243 92.3029 45.3001 92.5684 45.2421 92.8518C45.0469 93.8041 44.5946 94.4755 44.0756 94.5374C43.5565 94.5993 41.609 94.4088 41.2853 95.1231C41.1985 95.3326 41.1362 95.5515 41.0995 95.7754" stroke="#263238" stroke-width="0.621622" stroke-linecap="round" stroke-linejoin="round"/>
<path d="M24.0863 204.488C25.0863 204.34 26.9862 203.107 26.9862 203.102C26.9862 203.097 25.791 202.102 25.71 202.045C24.7577 201.426 22.496 200.793 21.5008 201.616C21.3395 201.757 21.2097 201.931 21.1198 202.125C21.0298 202.319 20.9817 202.531 20.9786 202.745C20.9754 202.959 21.0173 203.171 21.1015 203.368C21.1858 203.565 21.3104 203.742 21.4674 203.888C22.115 204.531 23.234 204.607 24.0863 204.488Z" fill="#263238"/>
<path d="M42.5947 195.064C42.5947 195.064 42.1519 193.569 42.1185 193.479C41.6424 192.426 40.1282 190.665 38.8473 190.798C38.6347 190.826 38.4304 190.898 38.2478 191.011C38.0651 191.123 37.9082 191.273 37.7873 191.45C37.6664 191.627 37.5842 191.827 37.5462 192.038C37.5081 192.249 37.515 192.466 37.5664 192.674C37.7521 193.565 38.6425 194.25 39.4187 194.617C40.3282 195.05 42.5947 195.064 42.5947 195.064Z" fill="#263238"/>
<path d="M45.0137 220.325C45.4565 220.873 45.8565 221.392 46.2184 221.863H47.1469C46.6708 221.277 46.1565 220.615 45.5518 219.896C45.2042 219.477 44.8185 219.039 44.4233 218.592C44.7864 218.151 45.1219 217.688 45.428 217.206C46.3105 217.39 47.2141 217.453 48.1135 217.392C48.1754 217.925 48.2326 218.444 48.2754 218.939C48.3802 220.049 48.4421 221.034 48.4849 221.863H49.223C49.1611 221.015 49.0754 220.006 48.9421 218.868C48.8849 218.325 48.8087 217.749 48.723 217.154C48.9325 217.092 50.6277 216.563 51.2562 216.006C51.8847 215.449 52.4038 214.711 52.3419 213.911C52.334 213.723 52.2865 213.538 52.2025 213.37C52.1184 213.201 51.9997 213.052 51.854 212.932C51.7084 212.813 51.5391 212.725 51.3573 212.676C51.1755 212.626 50.9853 212.615 50.7991 212.644C49.6849 212.844 48.8325 214.706 48.6992 215.711C48.6992 215.768 48.6992 216.42 48.6992 216.83C48.6659 216.592 48.6325 216.354 48.5945 216.106C48.5183 215.63 48.4278 215.125 48.3326 214.597C48.2802 214.344 48.223 214.087 48.1707 213.83C48.1183 213.573 48.0326 213.311 47.9659 213.044C47.7993 212.435 47.5993 211.83 47.385 211.221C47.8183 211.154 49.3468 210.897 49.9848 210.483C50.6229 210.068 51.3133 209.373 51.3752 208.578C51.3952 208.391 51.3757 208.201 51.3179 208.022C51.2601 207.842 51.1653 207.677 51.0396 207.537C50.914 207.396 50.7603 207.284 50.5884 207.206C50.4166 207.129 50.2304 207.089 50.042 207.088C48.9087 207.116 47.785 208.83 47.4993 209.802C47.4993 209.859 47.3564 210.583 47.2945 210.978C47.166 210.611 47.0326 210.249 46.8898 209.883C46.4708 208.83 46.0137 207.778 45.5613 206.726C45.4232 206.407 45.2899 206.083 45.1518 205.773C45.3042 205.773 47.1279 205.483 47.8421 205.021C48.4802 204.612 49.1754 203.912 49.2325 203.116C49.2532 202.929 49.2343 202.74 49.1771 202.561C49.1198 202.381 49.0255 202.216 48.9002 202.075C48.775 201.935 48.6215 201.822 48.4499 201.745C48.2783 201.667 48.0923 201.627 47.904 201.626C46.7708 201.659 45.647 203.369 45.3613 204.34C45.3613 204.412 45.1613 205.45 45.128 205.716C44.828 205.007 44.5376 204.288 44.2804 203.583C43.9274 202.622 43.6364 201.639 43.409 200.64C43.4805 200.64 45.3851 200.359 46.1184 199.888C46.7517 199.479 47.4517 198.779 47.5088 197.983C47.5295 197.796 47.5105 197.606 47.453 197.426C47.3955 197.247 47.3007 197.081 47.1749 196.941C47.0491 196.8 46.8951 196.687 46.7229 196.61C46.5507 196.533 46.3642 196.493 46.1756 196.493C45.0423 196.522 43.9233 198.236 43.6376 199.207C43.6376 199.269 43.4805 200.059 43.4233 200.436H43.3376C43.1368 199.427 43.0285 198.402 43.0138 197.374C43.0138 196.807 43.0138 196.264 43.0138 195.736C43.371 195.736 45.0137 195.641 45.7232 195.288C46.4327 194.936 47.1517 194.336 47.3136 193.546C47.3579 193.36 47.3623 193.167 47.3264 192.979C47.2905 192.792 47.2151 192.614 47.1052 192.457C46.9953 192.301 46.8535 192.17 46.6891 192.073C46.5248 191.976 46.3416 191.914 46.1517 191.893C45.0232 191.798 43.7186 193.379 43.3281 194.312C43.3281 194.36 43.1519 194.903 43.0424 195.298C43.0424 195.06 43.0662 194.822 43.09 194.588C43.1614 193.731 43.2757 192.955 43.39 192.265C43.4519 191.874 43.5186 191.522 43.5852 191.193C43.9328 190.993 45.3137 190.179 45.7708 189.555C46.2279 188.932 46.6136 188.036 46.3803 187.274C46.3326 187.092 46.247 186.922 46.129 186.775C46.011 186.629 45.8634 186.508 45.6957 186.422C45.5281 186.337 45.3442 186.287 45.1561 186.277C44.968 186.267 44.7799 186.297 44.6042 186.365C43.5567 186.803 43.1281 188.803 43.2091 189.812C43.2091 189.898 43.49 191.241 43.509 191.241C43.4376 191.555 43.3662 191.893 43.2948 192.265C43.171 192.955 43.0376 193.731 42.9472 194.588C42.8371 195.51 42.783 196.437 42.7853 197.364C42.7786 198.403 42.8663 199.441 43.0472 200.464C43.045 200.477 43.045 200.49 43.0472 200.502C42.89 200.207 42.4282 199.402 42.3901 199.345C41.7901 198.526 40.1521 197.298 39.0569 197.655C38.8834 197.724 38.7262 197.828 38.5953 197.962C38.4645 198.095 38.3629 198.254 38.297 198.429C38.2311 198.604 38.2024 198.79 38.2127 198.977C38.2231 199.163 38.2722 199.345 38.357 199.512C38.6855 200.24 39.5759 200.664 40.314 200.831C41.1473 201.026 42.9567 200.655 43.1043 200.626C43.3098 201.663 43.5866 202.684 43.9328 203.683C44.1281 204.269 44.3471 204.85 44.5709 205.431L44.2899 204.921C43.69 204.102 42.0567 202.874 40.9568 203.231C40.7798 203.295 40.6183 203.396 40.4826 203.527C40.347 203.658 40.2403 203.815 40.1694 203.99C40.0985 204.164 40.065 204.352 40.071 204.54C40.0771 204.728 40.1225 204.913 40.2045 205.083C40.533 205.816 41.4234 206.235 42.1615 206.407C42.8996 206.578 44.4614 206.292 44.8709 206.216C44.9613 206.435 45.047 206.659 45.1375 206.878C45.5661 207.945 45.9994 209.002 46.3898 210.054C46.5279 210.426 46.6517 210.792 46.7755 211.164C46.6517 210.94 46.5422 210.754 46.5231 210.73C45.9232 209.911 44.2899 208.683 43.19 209.04C43.013 209.104 42.8515 209.205 42.7158 209.336C42.5802 209.467 42.4735 209.624 42.4026 209.799C42.3317 209.974 42.2982 210.161 42.3042 210.349C42.3103 210.538 42.3557 210.723 42.4377 210.892C42.7662 211.625 43.6567 212.044 44.3947 212.216C45.1328 212.387 46.5422 212.13 47.0326 212.035C47.1469 212.421 47.266 212.802 47.3612 213.178C47.4183 213.435 47.4945 213.682 47.5374 213.944C47.5802 214.206 47.6374 214.459 47.685 214.711C47.7612 215.187 47.8421 215.711 47.9088 216.197C47.9516 216.53 47.9897 216.849 48.0278 217.149C47.8945 216.778 47.6183 216.059 47.5898 216.001C47.1516 215.22 46.5204 214.564 45.7565 214.097C45.7099 214.008 45.6557 213.924 45.5946 213.844C45.4842 213.692 45.3428 213.564 45.1796 213.47C45.0164 213.376 44.8351 213.317 44.6477 213.297C44.4602 213.278 44.2708 213.299 44.0918 213.358C43.9128 213.417 43.7483 213.513 43.609 213.64C42.79 214.421 43.1043 216.444 43.5471 217.354C43.5757 217.406 43.9233 217.958 44.1471 218.306C43.9852 218.12 43.8281 217.944 43.6709 217.758C43.3376 217.387 42.9948 217.03 42.6234 216.639C42.4377 216.463 42.252 216.278 42.0663 216.092C41.8806 215.906 41.6615 215.735 41.4615 215.549C40.9854 215.135 40.5092 214.74 39.9712 214.349C40.2949 214.054 41.3996 212.997 41.7282 212.302C42.0567 211.606 42.2044 210.64 41.8377 209.945C41.7517 209.777 41.6313 209.629 41.4844 209.511C41.3374 209.392 41.1672 209.306 40.9848 209.258C40.8024 209.21 40.612 209.201 40.4258 209.232C40.2397 209.262 40.0621 209.331 39.9045 209.435C38.9522 210.087 38.9855 212.13 39.2855 213.102C39.2855 213.159 39.595 213.83 39.7616 214.197C39.4521 213.963 39.1426 213.721 38.8093 213.506C37.857 212.863 36.9047 212.235 35.9523 211.602C35.6571 211.411 35.3667 211.216 35.0762 211.021C35.1905 210.916 36.5618 209.687 36.9047 208.911C37.2094 208.216 37.3808 207.25 37.0142 206.531C36.9272 206.364 36.8062 206.217 36.659 206.099C36.5118 205.982 36.3417 205.897 36.1595 205.849C35.9774 205.802 35.7873 205.793 35.6016 205.823C35.4158 205.854 35.2385 205.923 35.081 206.026C34.1286 206.678 34.162 208.721 34.4572 209.692C34.4572 209.764 34.9048 210.725 35.0238 210.968C34.381 210.54 33.7477 210.106 33.1192 209.654C32.2953 209.048 31.5112 208.39 30.7717 207.683C30.8288 207.635 32.2668 206.359 32.6144 205.559C32.9192 204.869 33.0906 203.902 32.724 203.202C32.6381 203.034 32.5177 202.886 32.3706 202.768C32.2235 202.65 32.0531 202.564 31.8705 202.516C31.6879 202.469 31.4974 202.46 31.3113 202.491C31.1252 202.523 30.9478 202.593 30.7907 202.697C29.8384 203.345 29.8718 205.392 30.167 206.359C30.1908 206.426 30.5098 207.159 30.6717 207.507L30.6193 207.54C29.8938 206.807 29.2357 206.01 28.6528 205.159C28.3242 204.683 28.0385 204.235 27.7719 203.783C28.0623 203.574 29.3861 202.597 29.7813 201.912C30.1765 201.226 30.4622 200.317 30.1479 199.579C30.0798 199.403 29.9757 199.244 29.8423 199.111C29.7088 198.978 29.549 198.875 29.3731 198.807C29.1973 198.74 29.0093 198.71 28.8212 198.72C28.6332 198.73 28.4493 198.779 28.2814 198.864C27.291 199.412 27.0719 201.445 27.2624 202.44C27.2624 202.493 27.4386 203.031 27.5671 203.421C27.4481 203.212 27.3195 203.002 27.2148 202.802C26.8005 202.05 26.472 201.336 26.1815 200.702C26.0196 200.336 25.8815 200.007 25.7577 199.698C25.9339 199.34 26.6386 197.898 26.6719 197.122C26.7053 196.345 26.5434 195.393 25.9244 194.884C25.7835 194.758 25.6179 194.664 25.4382 194.607C25.2586 194.55 25.069 194.532 24.8817 194.553C24.6944 194.574 24.5136 194.634 24.3512 194.73C24.1887 194.825 24.0482 194.954 23.9388 195.107C23.3102 196.06 24.053 197.964 24.6816 198.75C24.734 198.821 25.7053 199.798 25.7149 199.779C25.8339 200.083 25.9577 200.402 26.1053 200.731C26.3815 201.374 26.6957 202.097 27.091 202.859C27.5351 203.714 28.0313 204.541 28.5766 205.335C29.1385 206.204 29.7759 207.021 30.4812 207.778L30.5098 207.802C30.2194 207.645 29.3861 207.226 29.3194 207.197C28.3671 206.845 26.3291 206.721 25.6291 207.616C25.5169 207.767 25.4376 207.94 25.3966 208.124C25.3555 208.308 25.3536 208.498 25.3908 208.683C25.4281 208.867 25.5038 209.042 25.6129 209.195C25.7221 209.349 25.8622 209.477 26.0244 209.573C26.7005 210.002 27.6766 209.864 28.4052 209.597C29.2051 209.297 30.5146 207.992 30.6146 207.888C31.3615 208.636 32.1568 209.334 32.9954 209.978C33.4715 210.359 33.9858 210.725 34.4953 211.083L33.9715 210.825C33.0192 210.473 30.9812 210.349 30.2813 211.245C30.169 211.396 30.0897 211.569 30.0487 211.752C30.0076 211.936 30.0057 212.127 30.0429 212.311C30.0802 212.496 30.1559 212.67 30.265 212.824C30.3742 212.977 30.5143 213.106 30.6765 213.202C31.3526 213.63 32.3288 213.492 33.0573 213.225C33.7858 212.959 34.9143 211.864 35.2143 211.573L35.8 211.983C36.7523 212.63 37.7046 213.273 38.595 213.935C38.9188 214.168 39.2236 214.411 39.5474 214.649L39.0712 214.425C38.1189 214.073 36.0809 213.949 35.3762 214.844C35.2641 214.996 35.1852 215.169 35.1445 215.353C35.1038 215.537 35.1022 215.727 35.14 215.912C35.1777 216.097 35.2538 216.271 35.3634 216.424C35.473 216.578 35.6137 216.706 35.7762 216.801C36.4523 217.23 37.4284 217.092 38.157 216.825C38.8855 216.558 39.9045 215.568 40.2616 215.225C40.5664 215.478 40.8759 215.735 41.1616 215.997C41.352 216.178 41.552 216.339 41.733 216.535L42.2805 217.092C42.6186 217.463 42.9662 217.839 43.2852 218.211L43.9233 218.958C43.609 218.72 42.971 218.273 42.9234 218.244C42.0377 217.768 40.0378 217.32 39.2093 218.096C39.0749 218.229 38.9701 218.388 38.9017 218.564C38.8332 218.74 38.8027 218.928 38.8122 219.116C38.8216 219.305 38.8708 219.489 38.9564 219.657C39.0421 219.825 39.1624 219.973 39.3093 220.092C39.9093 220.615 40.8949 220.625 41.6377 220.473C42.3805 220.32 43.89 219.258 44.0709 219.125C44.3709 219.535 44.7042 219.939 45.0137 220.325Z" fill="#263238"/>
<path d="M95.9249 205.154C94.925 205.012 93.0251 203.774 93.0251 203.774C93.0251 203.774 94.2203 202.769 94.3012 202.716C95.2535 202.093 97.5153 201.464 98.5105 202.283C98.6717 202.424 98.8015 202.597 98.8915 202.792C98.9814 202.986 99.0296 203.197 99.0327 203.411C99.0358 203.626 98.9939 203.838 98.9097 204.035C98.8255 204.232 98.7008 204.409 98.5438 204.554C97.8962 205.197 96.7773 205.278 95.9249 205.154Z" fill="#263238"/>
<path d="M77.8643 195.736C77.8643 195.736 78.3071 194.236 78.3404 194.146C78.8166 193.093 80.326 191.332 81.6117 191.465C81.8241 191.494 82.0281 191.568 82.2104 191.681C82.3926 191.794 82.5492 191.944 82.6699 192.121C82.7906 192.298 82.8728 192.499 82.9112 192.71C82.9495 192.921 82.9432 193.137 82.8925 193.346C82.7068 194.236 81.8164 194.922 81.0403 195.288C80.1308 195.703 77.8643 195.736 77.8643 195.736Z" fill="#263238"/>
<path d="M75.7785 220.325C75.3356 220.872 74.9357 221.391 74.5738 221.863H73.6643C74.1405 221.277 74.6547 220.615 75.2594 219.896C75.607 219.477 75.9927 219.039 76.388 218.592C76.0244 218.15 75.6873 217.687 75.3785 217.206C74.4976 217.39 73.5956 217.453 72.6977 217.392C72.6358 217.925 72.5787 218.444 72.5358 218.939C72.431 220.049 72.3691 221.034 72.3263 221.863H71.5882C71.6454 221.015 71.7359 220.006 71.8644 218.868C71.9263 218.325 72.0025 217.749 72.0882 217.154C71.8787 217.092 70.1836 216.563 69.555 216.006C68.9265 215.449 68.4075 214.711 68.4694 213.911C68.4772 213.723 68.5247 213.538 68.6088 213.37C68.6928 213.201 68.8116 213.052 68.9572 212.932C69.1029 212.813 69.2721 212.725 69.4539 212.676C69.6357 212.626 69.8259 212.615 70.0121 212.644C71.1264 212.844 71.9739 214.706 72.112 215.711C72.112 215.768 72.112 216.42 72.112 216.83C72.1453 216.592 72.1787 216.354 72.2168 216.106C72.293 215.63 72.3834 215.125 72.4739 214.597C72.531 214.344 72.5834 214.087 72.6406 213.83C72.6977 213.573 72.7739 213.311 72.8405 213.044C73.012 212.435 73.2072 211.83 73.4215 211.221C72.9929 211.154 71.4644 210.897 70.8264 210.483C70.1883 210.068 69.4931 209.373 69.436 208.578C69.4152 208.39 69.4343 208.201 69.4918 208.021C69.5493 207.841 69.6441 207.676 69.7698 207.535C69.8956 207.394 70.0497 207.282 70.2219 207.205C70.3941 207.128 70.5806 207.088 70.7692 207.088C71.9025 207.116 73.0215 208.83 73.3072 209.802C73.3072 209.859 73.45 210.583 73.5119 210.978C73.6453 210.611 73.7738 210.249 73.9214 209.883C74.3405 208.83 74.7976 207.778 75.2499 206.726C75.388 206.407 75.5213 206.083 75.6594 205.773C75.5023 205.773 73.6834 205.483 72.9643 205.021C72.3311 204.612 71.6359 203.912 71.574 203.116C71.554 202.929 71.5735 202.739 71.6313 202.56C71.6891 202.381 71.7839 202.215 71.9096 202.075C72.0352 201.935 72.1889 201.822 72.3608 201.745C72.5326 201.667 72.7188 201.627 72.9072 201.626C74.0405 201.659 75.1642 203.369 75.4499 204.34C75.4499 204.412 75.6499 205.45 75.6832 205.716C75.9784 205.007 76.2689 204.288 76.5308 203.583C76.8844 202.622 77.1739 201.639 77.3974 200.64C77.326 200.64 75.4261 200.359 74.6928 199.888C74.0548 199.478 73.3596 198.779 73.3024 197.983C73.281 197.796 73.2993 197.606 73.3563 197.427C73.4132 197.247 73.5075 197.081 73.6329 196.941C73.7583 196.8 73.9121 196.687 74.0841 196.61C74.2561 196.533 74.4424 196.493 74.6309 196.493C75.7689 196.522 76.8879 198.236 77.1736 199.207C77.1736 199.269 77.3308 200.059 77.3879 200.436H77.4498C77.6498 199.427 77.7597 198.402 77.7783 197.374C77.7783 196.807 77.7783 196.264 77.7783 195.736C77.4165 195.736 75.7737 195.641 75.069 195.288C74.3643 194.936 73.6405 194.336 73.4786 193.545C73.4373 193.362 73.4351 193.171 73.4722 192.986C73.5094 192.802 73.585 192.627 73.6941 192.473C73.8032 192.32 73.9435 192.191 74.1057 192.095C74.2679 191.999 74.4485 191.938 74.6357 191.917C75.7689 191.822 77.0689 193.403 77.4593 194.336C77.4831 194.384 77.6403 194.926 77.7498 195.322C77.7498 195.084 77.7212 194.845 77.7022 194.612C77.6307 193.755 77.5117 192.979 77.4022 192.288C77.3355 191.898 77.2689 191.546 77.2022 191.217C76.8594 191.017 75.4737 190.203 75.0166 189.579C74.5595 188.955 74.1786 188.06 74.4071 187.298C74.4554 187.116 74.5415 186.946 74.66 186.799C74.7784 186.652 74.9265 186.532 75.0945 186.446C75.2625 186.36 75.4467 186.311 75.6351 186.301C75.8235 186.291 76.0119 186.321 76.188 186.389C77.2355 186.827 77.6641 188.827 77.5784 189.836C77.5784 189.922 77.3022 191.265 77.2831 191.265C77.3498 191.579 77.4212 191.917 77.4926 192.288C77.6212 192.979 77.7545 193.755 77.845 194.612C77.9551 195.533 78.0091 196.46 78.0069 197.388C78.0112 198.427 77.9235 199.464 77.745 200.488C77.7429 200.501 77.7429 200.513 77.745 200.526C77.8974 200.231 78.3593 199.426 78.4021 199.369C79.0021 198.55 80.6353 197.321 81.7114 197.679C81.884 197.746 82.0408 197.848 82.1719 197.978C82.303 198.109 82.4055 198.265 82.4731 198.437C82.5407 198.61 82.5718 198.794 82.5644 198.979C82.5571 199.164 82.5115 199.345 82.4305 199.512C82.1067 200.24 81.2162 200.664 80.4782 200.831C79.6449 201.026 77.8307 200.655 77.6879 200.626C77.4802 201.662 77.2034 202.684 76.8594 203.683C76.6594 204.269 76.4451 204.85 76.2165 205.431C76.3594 205.183 76.4879 204.954 76.5118 204.931C77.107 204.112 78.745 202.883 79.8449 203.24C80.0224 203.304 80.1845 203.404 80.3204 203.535C80.4564 203.666 80.5632 203.824 80.6337 203.999C80.7043 204.174 80.7371 204.362 80.73 204.55C80.7229 204.739 80.676 204.923 80.5925 205.092C80.2687 205.826 79.3735 206.245 78.6354 206.416C77.8974 206.588 76.3403 206.302 75.9261 206.226C75.8404 206.445 75.7547 206.669 75.6642 206.888C75.2356 207.954 74.8023 209.011 74.4119 210.064C74.269 210.435 74.15 210.802 74.0262 211.173C74.15 210.949 74.2595 210.764 74.2786 210.74C74.8738 209.921 76.5118 208.692 77.5879 209.049C77.7654 209.113 77.9275 209.214 78.0634 209.344C78.1994 209.475 78.3061 209.633 78.3767 209.808C78.4473 209.983 78.4801 210.171 78.473 210.359C78.4659 210.548 78.419 210.733 78.3355 210.902C78.0117 211.635 77.1165 212.054 76.3784 212.225C75.6404 212.397 74.2309 212.14 73.7453 212.044C73.631 212.43 73.5119 212.811 73.4167 213.187C73.3596 213.444 73.2834 213.692 73.2405 213.954C73.1977 214.216 73.1405 214.468 73.0929 214.72C73.012 215.197 72.931 215.72 72.8691 216.206C72.8263 216.539 72.7882 216.858 72.7501 217.158C72.8834 216.787 73.1596 216.068 73.1881 216.011C73.6263 215.23 74.2575 214.574 75.0214 214.106C75.068 214.018 75.1222 213.933 75.1833 213.854C75.2937 213.701 75.4351 213.573 75.5983 213.479C75.7615 213.385 75.9428 213.326 76.1302 213.307C76.3177 213.288 76.5071 213.308 76.6861 213.367C76.8651 213.426 77.0296 213.522 77.1689 213.649C77.9879 214.43 77.6688 216.454 77.226 217.363C77.2022 217.416 76.8546 217.968 76.6308 218.315C76.7927 218.13 76.9498 217.954 77.107 217.768C77.4403 217.396 77.7831 217.039 78.1545 216.649L78.7116 216.101C78.8973 215.916 79.1116 215.744 79.3116 215.558C79.7878 215.144 80.2925 214.749 80.8067 214.359C80.4829 214.063 79.3497 213.006 79.0449 212.311C78.7402 211.616 78.5688 210.649 78.9402 209.954C79.0257 209.786 79.1456 209.639 79.2921 209.52C79.4387 209.402 79.6085 209.316 79.7905 209.268C79.9725 209.22 80.1626 209.211 80.3484 209.241C80.5342 209.272 80.7115 209.341 80.8686 209.445C81.821 210.097 81.7924 212.14 81.4924 213.111C81.4924 213.168 81.1829 213.84 81.0163 214.206C81.3258 213.973 81.6353 213.73 81.9686 213.516C82.8971 212.873 83.8732 212.244 84.8255 211.611C85.1208 211.421 85.4112 211.225 85.7017 211.03C85.5826 210.925 84.2113 209.697 83.8685 208.921C83.5685 208.226 83.3923 207.259 83.7637 206.54C83.8504 206.377 83.97 206.233 84.1149 206.118C84.2598 206.003 84.4269 205.919 84.6058 205.872C84.7846 205.824 84.9713 205.814 85.1542 205.842C85.337 205.871 85.5121 205.936 85.6684 206.035C86.6207 206.688 86.5921 208.73 86.2921 209.702C86.2921 209.773 85.8493 210.735 85.7303 210.978C86.3683 210.549 87.0064 210.116 87.6111 209.664C88.436 209.059 89.2201 208.4 89.9586 207.692C89.9062 207.645 88.4682 206.369 88.1158 205.569C87.8158 204.878 87.6397 203.912 88.0111 203.212C88.0964 203.044 88.2164 202.896 88.3631 202.778C88.5097 202.66 88.6797 202.574 88.8619 202.526C89.0441 202.478 89.2344 202.47 89.4201 202.501C89.6058 202.532 89.7829 202.602 89.9395 202.707C90.8918 203.354 90.8633 205.402 90.5633 206.369C90.5633 206.435 90.2252 207.168 90.0871 207.516L90.1395 207.549C90.865 206.816 91.5232 206.02 92.1061 205.169C92.4299 204.692 92.7203 204.245 92.987 203.793C92.6965 203.583 91.368 202.607 90.9776 201.921C90.5871 201.236 90.2966 200.326 90.6109 199.588C90.6785 199.413 90.7821 199.253 90.9151 199.12C91.0481 198.988 91.2075 198.884 91.383 198.817C91.5585 198.75 91.7462 198.72 91.9339 198.73C92.1216 198.739 92.3052 198.789 92.4727 198.874C93.4679 199.421 93.6869 201.455 93.4965 202.45C93.4965 202.502 93.3203 203.04 93.1917 203.431C93.3108 203.221 93.4346 203.012 93.5441 202.812C93.9583 202.059 94.2869 201.345 94.5773 200.712C94.7345 200.345 94.8726 200.017 95.0011 199.707C94.8202 199.35 94.1202 197.907 94.0821 197.131C94.044 196.355 94.2155 195.403 94.8345 194.893C94.9749 194.768 95.1402 194.674 95.3194 194.617C95.4987 194.56 95.688 194.541 95.8749 194.562C96.0618 194.584 96.2422 194.644 96.4042 194.739C96.5663 194.835 96.7063 194.964 96.8153 195.117C97.4486 196.069 96.7058 197.974 96.0773 198.759C96.0249 198.831 95.0535 199.807 95.044 199.788C94.9297 200.093 94.8011 200.412 94.6583 200.74C94.3821 201.383 94.0679 202.107 93.6679 202.869C93.2507 203.697 92.7848 204.5 92.2727 205.273C91.7032 206.143 91.0579 206.96 90.3443 207.716L90.3157 207.74C90.6062 207.583 91.4347 207.164 91.5013 207.135C92.4537 206.783 94.4964 206.659 95.1964 207.554C95.3084 207.706 95.3874 207.879 95.4281 208.063C95.4688 208.247 95.4703 208.437 95.4326 208.622C95.3949 208.806 95.3187 208.981 95.2091 209.134C95.0995 209.287 94.9589 209.416 94.7964 209.511C94.1202 209.94 93.1441 209.802 92.4394 209.535C91.6394 209.235 90.33 207.93 90.2252 207.826C89.4794 208.575 88.684 209.273 87.8444 209.916C87.3683 210.297 86.8588 210.664 86.3493 211.021L86.8683 210.764C87.8206 210.411 89.8633 210.287 90.5633 211.183C90.6754 211.334 90.7543 211.507 90.795 211.691C90.8357 211.875 90.8373 212.066 90.7995 212.25C90.7618 212.435 90.6857 212.609 90.5761 212.763C90.4665 212.916 90.3258 213.044 90.1633 213.14C89.4872 213.568 88.511 213.43 87.8063 213.163C87.1016 212.897 85.9493 211.802 85.6493 211.511L85.0636 211.921C84.1113 212.568 83.159 213.211 82.2638 213.873C81.9448 214.106 81.64 214.349 81.3115 214.587L81.7876 214.363C82.74 214.011 84.7779 213.887 85.4779 214.782C85.5909 214.933 85.6708 215.106 85.7122 215.29C85.7537 215.474 85.7558 215.665 85.7185 215.849C85.6812 216.034 85.6053 216.209 85.4957 216.362C85.3861 216.516 85.2454 216.644 85.0827 216.739C84.4065 217.168 83.4304 217.03 82.7019 216.763C81.9733 216.497 80.9543 215.568 80.5734 215.225C80.2687 215.478 79.9592 215.735 79.6735 215.997C79.4782 216.177 79.283 216.339 79.1021 216.535L78.5735 217.092C78.2355 217.463 77.8879 217.839 77.5688 218.211C77.345 218.463 77.1403 218.711 76.926 218.958C77.245 218.72 77.8783 218.273 77.9307 218.244C78.8164 217.768 80.7877 217.32 81.64 218.096C81.7747 218.229 81.8798 218.388 81.9487 218.563C82.0175 218.739 82.0485 218.927 82.0395 219.115C82.0305 219.304 81.9818 219.488 81.8965 219.656C81.8112 219.825 81.6914 219.973 81.5448 220.092C80.9448 220.615 79.9544 220.625 79.2164 220.472C78.4021 220.301 76.9641 219.258 76.7832 219.125C76.4165 219.534 76.0832 219.939 75.7785 220.325Z" fill="#263238"/>
<path d="M209.28 204.931C208.28 204.783 206.385 203.55 206.38 203.545C206.376 203.54 207.575 202.545 207.661 202.488C208.613 201.869 210.87 201.236 211.866 202.059C212.027 202.2 212.158 202.373 212.248 202.567C212.339 202.762 212.387 202.973 212.39 203.187C212.393 203.402 212.351 203.614 212.267 203.811C212.182 204.008 212.057 204.185 211.899 204.331C211.251 204.973 210.132 205.05 209.28 204.931Z" fill="#263238"/>
<path d="M190.657 195.345C190.633 195.345 191.1 193.845 191.133 193.755C191.61 192.703 193.119 190.941 194.405 191.074C194.62 191.103 194.826 191.177 195.01 191.292C195.195 191.406 195.353 191.558 195.474 191.738C195.595 191.918 195.676 192.122 195.713 192.336C195.749 192.55 195.74 192.769 195.686 192.979C195.5 193.869 194.609 194.555 193.828 194.922C192.929 195.326 190.662 195.345 190.657 195.345Z" fill="#263238"/>
<path d="M188.796 220.325C188.353 220.872 187.953 221.391 187.591 221.863H186.663C187.139 221.277 187.653 220.615 188.258 219.896C188.605 219.477 188.991 219.039 189.386 218.592C189.023 218.15 188.686 217.687 188.377 217.206C187.496 217.39 186.594 217.453 185.696 217.392C185.634 217.925 185.577 218.444 185.534 218.939C185.429 220.049 185.367 221.034 185.325 221.863H184.586C184.644 221.015 184.734 220.006 184.863 218.868C184.925 218.325 185.001 217.749 185.086 217.154C184.877 217.092 183.182 216.563 182.553 216.006C181.925 215.449 181.406 214.711 181.468 213.911C181.476 213.723 181.523 213.539 181.607 213.371C181.69 213.203 181.809 213.054 181.954 212.934C182.099 212.815 182.268 212.727 182.449 212.677C182.63 212.627 182.82 212.616 183.006 212.644C184.125 212.844 184.972 214.706 185.11 215.711C185.11 215.768 185.11 216.42 185.134 216.83C185.167 216.592 185.201 216.354 185.239 216.106C185.315 215.63 185.405 215.125 185.496 214.597C185.553 214.344 185.605 214.087 185.663 213.83C185.72 213.573 185.796 213.311 185.863 213.044C186.034 212.435 186.229 211.83 186.444 211.221C186.015 211.154 184.486 210.897 183.848 210.483C183.21 210.068 182.515 209.373 182.458 208.578C182.437 208.39 182.456 208.201 182.514 208.021C182.571 207.841 182.666 207.676 182.792 207.535C182.918 207.394 183.072 207.282 183.244 207.205C183.416 207.128 183.603 207.088 183.791 207.088C184.925 207.116 186.044 208.83 186.329 209.802C186.329 209.859 186.472 210.583 186.534 210.978C186.667 210.611 186.796 210.249 186.943 209.883C187.362 208.83 187.82 207.778 188.272 206.726C188.41 206.407 188.543 206.083 188.681 205.773C188.524 205.773 186.705 205.483 185.986 205.021C185.353 204.612 184.658 203.912 184.596 203.116C184.576 202.929 184.596 202.739 184.653 202.56C184.711 202.381 184.806 202.215 184.932 202.075C185.057 201.935 185.211 201.822 185.383 201.745C185.555 201.667 185.741 201.627 185.929 201.626C187.063 201.659 188.186 203.369 188.472 204.34C188.472 204.412 188.672 205.45 188.705 205.716C189.001 205.007 189.291 204.288 189.553 203.583C189.906 202.622 190.196 201.639 190.419 200.64C190.348 200.64 188.448 200.359 187.715 199.888C187.077 199.478 186.382 198.779 186.324 197.983C186.303 197.796 186.321 197.606 186.378 197.427C186.435 197.247 186.53 197.081 186.655 196.941C186.78 196.8 186.934 196.687 187.106 196.61C187.278 196.533 187.464 196.493 187.653 196.493C188.791 196.522 189.91 198.236 190.196 199.207C190.196 199.269 190.353 200.059 190.41 200.436H190.472C190.672 199.427 190.782 198.402 190.8 197.374C190.8 196.807 190.8 196.264 190.777 195.736C190.415 195.736 188.772 195.641 188.067 195.288C187.363 194.936 186.639 194.336 186.477 193.545C186.436 193.362 186.433 193.171 186.47 192.986C186.508 192.802 186.583 192.627 186.692 192.473C186.801 192.32 186.942 192.191 187.104 192.095C187.266 191.999 187.447 191.938 187.634 191.917C188.767 191.822 190.067 193.403 190.458 194.336C190.481 194.384 190.638 194.926 190.748 195.322C190.748 195.084 190.719 194.845 190.7 194.612C190.629 193.755 190.51 192.979 190.4 192.288C190.334 191.898 190.267 191.546 190.2 191.217C189.858 191.017 188.472 190.203 188.015 189.579C187.558 188.955 187.177 188.06 187.405 187.298C187.454 187.116 187.54 186.946 187.658 186.799C187.777 186.652 187.925 186.532 188.093 186.446C188.261 186.36 188.445 186.311 188.633 186.301C188.822 186.291 189.01 186.321 189.186 186.389C190.234 186.827 190.662 188.827 190.577 189.836C190.577 189.922 190.3 191.265 190.281 191.265C190.348 191.579 190.419 191.917 190.491 192.288C190.619 192.979 190.753 193.755 190.843 194.612C190.953 195.533 191.007 196.46 191.005 197.388C191.007 198.427 190.919 199.464 190.743 200.488C190.741 200.501 190.741 200.513 190.743 200.526C190.896 200.231 191.358 199.426 191.4 199.369C192 198.55 193.634 197.321 194.71 197.679C194.887 197.742 195.049 197.843 195.185 197.974C195.321 198.104 195.428 198.262 195.499 198.437C195.569 198.612 195.602 198.8 195.595 198.988C195.588 199.177 195.541 199.362 195.457 199.531C195.133 200.259 194.243 200.683 193.505 200.85C192.672 201.045 190.858 200.674 190.715 200.645C190.507 201.681 190.23 202.703 189.886 203.702C189.686 204.288 189.472 204.869 189.243 205.45C189.386 205.202 189.515 204.973 189.539 204.95C190.134 204.131 191.772 202.902 192.872 203.259C193.049 203.323 193.211 203.423 193.347 203.554C193.483 203.685 193.59 203.843 193.661 204.018C193.731 204.193 193.764 204.381 193.757 204.569C193.75 204.758 193.703 204.942 193.619 205.111C193.295 205.845 192.4 206.264 191.662 206.435C190.924 206.607 189.362 206.321 188.953 206.245C188.867 206.464 188.781 206.688 188.691 206.907C188.262 207.973 187.829 209.03 187.439 210.083C187.296 210.454 187.177 210.821 187.048 211.192C187.177 210.968 187.286 210.783 187.305 210.759C187.901 209.94 189.539 208.711 190.638 209.068C190.816 209.132 190.978 209.233 191.114 209.363C191.25 209.494 191.357 209.652 191.427 209.827C191.498 210.002 191.531 210.19 191.524 210.378C191.517 210.567 191.47 210.752 191.386 210.921C191.062 211.654 190.167 212.073 189.429 212.244C188.691 212.416 187.282 212.159 186.796 212.063C186.682 212.449 186.563 212.83 186.467 213.206C186.41 213.463 186.334 213.711 186.291 213.973C186.248 214.235 186.191 214.487 186.139 214.739C186.063 215.216 185.982 215.739 185.92 216.225C185.877 216.558 185.839 216.877 185.801 217.177C185.934 216.806 186.21 216.087 186.239 216.03C186.677 215.249 187.308 214.593 188.072 214.125C188.119 214.037 188.173 213.952 188.234 213.873C188.344 213.72 188.486 213.593 188.649 213.498C188.812 213.404 188.993 213.345 189.181 213.326C189.368 213.307 189.558 213.327 189.737 213.386C189.916 213.445 190.08 213.541 190.219 213.668C191.038 214.449 190.696 216.473 190.277 217.382C190.253 217.435 189.905 217.987 189.681 218.335C189.843 218.149 190 217.973 190.158 217.787C190.491 217.416 190.834 217.058 191.205 216.668L191.762 216.12C191.948 215.935 192.162 215.763 192.362 215.578C192.838 215.163 193.343 214.768 193.857 214.378C193.534 214.082 192.4 213.025 192.096 212.33C191.791 211.635 191.619 210.668 191.991 209.973C192.077 209.809 192.196 209.664 192.34 209.548C192.485 209.432 192.652 209.348 192.831 209.3C193.01 209.252 193.197 209.242 193.381 209.27C193.564 209.298 193.739 209.364 193.895 209.464C194.848 210.116 194.819 212.159 194.519 213.13C194.519 213.187 194.21 213.859 194.043 214.225C194.353 213.992 194.662 213.749 194.995 213.535C195.924 212.892 196.9 212.263 197.852 211.63C198.148 211.44 198.438 211.244 198.728 211.049C198.609 210.944 197.238 209.716 196.895 208.94C196.595 208.245 196.419 207.278 196.791 206.559C196.877 206.392 196.998 206.245 197.144 206.128C197.291 206.011 197.461 205.926 197.643 205.878C197.824 205.831 198.014 205.822 198.199 205.852C198.385 205.882 198.562 205.951 198.719 206.054C199.671 206.707 199.643 208.749 199.343 209.721C199.319 209.792 198.9 210.754 198.781 210.997C199.419 210.568 200.057 210.135 200.662 209.683C201.487 209.078 202.271 208.419 203.009 207.711C202.957 207.664 201.519 206.388 201.166 205.588C200.866 204.897 200.69 203.931 201.062 203.231C201.147 203.066 201.266 202.921 201.411 202.806C201.556 202.69 201.723 202.605 201.903 202.558C202.082 202.51 202.269 202.501 202.452 202.53C202.635 202.559 202.81 202.625 202.966 202.726C203.919 203.373 203.89 205.421 203.59 206.388C203.59 206.454 203.252 207.188 203.114 207.535L203.166 207.568C203.892 206.835 204.55 206.039 205.133 205.188C205.457 204.712 205.747 204.264 206.014 203.812C205.723 203.602 204.395 202.626 204.004 201.94C203.614 201.255 203.323 200.345 203.638 199.607C203.705 199.432 203.809 199.272 203.942 199.14C204.075 199.007 204.234 198.903 204.41 198.836C204.585 198.769 204.773 198.739 204.961 198.749C205.148 198.759 205.332 198.808 205.5 198.893C206.495 199.44 206.714 201.474 206.523 202.469C206.523 202.521 206.347 203.059 206.219 203.45C206.338 203.24 206.461 203.031 206.571 202.831C206.985 202.078 207.314 201.364 207.604 200.731C207.761 200.364 207.899 200.036 208.028 199.726C207.847 199.369 207.147 197.926 207.109 197.15C207.071 196.374 207.242 195.422 207.861 194.912C208.002 194.787 208.167 194.693 208.346 194.636C208.526 194.579 208.715 194.56 208.902 194.581C209.089 194.603 209.269 194.663 209.431 194.758C209.593 194.854 209.733 194.983 209.842 195.136C210.475 196.088 209.733 197.993 209.104 198.779C209.052 198.85 208.08 199.826 208.071 199.807C207.957 200.112 207.828 200.431 207.685 200.759C207.409 201.402 207.095 202.126 206.695 202.888C206.278 203.716 205.812 204.519 205.3 205.292C204.738 206.161 204.1 206.978 203.395 207.735L203.366 207.759C203.657 207.602 204.485 207.183 204.552 207.154C205.504 206.802 207.547 206.678 208.247 207.573C208.359 207.725 208.438 207.898 208.479 208.082C208.519 208.266 208.521 208.456 208.483 208.641C208.446 208.825 208.369 209 208.26 209.153C208.15 209.307 208.01 209.435 207.847 209.53C207.171 209.959 206.195 209.821 205.49 209.554C204.69 209.254 203.381 207.949 203.276 207.845C202.53 208.594 201.735 209.292 200.895 209.935C200.419 210.316 199.909 210.683 199.4 211.04L199.919 210.783C200.871 210.43 202.914 210.306 203.614 211.202C203.726 211.353 203.805 211.526 203.846 211.71C203.886 211.894 203.888 212.085 203.85 212.269C203.812 212.454 203.736 212.628 203.627 212.782C203.517 212.935 203.376 213.063 203.214 213.159C202.538 213.587 201.562 213.449 200.833 213.182C200.105 212.916 198.976 211.821 198.676 211.53L198.09 211.94C197.138 212.587 196.186 213.23 195.291 213.892C194.972 214.125 194.667 214.368 194.338 214.606L194.791 214.382C195.743 214.03 197.781 213.906 198.481 214.801C198.594 214.952 198.674 215.125 198.715 215.309C198.757 215.493 198.759 215.684 198.722 215.868C198.684 216.053 198.608 216.228 198.499 216.381C198.389 216.535 198.248 216.663 198.086 216.758C197.41 217.187 196.433 217.049 195.705 216.782C194.976 216.516 193.962 215.525 193.605 215.182C193.3 215.435 192.991 215.692 192.705 215.954C192.51 216.135 192.315 216.297 192.134 216.492L191.586 217.049C191.248 217.42 190.9 217.796 190.581 218.168C190.358 218.42 190.153 218.668 189.939 218.915C190.258 218.677 190.891 218.23 190.943 218.201C191.829 217.725 193.824 217.277 194.653 218.054C194.787 218.186 194.892 218.345 194.961 218.52C195.03 218.696 195.061 218.884 195.052 219.072C195.043 219.261 194.994 219.445 194.909 219.613C194.824 219.782 194.704 219.93 194.557 220.049C193.953 220.572 192.967 220.582 192.229 220.43C191.415 220.258 189.977 219.215 189.796 219.082C189.434 219.534 189.1 219.939 188.796 220.325Z" fill="#263238"/>
<path d="M133.556 221.863H127.08L132.308 181.771H138.784L133.556 221.863Z" fill="#263238"/>
<path d="M181.368 221.863H187.844L182.615 181.771H176.139L181.368 221.863Z" fill="#263238"/>
<path d="M161.017 181.771H154.045V221.616H161.017V181.771Z" fill="#263238"/>
<path d="M157.531 195.893C180.331 195.893 198.814 177.41 198.814 154.61C198.814 131.81 180.331 113.327 157.531 113.327C134.731 113.327 116.248 131.81 116.248 154.61C116.248 177.41 134.731 195.893 157.531 195.893Z" fill="#3D6CB4"/>
<path d="M157.531 188.218C176.092 188.218 191.138 173.171 191.138 154.61C191.138 136.049 176.092 121.003 157.531 121.003C138.97 121.003 123.923 136.049 123.923 154.61C123.923 173.171 138.97 188.218 157.531 188.218Z" fill="white"/>
<path d="M163.87 180.182C177.987 176.678 186.59 162.393 183.086 148.276C179.582 134.159 165.297 125.556 151.181 129.06C137.064 132.564 128.46 146.848 131.964 160.965C135.468 175.082 149.753 183.686 163.87 180.182Z" fill="#3D6CB4"/>
<path d="M157.531 173.661C168.053 173.661 176.582 165.132 176.582 154.61C176.582 144.088 168.053 135.559 157.531 135.559C147.009 135.559 138.48 144.088 138.48 154.61C138.48 165.132 147.009 173.661 157.531 173.661Z" fill="white"/>
<path d="M157.531 167.048C164.4 167.048 169.968 161.479 169.968 154.61C169.968 147.741 164.4 142.173 157.531 142.173C150.662 142.173 145.094 147.741 145.094 154.61C145.094 161.479 150.662 167.048 157.531 167.048Z" fill="#FFDD98"/>
<path d="M73.6363 118.717L71.7603 134.983L65.0511 169.704L60.0038 208.002C60.0038 208.002 58.8134 209.045 58.8134 209.94V213.797L66.8606 216.778C66.8606 216.778 68.3509 213.84 68.3509 212.645C68.3509 211.449 68.051 208.921 68.2033 208.026C68.3557 207.131 73.7173 193.57 74.7601 190.146C75.8029 186.722 76.5457 178.818 76.8457 177.628C77.1457 176.437 86.9784 144.392 86.9784 144.392L88.4688 144.244L96.1921 179.242C96.1921 179.242 99.3253 192.503 100.216 197.722C101.106 202.94 103.644 209.345 103.644 209.345C103.176 210.101 103.016 211.007 103.196 211.878C103.496 213.368 106.139 218.201 106.139 218.201L113.334 212.54C113.334 212.54 114.401 208.897 113.953 208.15C113.505 207.402 112.91 206.364 112.91 206.364C112.91 206.364 112.015 185.651 111.567 184.008C111.217 182.444 111.018 180.849 110.972 179.247C110.972 178.799 104.711 135.135 104.711 135.135L102.03 117.698C102.03 117.698 87.8736 118.893 81.912 118.146C75.9505 117.398 74.6077 117.25 74.6077 117.25L73.8649 118.146L73.6363 118.717Z" fill="white" stroke="#263238" stroke-width="0.621622" stroke-linecap="round" stroke-linejoin="round"/>
<path d="M58.7943 213.797C58.1129 215.09 57.3478 216.337 56.504 217.53C55.7326 218.425 54.3232 219.325 54.0661 220.092C53.923 220.682 53.923 221.297 54.0661 221.887H66.7605C66.7605 221.887 67.5319 220.22 67.1462 219.068C66.9112 218.328 66.8081 217.553 66.8415 216.778L58.7943 213.797Z" fill="#5D84C0" stroke="#263238" stroke-width="0.621622" stroke-linecap="round" stroke-linejoin="round"/>
<path d="M54.0661 221.863H66.7605C67.0106 221.293 67.1712 220.687 67.2367 220.068H54.0661C53.923 220.658 53.923 221.273 54.0661 221.863Z" fill="white" stroke="#263238" stroke-width="0.621622" stroke-linecap="round" stroke-linejoin="round"/>
<path d="M113.334 212.773C113.334 212.773 117.286 215.583 120.234 217.378C123.181 219.173 124.081 219.816 124.081 220.839V221.863H105.987C105.987 221.863 105.73 219.43 106.115 218.016C106.134 218.016 113.486 212.14 113.334 212.773Z" fill="#5D84C0" stroke="#263238" stroke-width="0.621622" stroke-linecap="round" stroke-linejoin="round"/>
<path d="M106.006 221.863H124.1V220.839C124.102 220.664 124.071 220.49 124.009 220.325H105.915C105.934 221.177 106.006 221.863 106.006 221.863Z" fill="white" stroke="#263238" stroke-width="0.621622" stroke-linecap="round" stroke-linejoin="round"/>
<path d="M121.933 79.4621C121.933 79.4621 125.648 79.824 127.171 79.4621C128.695 79.1003 132.547 78.3527 133.552 78.3813C134.557 78.4098 146.075 80.0288 147.513 79.9097C148.951 79.7907 154.698 79.0955 154.698 79.0955L153.898 85.6332C153.898 85.6332 145.013 86.1379 141.294 87.0046C137.575 87.8712 123.9 88.5473 120.224 88.6235L121.933 79.4621Z" fill="white" stroke="#263238" stroke-width="0.621622" stroke-linecap="round" stroke-linejoin="round"/>
<path d="M58.2943 83.8046C58.2943 83.8046 55.5135 77.6145 55.9611 75.2337C56.4087 72.8529 64.1606 74.6337 63.8606 76.7241C63.5606 78.8144 60.9227 83.5856 58.2943 83.8046Z" fill="#6B6B6B" stroke="#263238" stroke-width="0.621622" stroke-linecap="round" stroke-linejoin="round"/>
<path d="M88.4496 124.697C95.9873 124.493 100.458 122.412 102.535 121.112L102.011 117.693C102.011 117.693 87.8544 118.888 81.8929 118.141C75.9313 117.393 74.5886 117.245 74.5886 117.245L73.8457 118.141L73.6362 118.717L73.3362 121.279C75.1647 122.455 80.0025 124.926 88.4496 124.697Z" fill="#6B6B6B" stroke="#263238" stroke-width="0.621622" stroke-linecap="round" stroke-linejoin="round"/>
<path d="M96.6207 120.512C96.6207 120.75 96.7016 123.44 96.7016 123.44L97.9634 123.121L97.8825 120.117L96.6207 120.512Z" fill="#5D84C0" stroke="#263238" stroke-width="0.621622" stroke-linecap="round" stroke-linejoin="round"/>
<path d="M77.4171 120.117C77.4171 120.117 75.5125 121.464 77.4171 123.279C77.4171 123.279 81.1312 124.859 86.8213 124.707C86.8213 124.707 88.4593 123.907 87.207 121.502C83.9124 121.298 80.639 120.835 77.4171 120.117Z" fill="#5D84C0" stroke="#263238" stroke-width="0.621622" stroke-linecap="round" stroke-linejoin="round"/>
<path d="M76.9407 122.569L62.0035 143.987L62.6368 146.834" stroke="#263238" stroke-width="0.621622" stroke-linecap="round" stroke-linejoin="round"/>
<path d="M86.9782 124.388L92.2731 136.164" stroke="#263238" stroke-width="0.621622" stroke-linecap="round" stroke-linejoin="round"/>
<path d="M84.4596 139.492L102.201 135.778" stroke="#263238" stroke-width="0.621622" stroke-linecap="round" stroke-linejoin="round"/>
<path d="M98.4871 136.463C98.6537 136.182 100.33 133.306 101.444 133.44C102.558 133.573 101.306 135.911 101.306 135.911C101.306 135.911 98.4776 136.478 98.4871 136.463Z" fill="#5D84C0" stroke="#263238" stroke-width="0.621622" stroke-linecap="round" stroke-linejoin="round"/>
<path d="M98.4873 136.463C98.4873 136.463 100.001 137.84 101.168 138.044C102.335 138.249 102.339 136.74 101.306 135.911L98.4873 136.463Z" fill="white" stroke="#263238" stroke-width="0.621622" stroke-linecap="round" stroke-linejoin="round"/>
<path d="M85.0784 141.963L102.82 138.254" stroke="#263238" stroke-width="0.621622" stroke-linecap="round" stroke-linejoin="round"/>
<path d="M99.1062 138.939C99.2729 138.658 100.949 135.782 102.063 135.911C103.177 136.04 101.925 138.387 101.925 138.387C101.925 138.387 99.0967 138.954 99.1062 138.939Z" fill="#5D84C0" stroke="#263238" stroke-width="0.621622" stroke-linecap="round" stroke-linejoin="round"/>
<path d="M99.1062 138.939C99.1062 138.939 100.62 140.315 101.787 140.52C102.954 140.725 102.958 139.216 101.925 138.387L99.1062 138.939Z" fill="white" stroke="#263238" stroke-width="0.621622" stroke-linecap="round" stroke-linejoin="round"/>
<path d="M85.6973 144.439L103.439 140.725" stroke="#263238" stroke-width="0.621622" stroke-linecap="round" stroke-linejoin="round"/>
<path d="M99.7251 141.42C99.8918 141.139 101.568 138.263 102.682 138.392C103.796 138.52 102.544 140.868 102.544 140.868C102.544 140.868 99.7156 141.42 99.7251 141.42Z" fill="#5D84C0" stroke="#263238" stroke-width="0.621622" stroke-linecap="round" stroke-linejoin="round"/>
<path d="M99.7251 141.42C99.7251 141.42 101.239 142.796 102.406 143.001C103.572 143.206 103.577 141.697 102.544 140.868L99.7251 141.42Z" fill="#5D84C0" stroke="#263238" stroke-width="0.621622" stroke-linecap="round" stroke-linejoin="round"/>
<path d="M84.3879 140.725L102.13 137.016" stroke="#263238" stroke-width="0.621622" stroke-linecap="round" stroke-linejoin="round"/>
<path d="M98.4206 137.702C98.5872 137.421 100.259 134.545 101.378 134.678C102.497 134.811 101.239 137.149 101.239 137.149C101.239 137.149 98.411 137.716 98.4206 137.702Z" fill="#5D84C0" stroke="#263238" stroke-width="0.621622" stroke-linecap="round" stroke-linejoin="round"/>
<path d="M98.4205 137.702C98.4205 137.702 99.93 139.078 101.101 139.282C102.273 139.487 102.268 137.978 101.239 137.149L98.4205 137.702Z" fill="#5D84C0" stroke="#263238" stroke-width="0.621622" stroke-linecap="round" stroke-linejoin="round"/>
<path d="M85.0784 143.068L102.82 139.354" stroke="#263238" stroke-width="0.621622" stroke-linecap="round" stroke-linejoin="round"/>
<path d="M99.1062 140.04C99.2729 139.759 100.949 136.883 102.063 137.016C103.177 137.149 101.906 139.516 101.906 139.516C101.906 139.516 99.0967 140.054 99.1062 140.04Z" fill="#5D84C0" stroke="#263238" stroke-width="0.621622" stroke-linecap="round" stroke-linejoin="round"/>
<path d="M99.1062 140.039C99.1062 140.039 100.62 141.416 101.787 141.62C102.954 141.825 102.958 140.316 101.925 139.492L99.1062 140.039Z" fill="#5D84C0" stroke="#263238" stroke-width="0.621622" stroke-linecap="round" stroke-linejoin="round"/>
<path d="M92.616 134.783L59.9037 147.006L60.6846 150.305L95.1826 144.115L92.616 134.783ZM84.4737 138.592L92.1637 135.825L92.6637 137.254L84.4737 138.592Z" fill="#263238" stroke="#263238" stroke-width="0.621622" stroke-linecap="round" stroke-linejoin="round"/>
<path d="M81.6454 74.9052C78.5796 74.8055 75.5284 74.4374 72.5269 73.8053C68.189 72.8054 63.4084 72.1387 63.4084 72.1387C63.4084 72.1387 61.6275 78.586 60.7371 80.8097C60.2901 82.0609 59.428 83.1213 58.2944 83.8142C58.2944 83.8142 67.7462 86.2617 68.189 86.4807C68.6319 86.6998 71.8602 99.9371 72.1936 103.942C72.5269 107.946 73.7506 115.284 73.4173 116.174C73.1923 117.026 73.2698 117.93 73.6363 118.731C73.8601 119.179 82.2072 121.512 87.2069 121.512C91.5297 121.393 95.8223 120.754 99.9919 119.607C101.216 119.165 101.997 118.274 101.997 117.16C102.052 116.123 102.052 115.083 101.997 114.046C101.882 113.27 105.553 95.4754 105.553 95.4754L118.696 93.8375L121.933 79.4621C121.933 79.4621 109.077 78.2003 106.172 77.3956C101.997 76.2337 97.7682 75.7909 94.7446 75.4576C91.721 75.1243 81.6454 74.9052 81.6454 74.9052Z" fill="#263238" stroke="#263238" stroke-width="0.621622" stroke-linecap="round" stroke-linejoin="round"/>
<path d="M107.972 84.4619L105.553 95.4755L111.696 85.5047" stroke="#6E6E6E" stroke-width="0.621622" stroke-linecap="round" stroke-linejoin="round"/>
<path d="M105.553 95.4754L114.381 88.633" stroke="#6E6E6E" stroke-width="0.621622" stroke-linecap="round" stroke-linejoin="round"/>
<path d="M68.189 86.4666C68.2335 84.2255 67.9299 81.9911 67.2891 79.8432" stroke="#6E6E6E" stroke-width="0.621622" stroke-linecap="round" stroke-linejoin="round"/>
<path d="M68.7794 86.995C68.7794 86.995 69.8222 82.3762 69.227 79.8526" stroke="#6E6E6E" stroke-width="0.621622" stroke-linecap="round" stroke-linejoin="round"/>
<path d="M67.5843 86.2522L61.9227 80.5859" stroke="#6E6E6E" stroke-width="0.621622" stroke-linecap="round" stroke-linejoin="round"/>
<path d="M101.482 76.2623C99.0062 75.6195 96.8682 75.729 95.1873 75.51C89.6591 87.8331 72.1935 103.927 72.1935 103.927C72.2459 104.561 72.322 105.27 72.4078 106.032C77.617 100.999 85.0213 95.7897 85.0213 95.7897L103.592 105.146C104.544 100.385 105.549 95.4755 105.549 95.4755C100.349 88.9949 101.116 78.7098 101.482 76.2623Z" fill="#5D84C0" stroke="#263238" stroke-width="0.621622" stroke-linecap="round" stroke-linejoin="round"/>
<path d="M80.6455 70.2341C80.9624 71.0966 81.1859 71.9906 81.3121 72.9007C81.3121 73.6816 79.3123 77.348 79.5313 78.0146C79.7503 78.6813 84.8691 83.2524 87.7594 82.1335C90.6497 81.0145 92.8591 78.0146 92.8591 77.2385C92.8591 76.4624 91.9686 73.6816 91.9686 71.6769C91.9686 69.6723 86.7309 65.2297 84.5167 65.0106C82.3026 64.7916 80.755 67.6772 80.6455 70.2341Z" fill="white" stroke="#263238" stroke-width="0.621622" stroke-linecap="round" stroke-linejoin="round"/>
<path d="M95.435 55.1111C95.435 55.1111 97.1015 60.7822 96.7682 61.3345C96.5122 61.7942 96.2895 62.2716 96.1016 62.763C96.1016 62.763 98.4348 65.32 98.1015 65.8771C97.7682 66.4342 96.7682 67.2104 96.673 67.6579C96.5777 68.1055 95.1159 73.8814 94.4493 74.3242C93.7827 74.767 90.4448 73.7671 88.2211 72.7672C86.8778 72.1537 85.7534 71.1455 84.9975 69.8769C84.9975 69.8769 82.8833 71.1006 80.7692 68.8722C78.655 66.6437 79.4359 62.4249 81.2168 60.3012C82.9976 58.1776 88.7639 52.6636 91.4304 52.6636C94.0969 52.6636 95.435 55.1111 95.435 55.1111Z" fill="white" stroke="#263238" stroke-width="0.621622" stroke-linecap="round" stroke-linejoin="round"/>
<path d="M88.2068 56.8873C88.2068 56.8873 87.3163 57.554 87.6497 58.1111C87.983 58.6682 89.6495 59.7776 88.5401 60.5586C87.4306 61.3395 86.6354 61.8918 86.6354 62.5584C86.6354 63.2251 86.7449 65.1154 86.3021 65.3392C85.8593 65.563 85.1879 65.3392 84.5213 64.3393C83.8546 63.3393 82.9642 63.1155 82.0738 63.7822C81.1834 64.4488 82.2976 67.7867 82.7404 68.3438C83.2767 68.8601 83.8749 69.3079 84.5213 69.6771C84.5213 69.6771 81.8548 71.5817 81.4072 71.5817C80.9596 71.5817 80.8501 71.1389 79.2978 69.1342C77.7455 67.1296 75.4885 63.0203 75.4028 58.9063C75.317 54.7922 78.6264 52.4543 79.8501 52.121C80.6173 51.9153 81.3988 51.7673 82.1881 51.6781C82.1881 51.6781 81.4072 49.3402 83.4118 48.7831C85.4165 48.2259 85.4117 50.0068 86.3021 49.4497C87.1925 48.8926 86.6354 46.1166 88.4163 45.669C90.1971 45.2214 92.0827 46.3403 92.0827 47.3403C92.0827 48.3402 93.7541 48.8973 94.754 48.0069C95.7539 47.1165 98.6443 49.2307 99.4252 50.7877C100.206 52.3448 98.2014 55.1255 96.3111 55.3446C94.4207 55.5636 92.197 54.0113 91.1923 54.7875C90.1876 55.5636 88.2068 56.8873 88.2068 56.8873Z" fill="#263238" stroke="#263238" stroke-width="0.621622" stroke-linecap="round" stroke-linejoin="round"/>
<path d="M151.722 102.337C148.094 109.136 142.88 114.96 136.961 119.826C132.119 123.798 122.567 127.635 122.172 134.868" stroke="#263238" stroke-width="1.86487" stroke-linecap="round" stroke-linejoin="round"/>
<path d="M150.565 56.3587C146.799 49.6353 141.466 43.9166 135.433 39.1692C130.509 35.3028 120.881 31.6601 120.338 24.432" stroke="#263238" stroke-width="1.86487" stroke-linecap="round" stroke-linejoin="round"/>
<path d="M150.541 55.0539C150.541 55.0539 148.97 55.3443 149.022 55.9776C149.075 56.6109 148.289 62.5677 149.022 63.62C149.755 64.6723 153.041 67.9055 151.998 70.7005C150.955 73.4956 151.227 74.9051 151.608 75.6717C151.989 76.4383 152.893 80.6619 152.722 81.9475C152.551 83.2331 149.765 86.1758 150.251 88.2043C150.736 90.2327 151.141 93.2278 149.874 95.2419C148.608 97.2561 149.227 98.9608 149.37 100.699C149.485 101.832 149.791 102.938 150.274 103.97L151.703 104.013C151.703 104.013 156.407 89.6089 156.107 76.2574C155.807 62.9058 150.541 55.0539 150.541 55.0539Z" fill="#5D84C0" stroke="#263238" stroke-width="0.621622" stroke-linecap="round" stroke-linejoin="round"/>
<path d="M121.114 26.5033L93.7208 73.9052L122.571 131.254" stroke="#263238" stroke-width="0.621622" stroke-linecap="round" stroke-linejoin="round"/>
<path d="M92.4639 73.8434L160.488 79.1573" stroke="#263238" stroke-width="1.24324" stroke-linecap="round" stroke-linejoin="round"/>
<path d="M83.2452 73.0481C83.2452 73.0481 85.788 71.3911 86.8307 70.5245C87.8735 69.6578 90.9258 70.0769 91.3876 70.2626C91.8495 70.4483 95.4207 71.8244 95.7683 72.0196C96.1159 72.2148 96.7206 72.4958 96.2111 73.3243C95.7017 74.1528 94.2636 74.0385 94.197 74.6052C94.1303 75.1718 94.4541 76.367 94.0494 76.8479C93.7716 77.2262 93.5784 77.6598 93.4827 78.1192C93.4827 78.1192 95.0065 79.0001 94.616 79.7001C94.2256 80.4001 94.3113 80.062 93.0828 80.0525C90.0552 79.8577 87.0429 79.4713 84.0642 78.8954C82.0835 78.403 80.0306 78.2692 78.0027 78.5002C75.5648 78.7049 58.7562 80.5334 55.7945 79.7715C52.8328 79.0097 48.9997 75.867 48.6044 73.7814C48.2092 71.6958 54.4279 68.615 56.423 68.4531C58.4181 68.2912 80.1502 73.4148 80.9549 73.6909C81.7596 73.9671 83.2452 73.0481 83.2452 73.0481Z" fill="white" stroke="#263238" stroke-width="0.621622" stroke-linecap="round" stroke-linejoin="round"/>
<path d="M154.708 79.1098C154.708 79.1098 158.817 78.8813 158.783 79.7765C158.488 81.8817 158.061 83.9665 157.507 86.0189C157.317 86.3713 153.908 85.6475 153.908 85.6475L154.708 79.1098Z" fill="white" stroke="#263238" stroke-width="0.621622" stroke-linecap="round" stroke-linejoin="round"/>
<path d="M158.626 80.9715C158.626 80.9715 155.293 80.4048 154.479 80.5477" stroke="#263238" stroke-width="0.621622" stroke-linecap="round" stroke-linejoin="round"/>
<path d="M158.288 82.8524C156.977 82.6331 155.654 82.4869 154.327 82.4143L158.288 82.8524Z" fill="white"/>
<path d="M158.288 82.8524C156.977 82.6331 155.654 82.4869 154.327 82.4143" stroke="#263238" stroke-width="0.621622" stroke-linecap="round" stroke-linejoin="round"/>
<path d="M157.908 84.6855C157.908 84.6855 154.427 84.095 154.098 84.1236L157.908 84.6855Z" fill="white"/>
<path d="M157.908 84.6855C157.908 84.6855 154.427 84.095 154.098 84.1236" stroke="#263238" stroke-width="0.621622" stroke-linecap="round" stroke-linejoin="round"/>
<path d="M147.708 80.8L150.87 77.1906L155.451 78.6191C155.451 78.6191 154.87 85.1378 154.546 85.2854C154.222 85.433 153.255 84.4997 153.089 83.8569C152.922 83.2141 152.713 81.9904 152.713 81.9904C152.713 81.9904 151.032 83.2474 150.041 83.4188" fill="white"/>
<path d="M147.708 80.8L150.87 77.1906L155.451 78.6191C155.451 78.6191 154.87 85.1378 154.546 85.2854C154.222 85.433 153.255 84.4997 153.089 83.8569C152.922 83.2141 152.713 81.9904 152.713 81.9904C152.713 81.9904 151.032 83.2474 150.041 83.4188" stroke="#263238" stroke-width="0.621622" stroke-linecap="round" stroke-linejoin="round"/>
<path d="M20.7914 221.863H226.184" stroke="#263238" stroke-width="0.621622" stroke-linecap="round" stroke-linejoin="round"/>
</svg>
