<svg width="205" height="176" viewBox="0 0 205 176" fill="none" xmlns="http://www.w3.org/2000/svg">
<path d="M70.669 157.483C82.8199 159.057 95.0766 159.301 107.304 159.779C112.911 159.998 118.407 159.743 123.582 161.761C128.426 163.651 132.294 167.439 137.293 169.066C141.174 170.328 145.36 170.287 149.414 169.828C166.56 167.887 182.708 158.338 192.684 144.238C201.821 131.325 205.645 114.795 203.266 99.1628C201.823 89.6812 197.474 80.8366 196.436 71.2833C195.34 61.1838 199.198 52.3825 201.639 42.7808C203.341 36.0852 204.088 29.1471 203.849 22.2426C203.712 18.2649 203.216 14.1866 201.34 10.678C196.242 1.1468 183.372 -0.660547 172.627 0.405329C159.328 1.72403 146.058 5.82276 134.354 12.2833C125.112 17.3845 115.957 24.8129 105.354 26.8207C93.3983 29.0842 84.158 20.8735 73.4024 17.1235C49.2024 8.6858 19.9645 25.2023 9.27662 47.191C-3.91742 74.336 -2.4514 118.759 22.1908 138.93C35.62 149.923 52.9312 155.127 70.1249 157.411C70.3062 157.435 70.4876 157.459 70.669 157.483Z" fill="#EEF3FE"/>
<g clip-path="url(#clip0_124_8121)">
<path d="M33.8025 176H181.955C182.03 176 182.102 175.97 182.155 175.917C182.209 175.864 182.238 175.792 182.238 175.716C182.238 175.641 182.209 175.569 182.155 175.516C182.102 175.463 182.03 175.433 181.955 175.433H33.8025C33.7274 175.433 33.6554 175.463 33.6023 175.516C33.5492 175.569 33.5194 175.641 33.5194 175.716C33.5194 175.792 33.5492 175.864 33.6023 175.917C33.6554 175.97 33.7274 176 33.8025 176Z" fill="#CCCCCC"/>
<path d="M62.267 107.304C53.6024 98.7611 49.943 89.8484 51.9623 82.2082C54.5538 72.4037 66.0666 65.6246 83.5487 63.6094L83.6132 64.1718C66.3746 66.1589 55.0374 72.7857 52.5087 82.353C50.5434 89.7884 54.1497 98.5064 62.6635 106.901L62.267 107.304Z" fill="#90AAD4"/>
<path d="M145.865 137.63C135.051 137.63 123.3 136.02 111.628 132.925C97.1934 129.098 83.9587 123.321 73.3544 116.219L73.6684 115.748C84.2216 122.816 97.3977 128.567 111.772 132.378C124.762 135.823 137.85 137.419 149.615 136.998L149.635 137.563C148.393 137.608 147.136 137.63 145.865 137.63Z" fill="#F0F0F0"/>
<path d="M170.673 134.071L170.492 133.535C180.164 130.259 186.213 124.983 187.986 118.276C190.239 109.75 185.344 99.8565 174.2 90.4171C163 80.9298 146.849 73.0578 128.722 68.2514L128.867 67.7042C147.073 72.5317 163.302 80.4446 174.565 89.985C185.884 99.5733 190.845 109.672 188.532 118.421C186.709 125.321 180.533 130.732 170.673 134.071Z" fill="#90AAD4"/>
<path d="M81.8662 137.867C60.6176 128.428 44.244 116.182 35.7617 103.384L36.2324 103.071C44.6561 115.78 60.9438 127.953 82.0952 137.349L81.8662 137.867Z" fill="#90AAD4"/>
<path d="M156.574 154.219C154.383 154.219 152.154 154.17 149.887 154.072L149.911 153.506C166.826 154.24 181.75 152.212 193.073 147.642L193.284 148.167C183.407 152.154 170.818 154.219 156.574 154.219Z" fill="#F0F0F0"/>
<path d="M144.246 64.1169C140.734 62.9717 137.121 61.9053 133.509 60.9474C112.721 55.4353 92.2858 53.4782 74.4123 55.2888L74.3555 54.7256C92.2956 52.909 112.801 54.8708 133.654 60.4002C137.276 61.3609 140.899 62.4303 144.421 63.5788L144.246 64.1169Z" fill="#90AAD4"/>
<path d="M48.9871 108.153C40.3225 99.61 36.663 90.6973 38.6824 83.0571C41.2739 73.2526 52.7867 66.4736 70.2687 64.4583L70.3333 65.0207C53.0946 67.0078 41.7575 73.6347 39.2288 83.2019C37.2635 90.6373 40.8698 99.3553 49.3836 107.75L48.9871 108.153Z" fill="#90AAD4"/>
<path d="M132.585 138.479C121.771 138.479 110.02 136.869 98.3479 133.774C83.9136 129.947 70.6789 124.17 60.0746 117.068L60.3886 116.597C70.9418 123.665 84.1179 129.416 98.4925 133.227C111.483 136.672 124.57 138.268 136.335 137.847L136.356 138.412C135.113 138.457 133.856 138.479 132.585 138.479Z" fill="#90AAD4"/>
<path d="M157.393 134.92L157.212 134.384C166.884 131.108 172.933 125.832 174.706 119.126C176.959 110.599 172.064 100.706 160.92 91.2662C149.72 81.7789 133.569 73.9069 115.442 69.1004L115.587 68.5532C133.793 73.3808 150.023 81.2936 161.285 90.8341C172.605 100.422 177.565 110.521 175.252 119.27C173.429 126.17 167.253 131.581 157.393 134.92Z" fill="#90AAD4"/>
<path d="M68.5863 138.716C47.3377 129.277 30.9641 117.031 22.4818 104.233L22.9525 103.92C31.3762 116.629 47.6639 128.802 68.8153 138.198L68.5863 138.716Z" fill="#90AAD4"/>
<path d="M143.295 155.068C141.103 155.068 138.874 155.019 136.607 154.921L136.632 154.355C153.546 155.089 168.47 153.062 179.793 148.491L180.005 149.016C170.127 153.003 157.538 155.068 143.295 155.068Z" fill="#F0F0F0"/>
<path d="M130.966 64.9659C127.454 63.8207 123.842 62.7543 120.229 61.7964C99.441 56.2843 79.006 54.3272 61.1325 56.1378L61.0757 55.5746C79.0158 53.758 99.5207 55.7198 120.374 61.2492C123.996 62.2099 127.619 63.2793 131.141 64.4278L130.966 64.9659Z" fill="#90AAD4"/>
<path d="M169.111 134.849C169.037 135.179 168.883 135.486 168.662 135.742C168.441 135.998 168.159 136.195 167.843 136.315C167.681 136.376 167.797 136.619 167.958 136.558C168.307 136.424 168.617 136.206 168.862 135.924C169.107 135.642 169.279 135.304 169.364 134.94C169.375 134.906 169.372 134.869 169.357 134.837C169.342 134.805 169.315 134.78 169.283 134.767C169.249 134.755 169.212 134.757 169.18 134.773C169.148 134.788 169.123 134.815 169.111 134.849V134.849Z" fill="white"/>
<path d="M70.4373 86.8576C71.6857 86.8576 72.6977 85.844 72.6977 84.5936C72.6977 83.3432 71.6857 82.3296 70.4373 82.3296C69.1889 82.3296 68.1769 83.3432 68.1769 84.5936C68.1769 85.844 69.1889 86.8576 70.4373 86.8576Z" fill="#FD6584"/>
<path d="M156.959 109.194C157.159 107.96 156.322 106.797 155.09 106.597C153.858 106.397 152.697 107.235 152.497 108.469C152.297 109.703 153.133 110.866 154.366 111.066C155.598 111.267 156.759 110.429 156.959 109.194Z" fill="#E6E6E6"/>
<path d="M70.3454 61.3798C71.5937 61.3798 72.6058 60.3661 72.6058 59.1157C72.6058 57.8654 71.5937 56.8517 70.3454 56.8517C69.097 56.8517 68.085 57.8654 68.085 59.1157C68.085 60.3661 69.097 61.3798 70.3454 61.3798Z" fill="#E6E6E6"/>
<path d="M137.791 85.7571H137.146V68.0542C137.146 65.3368 136.068 62.7307 134.15 60.8092C132.231 58.8877 129.629 57.8082 126.916 57.8082H89.4698C88.1264 57.8082 86.7962 58.0732 85.5551 58.5881C84.3139 59.103 83.1862 59.8578 82.2363 60.8092C81.2864 61.7606 80.5329 62.8901 80.0188 64.1332C79.5047 65.3763 79.2401 66.7086 79.2401 68.0542V165.174C79.2401 167.891 80.3179 170.497 82.2363 172.419C84.1547 174.34 86.7567 175.42 89.4698 175.42H126.916C129.629 175.42 132.231 174.34 134.15 172.419C136.068 170.497 137.146 167.891 137.146 165.174V98.3584H137.791V85.7571Z" fill="#3F3D56"/>
<path d="M134.968 68.1253V165.103C134.968 166.107 134.771 167.102 134.387 168.03C134.003 168.958 133.441 169.802 132.731 170.512C132.022 171.223 131.18 171.786 130.254 172.171C129.327 172.556 128.334 172.754 127.331 172.754H89.7018C87.6759 172.754 85.733 171.948 84.3005 170.513C82.8679 169.078 82.0631 167.133 82.063 165.104V68.1253C82.0629 67.1206 82.2604 66.1258 82.6443 65.1975C83.0281 64.2693 83.5907 63.4259 84.2999 62.7154C85.0092 62.005 85.8512 61.4414 86.7779 61.0568C87.7046 60.6723 88.6979 60.4744 89.701 60.4743H94.2683C94.0434 61.0262 93.9575 61.6251 94.0182 62.2181C94.0788 62.8111 94.2842 63.3801 94.6161 63.8749C94.948 64.3697 95.3963 64.7751 95.9216 65.0555C96.4468 65.3358 97.0328 65.4825 97.628 65.4825H119.081C119.676 65.4821 120.262 65.3352 120.787 65.0547C121.312 64.7743 121.76 64.3689 122.092 63.8742C122.424 63.3795 122.63 62.8107 122.69 62.2178C122.751 61.625 122.666 61.0262 122.441 60.4743H127.329C128.332 60.4743 129.325 60.6721 130.252 61.0565C131.179 61.441 132.021 62.0045 132.73 62.7149C133.44 63.4252 134.002 64.2686 134.386 65.1968C134.77 66.125 134.968 67.1198 134.968 68.1245L134.968 68.1253Z" fill="#F2F2F2"/>
<path d="M96.5871 69.7316H84.9142V70.2549H96.5871V69.7316Z" fill="white"/>
<path d="M114.352 69.7316H102.679V70.2549H114.352V69.7316Z" fill="white"/>
<path d="M126.815 132.393H88.7642C88.636 132.393 88.5091 132.368 88.3906 132.318C88.2722 132.269 88.1646 132.197 88.0739 132.106C87.9833 132.016 87.9113 131.908 87.8623 131.789C87.8132 131.671 87.788 131.543 87.788 131.415C87.788 131.287 87.8132 131.159 87.8623 131.041C87.9113 130.922 87.9833 130.814 88.0739 130.724C88.1646 130.633 88.2722 130.561 88.3906 130.512C88.5091 130.462 88.636 130.437 88.7642 130.437H126.815C126.943 130.437 127.07 130.462 127.189 130.512C127.307 130.561 127.415 130.633 127.505 130.724C127.596 130.814 127.668 130.922 127.717 131.041C127.766 131.159 127.791 131.287 127.791 131.415C127.791 131.543 127.766 131.671 127.717 131.789C127.668 131.908 127.596 132.016 127.505 132.106C127.415 132.197 127.307 132.269 127.189 132.318C127.07 132.368 126.943 132.393 126.815 132.393Z" fill="#CCCCCC"/>
<path d="M126.815 139.196H88.7642C88.5053 139.196 88.257 139.093 88.0739 138.91C87.8908 138.726 87.788 138.478 87.788 138.218C87.788 137.959 87.8908 137.71 88.0739 137.527C88.257 137.343 88.5053 137.24 88.7642 137.24H126.815C127.074 137.24 127.322 137.343 127.505 137.527C127.689 137.71 127.791 137.959 127.791 138.218C127.791 138.478 127.689 138.726 127.505 138.91C127.322 139.093 127.074 139.196 126.815 139.196Z" fill="#CCCCCC"/>
<path d="M126.815 145.999H88.7642C88.5053 145.999 88.257 145.896 88.0739 145.713C87.8908 145.53 87.788 145.281 87.788 145.022C87.788 144.762 87.8908 144.513 88.0739 144.33C88.257 144.147 88.5053 144.044 88.7642 144.044H126.815C127.074 144.044 127.322 144.147 127.505 144.33C127.689 144.513 127.791 144.762 127.791 145.022C127.791 145.281 127.689 145.53 127.505 145.713C127.322 145.896 127.074 145.999 126.815 145.999Z" fill="#CCCCCC"/>
<path d="M132.117 69.7316H120.444V70.2549H132.117V69.7316Z" fill="white"/>
<path d="M96.5871 163.668H84.9142V164.192H96.5871V163.668Z" fill="white"/>
<path d="M114.352 163.668H102.679V164.192H114.352V163.668Z" fill="white"/>
<path d="M132.117 163.668H120.444V164.192H132.117V163.668Z" fill="white"/>
<path d="M108.515 118.997C118.287 118.997 126.209 111.063 126.209 101.275C126.209 91.4877 118.287 83.5532 108.515 83.5532C98.7434 83.5532 90.8215 91.4877 90.8215 101.275C90.8215 111.063 98.7434 118.997 108.515 118.997Z" fill="#D1D3D4"/>
<path d="M108.515 118.229C117.43 118.229 124.657 110.99 124.657 102.061C124.657 93.1314 117.43 85.8928 108.515 85.8928C99.6003 85.8928 92.3732 93.1314 92.3732 102.061C92.3732 110.99 99.6003 118.229 108.515 118.229Z" fill="#0D47A1"/>
<path d="M107.106 108.398C107.071 108.398 107.036 108.397 107.001 108.395C106.691 108.38 106.389 108.298 106.113 108.155C105.838 108.012 105.598 107.811 105.407 107.566L102.863 104.29C102.513 103.838 102.357 103.266 102.427 102.699C102.498 102.132 102.79 101.617 103.24 101.265L103.332 101.194C103.782 100.844 104.353 100.687 104.92 100.757C105.486 100.828 106.001 101.121 106.352 101.571C106.466 101.719 106.611 101.839 106.776 101.925C106.941 102.011 107.123 102.06 107.309 102.07C107.495 102.08 107.681 102.05 107.854 101.981C108.027 101.911 108.182 101.804 108.309 101.667L113.475 96.2058C113.868 95.7915 114.409 95.5502 114.979 95.5347C115.549 95.5193 116.102 95.731 116.517 96.1234L116.601 96.2029C117.015 96.5963 117.256 97.138 117.271 97.7093C117.287 98.2805 117.075 98.8346 116.684 99.25L108.668 107.725C108.467 107.937 108.225 108.107 107.956 108.222C107.688 108.338 107.398 108.398 107.106 108.398Z" fill="white"/>
<path d="M80.2445 76.4729H78.1545V87.7244H80.2445V76.4729Z" fill="#3F3D56"/>
<path d="M80.2445 89.0327H78.1545V95.5743H80.2445V89.0327Z" fill="#3F3D56"/>
<path d="M80.2445 96.8826H78.1545V103.424H80.2445V96.8826Z" fill="#3F3D56"/>
<path d="M98.2706 63.1281C98.8477 63.1281 99.3156 62.6595 99.3156 62.0814C99.3156 61.5034 98.8477 61.0348 98.2706 61.0348C97.6934 61.0348 97.2256 61.5034 97.2256 62.0814C97.2256 62.6595 97.6934 63.1281 98.2706 63.1281Z" fill="white"/>
<path opacity="0.16" d="M108.515 115.989C104.432 115.988 100.5 114.437 97.5124 111.648C94.5251 108.859 92.7045 105.039 92.4175 100.959C92.3914 101.335 92.3733 101.714 92.3733 102.097C92.3733 106.385 94.074 110.497 97.1012 113.53C100.128 116.562 104.234 118.265 108.515 118.265C112.797 118.265 116.902 116.562 119.93 113.53C122.957 110.497 124.658 106.385 124.658 102.097C124.658 101.714 124.639 101.335 124.613 100.959C124.326 105.039 122.506 108.859 119.518 111.648C116.531 114.437 112.599 115.988 108.515 115.989Z" fill="#231F20"/>
<path d="M131.273 115.107L144.074 115.63L145.642 106.995L134.669 103.594L131.273 115.107Z" fill="#FFB8B8"/>
<path d="M136.111 96.4047L136.235 92.3253L130.031 90.7674L118.861 87.5035C118.713 87.0543 118.433 86.6607 118.057 86.3747C117.681 86.0887 117.227 85.9237 116.755 85.9017C116.284 85.8797 115.816 86.0016 115.415 86.2513C115.014 86.501 114.699 86.8668 114.51 87.3002C114.321 87.7336 114.268 88.2143 114.357 88.6786C114.447 89.1429 114.675 89.569 115.012 89.9005C115.349 90.232 115.778 90.4533 116.243 90.5351C116.708 90.6168 117.187 90.5553 117.617 90.3586L128.476 94.8294L136.111 96.4047Z" fill="#FFB8B8"/>
<path d="M132.114 96.3761L135.604 91.3903L135.691 91.4019C135.745 91.4092 141.219 92.1426 144.807 93.2128C145.21 93.3198 145.585 93.5136 145.906 93.7808C146.227 94.0479 146.485 94.3819 146.664 94.7595C146.92 95.2871 147.017 95.8783 146.943 96.4604C146.869 97.0425 146.626 97.5902 146.246 98.0362C145.858 98.5184 145.34 98.8786 144.754 99.0738C144.167 99.269 143.537 99.2909 142.939 99.1369L132.114 96.3761Z" fill="#0D47A1"/>
<path d="M134.324 171.964L130.774 171.964L129.085 158.249L134.325 158.249L134.324 171.964Z" fill="#FFB8B8"/>
<path d="M161.966 170.425L158.456 170.956L154.739 157.648L159.341 156.864L161.966 170.425Z" fill="#FFB8B8"/>
<path d="M144.597 113.014L132.318 110.92L131.881 111.822C129.531 116.679 128.144 121.947 127.795 127.333C127.499 131.88 127.325 136.683 127.319 141.717C127.31 149.517 127.707 156.755 128.336 163.34L135.074 163.298C134.88 156.306 135.145 149.309 135.868 142.351C136.384 137.39 137.101 132.756 137.93 128.48C139.468 134.758 141.64 140.862 144.41 146.7C146.765 151.688 151.609 157.454 153.964 162.442C156.377 162.152 158.79 161.862 161.203 161.572C159.302 156.535 155.909 149.179 154.007 144.142C151.288 136.94 150.06 132.057 147.341 124.855C147.496 123.501 147.526 122.135 147.432 120.776C147.305 118.51 146.834 115.791 145.459 113.978L144.597 113.014Z" fill="#2F2E41"/>
<path d="M146.493 109.259C147.107 110.407 145.65 112.786 144.597 113.014L132.454 109.082L138.568 91.338L141.644 91.8979L146.564 92.7281L148.309 94.3168C148.748 94.7172 149.062 95.2369 149.212 95.8127C149.362 96.3884 149.343 96.9955 149.155 97.5601L146.493 109.259Z" fill="#0D47A1"/>
<path d="M138.135 102.402L134.7 100.206L130.187 104.746L121.668 112.684C121.207 112.581 120.726 112.621 120.288 112.798C119.85 112.975 119.476 113.281 119.216 113.676C118.955 114.07 118.821 114.534 118.83 115.007C118.838 115.48 118.99 115.939 119.265 116.324C119.54 116.708 119.925 117 120.369 117.161C120.813 117.321 121.296 117.343 121.752 117.223C122.209 117.103 122.619 116.847 122.927 116.489C123.235 116.13 123.428 115.687 123.479 115.217L132.874 108.164L138.135 102.402Z" fill="#FFB8B8"/>
<path d="M136.063 105.826L133.575 100.271L133.629 100.202C133.664 100.159 137.095 95.8254 139.85 93.2866C140.149 92.9945 140.507 92.7711 140.9 92.6319C141.294 92.4927 141.713 92.4411 142.128 92.4808C142.712 92.5306 143.268 92.7499 143.729 93.1119C144.19 93.4739 144.536 93.9628 144.724 94.5187C144.939 95.0989 144.982 95.7289 144.85 96.3334C144.717 96.9378 144.413 97.4911 143.974 97.9272L136.063 105.826Z" fill="#0D47A1"/>
<path d="M143.803 90.1522C146.786 90.1522 149.203 87.7306 149.203 84.7434C149.203 81.7562 146.786 79.3346 143.803 79.3346C140.821 79.3346 138.403 81.7562 138.403 84.7434C138.403 87.7306 140.821 90.1522 143.803 90.1522Z" fill="#FFB8B8"/>
<path d="M148.164 92.581L148.144 92.5757L140.296 90.6098C140.024 90.5417 139.772 90.4107 139.56 90.2273C139.348 90.044 139.181 89.8133 139.074 89.5539C138.967 89.2945 138.922 89.0135 138.943 88.7336C138.963 88.4536 139.049 88.1824 139.194 87.9417L139.453 87.5097C139.706 87.0879 139.85 86.6093 139.871 86.1176C139.892 85.6259 139.789 85.1368 139.573 84.6948C139.202 83.973 138.562 83.4259 137.792 83.1711L137.766 83.1586L137.601 83.0558C137.439 82.9793 137.295 82.8696 137.178 82.734C137.061 82.5983 136.973 82.4396 136.921 82.268C136.866 82.0903 136.85 81.903 136.872 81.7185C136.894 81.5339 136.955 81.356 137.051 81.1965C137.743 80.0358 138.78 79.1203 140.017 78.5774C141.579 77.9038 143.338 77.8509 144.938 78.4293C145.045 78.3313 145.174 78.2612 145.314 78.2255C145.455 78.1898 145.601 78.1896 145.742 78.2248C149.806 79.2106 150.14 81.9429 149.338 86.3288L150.288 90.1677C150.355 90.4388 150.363 90.7213 150.31 90.9955C150.257 91.2697 150.145 91.5291 149.982 91.7557C149.819 91.9823 149.609 92.1706 149.366 92.3075C149.123 92.4444 148.853 92.5267 148.575 92.5486L148.164 92.581ZM144.895 78.4725L144.894 78.473L144.895 78.4725ZM144.993 78.4485L144.994 78.4488L144.993 78.4485Z" fill="#2F2E41"/>
<path d="M135.189 175.519H133.163L132.802 173.603L131.875 175.519H126.501C126.244 175.519 125.993 175.437 125.786 175.284C125.578 175.131 125.425 174.916 125.348 174.669C125.272 174.423 125.275 174.159 125.359 173.915C125.443 173.671 125.603 173.46 125.815 173.314L130.106 170.345V168.408L134.62 168.678L135.189 175.519Z" fill="#2F2E41"/>
<path d="M162.532 175.519H160.505L160.144 173.603L159.218 175.519H153.844C153.586 175.519 153.335 175.437 153.128 175.284C152.92 175.131 152.767 174.916 152.69 174.669C152.614 174.423 152.618 174.159 152.702 173.915C152.786 173.671 152.945 173.46 153.157 173.314L157.449 170.345V168.408L161.962 168.678L162.532 175.519Z" fill="#2F2E41"/>
</g>
<defs>
<clipPath id="clip0_124_8121">
<rect width="170.803" height="121.932" fill="white" transform="translate(22.4818 54.0676)"/>
</clipPath>
</defs>
</svg>
