<svg width="260" height="173" viewBox="0 0 260 173" fill="none" xmlns="http://www.w3.org/2000/svg">
<path d="M75.9914 120.788C75.9914 120.181 75.4985 119.693 74.8864 119.688C71.0407 119.683 58.2744 119.674 54.4287 119.669C54.1362 119.668 53.8553 119.783 53.6473 119.988C53.4393 120.193 53.3213 120.472 53.3191 120.764C53.3191 122.438 53.3142 125.614 53.3142 127.287C53.3142 127.894 53.8067 128.382 54.4192 128.387C58.2648 128.392 71.0311 128.401 74.8768 128.406C75.489 128.406 75.9864 127.918 75.9864 127.311C75.9864 125.638 75.9864 122.461 75.9914 120.788ZM75.6759 138.32C75.6759 137.713 75.1833 137.224 74.5709 137.22C70.7252 137.215 57.9589 137.206 54.1132 137.201C53.5011 137.201 53.0082 137.689 53.0082 138.296C53.0082 139.969 53.0036 143.145 53.0036 144.819C53.0036 145.426 53.4962 145.914 54.1083 145.919C57.954 145.923 70.7206 145.933 74.5663 145.938C74.8587 145.939 75.1397 145.824 75.3477 145.619C75.5557 145.414 75.6737 145.134 75.6759 144.843C75.671 143.169 75.6759 139.993 75.6759 138.32V138.32Z" stroke="#E1E4E5" stroke-width="4" stroke-miterlimit="10" stroke-linecap="round" stroke-linejoin="round"/>
<path d="M86.4714 129.615C86.4714 129.008 85.9785 128.52 85.3664 128.515C81.5207 128.51 68.7544 128.501 64.9087 128.496C64.2963 128.496 63.7988 128.984 63.7988 129.591C63.7988 131.265 63.7942 134.441 63.7942 136.114C63.7942 136.721 64.2868 137.209 64.8992 137.214C68.7449 137.219 81.5112 137.228 85.3569 137.233C85.969 137.233 86.4665 136.745 86.4665 136.138C86.4665 134.46 86.4714 131.288 86.4714 129.615ZM86.3232 147.165C86.3232 146.558 85.8306 146.07 85.2182 146.065C81.3725 146.06 68.6062 146.051 64.7605 146.046C64.4681 146.045 64.1871 146.159 63.9791 146.365C63.7711 146.57 63.6531 146.849 63.6509 147.141C63.6509 148.814 63.646 151.991 63.646 153.664C63.646 154.271 64.1388 154.759 64.751 154.764C68.5967 154.768 81.363 154.778 85.2087 154.783C85.3534 154.783 85.4968 154.756 85.6308 154.701C85.7647 154.646 85.8865 154.566 85.9892 154.464C86.0919 154.362 86.1734 154.241 86.2291 154.108C86.2848 153.975 86.3135 153.832 86.3137 153.687C86.3232 152.009 86.3232 148.838 86.3232 147.165V147.165ZM121.432 120.83C121.432 120.223 120.939 119.735 120.327 119.73C116.481 119.726 103.715 119.716 99.8689 119.711C99.5764 119.71 99.2955 119.825 99.0875 120.03C98.8795 120.235 98.7615 120.514 98.7593 120.806C98.7593 122.48 98.7544 125.656 98.7544 127.329C98.7544 127.936 99.2472 128.424 99.8594 128.429C103.705 128.434 116.471 128.443 120.317 128.448C120.929 128.448 121.422 127.96 121.422 127.353C121.432 125.675 121.432 122.503 121.432 120.83ZM121.121 138.363C121.121 137.756 120.628 137.267 120.016 137.263C116.166 137.258 103.404 137.248 99.5584 137.244C98.9462 137.244 98.4487 137.732 98.4487 138.339C98.4487 140.012 98.4438 143.188 98.4438 144.862C98.4438 145.468 98.9367 145.957 99.5488 145.961C103.395 145.966 116.156 145.976 120.006 145.98C120.151 145.981 120.295 145.953 120.429 145.899C120.563 145.844 120.684 145.764 120.787 145.662C120.89 145.56 120.971 145.439 121.027 145.306C121.083 145.173 121.111 145.03 121.111 144.885C121.116 143.207 121.121 140.036 121.121 138.363V138.363Z" stroke="#E1E4E5" stroke-width="4" stroke-miterlimit="10" stroke-linecap="round" stroke-linejoin="round"/>
<path d="M131.916 129.535C131.916 128.928 131.424 128.44 130.811 128.435C126.965 128.43 114.199 128.42 110.354 128.416C110.061 128.415 109.78 128.529 109.572 128.735C109.364 128.94 109.246 129.219 109.244 129.511C109.244 131.184 109.239 134.36 109.239 136.034C109.239 136.641 109.732 137.129 110.344 137.134C114.19 137.139 126.956 137.148 130.802 137.153C130.946 137.154 131.09 137.126 131.224 137.071C131.358 137.017 131.479 136.936 131.582 136.834C131.685 136.733 131.766 136.612 131.822 136.478C131.878 136.345 131.906 136.202 131.907 136.058C131.916 134.379 131.916 131.208 131.916 129.535ZM131.768 147.084C131.768 146.477 131.275 145.989 130.663 145.984C126.817 145.979 114.056 145.97 110.205 145.965C110.061 145.964 109.917 145.992 109.783 146.046C109.649 146.101 109.528 146.181 109.425 146.283C109.322 146.385 109.241 146.506 109.185 146.639C109.129 146.772 109.1 146.915 109.1 147.06C109.1 148.733 109.095 151.91 109.095 153.583C109.095 154.19 109.588 154.678 110.2 154.682C114.046 154.687 126.812 154.697 130.658 154.701C130.803 154.702 130.946 154.675 131.08 154.62C131.214 154.565 131.336 154.485 131.439 154.383C131.541 154.281 131.623 154.16 131.678 154.027C131.734 153.894 131.763 153.751 131.763 153.606C131.768 151.928 131.768 148.757 131.768 147.084V147.084ZM98.7113 120.807C98.7111 120.663 98.6823 120.52 98.6267 120.387C98.571 120.253 98.4895 120.132 98.3868 120.031C98.2842 119.929 98.1624 119.848 98.0285 119.794C97.8946 119.739 97.7512 119.711 97.6066 119.712C93.7609 119.707 80.9943 119.698 77.1486 119.693C77.0039 119.692 76.8605 119.72 76.7266 119.775C76.5927 119.829 76.4709 119.91 76.3683 120.012C76.2656 120.113 76.1841 120.234 76.1284 120.368C76.0728 120.501 76.0441 120.644 76.0439 120.788C76.0439 122.462 76.039 125.638 76.039 127.311C76.039 127.918 76.5318 128.406 77.144 128.411C80.9897 128.416 93.756 128.425 97.6017 128.43C98.2138 128.43 98.7067 127.942 98.7067 127.335C98.7067 125.657 98.7067 122.485 98.7113 120.807ZM98.4004 138.338C98.4004 137.731 97.9079 137.243 97.2957 137.238C93.45 137.233 80.6835 137.224 76.8378 137.219C76.6931 137.218 76.5497 137.246 76.4158 137.3C76.2819 137.355 76.1602 137.436 76.0575 137.537C75.9549 137.639 75.8734 137.76 75.8177 137.893C75.762 138.026 75.7333 138.169 75.7331 138.314C75.7331 139.987 75.7281 143.164 75.7281 144.837C75.7281 145.444 76.221 145.932 76.8332 145.937C80.6788 145.941 93.4451 145.951 97.2908 145.955C97.903 145.955 98.3958 145.467 98.3958 144.861C98.3958 143.187 98.3958 140.016 98.4004 138.338Z" stroke="#E1E4E5" stroke-width="4" stroke-miterlimit="10" stroke-linecap="round" stroke-linejoin="round"/>
<path d="M109.192 129.497C109.192 128.89 108.699 128.402 108.087 128.397C104.241 128.393 91.4746 128.383 87.6289 128.378C87.3365 128.377 87.0555 128.492 86.8475 128.697C86.6395 128.902 86.5215 129.182 86.5193 129.473C86.5193 131.147 86.5144 134.323 86.5144 135.996C86.5144 136.603 87.0072 137.091 87.6194 137.096C91.4651 137.101 104.231 137.11 108.077 137.115C108.222 137.116 108.365 137.088 108.499 137.034C108.633 136.979 108.755 136.899 108.858 136.797C108.96 136.695 109.042 136.574 109.097 136.441C109.153 136.307 109.182 136.165 109.182 136.02C109.192 134.342 109.192 131.171 109.192 129.497ZM109.048 147.045C109.048 146.438 108.556 145.95 107.943 145.946C104.098 145.941 91.3313 145.931 87.4856 145.927C87.1932 145.926 86.9122 146.04 86.7042 146.245C86.4962 146.451 86.3782 146.73 86.376 147.022C86.376 148.695 86.3711 151.871 86.3711 153.544C86.3711 154.151 86.8639 154.64 87.4761 154.644C91.3218 154.649 104.088 154.659 107.934 154.663C108.546 154.663 109.039 154.175 109.039 153.568C109.043 151.89 109.043 148.719 109.048 147.045V147.045ZM144.152 120.851C144.152 120.706 144.123 120.563 144.067 120.43C144.011 120.297 143.93 120.176 143.827 120.074C143.725 119.972 143.603 119.892 143.469 119.837C143.335 119.783 143.192 119.755 143.047 119.756C139.201 119.751 126.435 119.741 122.589 119.737C122.445 119.736 122.301 119.764 122.167 119.818C122.033 119.873 121.912 119.953 121.809 120.055C121.706 120.157 121.625 120.278 121.569 120.411C121.513 120.544 121.485 120.687 121.484 120.832C121.484 122.505 121.475 125.681 121.475 127.355C121.475 127.961 121.967 128.45 122.58 128.455C126.425 128.459 139.192 128.469 143.038 128.474C143.182 128.474 143.326 128.447 143.46 128.392C143.593 128.337 143.715 128.257 143.818 128.155C143.921 128.053 144.002 127.932 144.058 127.799C144.113 127.666 144.142 127.523 144.142 127.378C144.152 125.7 144.152 122.524 144.152 120.851ZM143.841 138.38C143.841 137.774 143.349 137.285 142.737 137.281C138.891 137.276 126.125 137.266 122.279 137.262C121.667 137.262 121.174 137.75 121.174 138.357C121.164 140.03 121.164 143.206 121.164 144.88C121.164 145.486 121.657 145.975 122.269 145.979C126.115 145.984 138.876 145.994 142.727 145.998C143.339 145.998 143.832 145.51 143.832 144.903C143.837 143.23 143.841 140.054 143.841 138.38ZM76.1635 85.7988C76.1635 85.1921 75.6707 84.7037 75.0585 84.6991C71.2128 84.6942 58.4465 84.6847 54.6008 84.68C54.3083 84.6789 54.0273 84.7935 53.8192 84.9987C53.6112 85.204 53.4931 85.4832 53.4909 85.7751C53.4909 87.4486 53.4863 90.6246 53.4863 92.2981C53.4865 92.4425 53.5153 92.5855 53.571 92.7187C53.6267 92.852 53.7082 92.973 53.8108 93.0748C53.9135 93.1765 54.0353 93.257 54.1693 93.3117C54.3032 93.3663 54.4466 93.394 54.5913 93.3932C58.437 93.3978 71.2033 93.4073 75.049 93.4119C75.6611 93.4119 76.154 92.9238 76.154 92.3168C76.1586 90.6436 76.1635 87.4723 76.1635 85.7988ZM75.8524 103.329C75.8522 103.184 75.8235 103.041 75.7678 102.908C75.7121 102.775 75.6306 102.654 75.5279 102.552C75.4252 102.45 75.3034 102.37 75.1695 102.315C75.0355 102.261 74.8921 102.233 74.7474 102.234C70.9017 102.229 58.1354 102.219 54.2897 102.215C53.6775 102.215 53.1801 102.703 53.1801 103.31C53.1801 104.983 53.1752 108.159 53.1752 109.833C53.1752 110.439 53.668 110.928 54.2802 110.933C58.1259 110.937 70.8922 110.947 74.7378 110.952C75.0303 110.953 75.3114 110.838 75.5194 110.633C75.7274 110.428 75.8455 110.148 75.8477 109.856C75.8477 108.173 75.8524 105.002 75.8524 103.329ZM86.6484 94.6206C86.6484 94.0137 86.1556 93.5255 85.5434 93.5206C81.6977 93.516 68.9315 93.5065 65.0858 93.5019C64.7932 93.5007 64.5122 93.6153 64.3042 93.8206C64.0961 94.0259 63.9781 94.305 63.9759 94.597C63.9759 96.2702 63.9712 99.4465 63.9712 101.12C63.9714 101.264 64.0001 101.407 64.0558 101.54C64.1114 101.674 64.1929 101.795 64.2956 101.896C64.3982 101.998 64.52 102.079 64.6539 102.133C64.7879 102.188 64.9313 102.216 65.076 102.215C68.9216 102.22 81.6882 102.229 85.5339 102.234C85.6786 102.235 85.822 102.207 85.9559 102.152C86.0898 102.098 86.2116 102.017 86.3143 101.915C86.4169 101.814 86.4984 101.693 86.5541 101.559C86.6097 101.426 86.6385 101.283 86.6386 101.139C86.6435 99.4701 86.6484 96.2938 86.6484 94.6206V94.6206ZM86.5002 112.169C86.5002 111.563 86.0074 111.074 85.3952 111.074C81.5495 111.069 68.7833 111.06 64.9376 111.055C64.7929 111.054 64.6494 111.082 64.5155 111.137C64.3815 111.191 64.2597 111.272 64.157 111.374C64.0543 111.475 63.9728 111.596 63.9171 111.73C63.8615 111.863 63.8327 112.006 63.8326 112.15C63.8326 113.824 63.8277 117 63.8277 118.673C63.8277 119.28 64.3205 119.768 64.9327 119.768C68.7783 119.773 81.5446 119.783 85.3903 119.787C85.6828 119.788 85.9639 119.674 86.1719 119.469C86.38 119.263 86.498 118.984 86.5002 118.692C86.4953 117.019 86.5002 113.843 86.5002 112.169ZM121.298 103.367C121.298 102.761 120.805 102.272 120.193 102.268C116.342 102.263 103.576 102.253 99.7305 102.248C99.438 102.247 99.157 102.362 98.949 102.567C98.7409 102.773 98.6229 103.052 98.6206 103.344C98.6206 105.017 98.6159 108.193 98.6159 109.867C98.6161 110.011 98.6449 110.154 98.7006 110.287C98.7563 110.42 98.8378 110.541 98.9405 110.643C99.0432 110.745 99.165 110.825 99.2989 110.88C99.4328 110.935 99.5763 110.962 99.7209 110.962C103.567 110.966 116.333 110.976 120.183 110.98C120.786 110.98 121.288 110.492 121.288 109.886C121.293 108.217 121.293 105.041 121.298 103.367ZM132.093 94.5408C132.093 93.9341 131.6 93.4457 130.988 93.4457C127.143 93.441 114.376 93.4315 110.531 93.4266C109.918 93.4266 109.426 93.9151 109.426 94.5217C109.426 96.1952 109.421 99.3712 109.421 101.045C109.421 101.189 109.45 101.332 109.506 101.465C109.561 101.599 109.643 101.72 109.745 101.821C109.848 101.923 109.97 102.004 110.104 102.058C110.238 102.113 110.381 102.141 110.526 102.14C114.371 102.144 127.143 102.154 130.983 102.159C131.128 102.16 131.271 102.132 131.405 102.077C131.539 102.023 131.661 101.942 131.764 101.84C131.866 101.739 131.948 101.618 132.004 101.484C132.059 101.351 132.088 101.208 132.088 101.064C132.084 99.3902 132.093 96.2142 132.093 94.5408Z" stroke="#E1E4E5" stroke-width="4" stroke-miterlimit="10" stroke-linecap="round" stroke-linejoin="round"/>
<path d="M131.945 112.09C131.945 111.483 131.453 110.995 130.84 110.99C126.995 110.986 114.228 110.976 110.383 110.971C109.771 110.971 109.273 111.46 109.273 112.066C109.273 113.74 109.268 116.916 109.268 118.589C109.268 119.196 109.761 119.684 110.373 119.689C114.219 119.694 126.99 119.703 130.831 119.708C130.976 119.709 131.119 119.681 131.253 119.626C131.387 119.572 131.509 119.491 131.611 119.39C131.714 119.288 131.796 119.167 131.851 119.034C131.907 118.9 131.936 118.757 131.936 118.613C131.936 116.939 131.945 113.763 131.945 112.09ZM98.8835 85.8172C98.8833 85.6728 98.8545 85.5299 98.7989 85.3966C98.7432 85.2633 98.6616 85.1423 98.559 85.0405C98.4563 84.9388 98.3345 84.8583 98.2006 84.8036C98.0666 84.749 97.9232 84.7213 97.7785 84.7221C93.9328 84.7175 81.1665 84.708 77.3208 84.7034C76.7087 84.7034 76.2112 85.1915 76.2112 85.7985C76.2112 87.4717 76.2063 90.648 76.2063 92.3212C76.2063 92.9281 76.6992 93.4163 77.3113 93.4212C81.157 93.4258 93.9233 93.4353 97.769 93.4399C98.0614 93.441 98.3424 93.3265 98.5504 93.1213C98.7584 92.9161 98.8764 92.637 98.8786 92.3451C98.8835 90.6621 98.8835 87.4907 98.8835 85.8172ZM98.5729 103.348C98.5729 102.741 98.0801 102.253 97.4679 102.253C93.6223 102.248 80.856 102.238 77.0103 102.233C76.7178 102.232 76.4367 102.347 76.2287 102.552C76.0206 102.757 75.9026 103.037 75.9004 103.329C75.9004 105.002 75.8958 108.178 75.8958 109.852C75.8959 109.996 75.9247 110.139 75.9804 110.272C76.0361 110.405 76.1176 110.526 76.2203 110.628C76.323 110.73 76.4448 110.81 76.5787 110.865C76.7126 110.92 76.8561 110.947 77.0007 110.947C80.8464 110.951 93.6127 110.961 97.4584 110.965C98.0706 110.965 98.5634 110.477 98.5634 109.87C98.568 108.197 98.5729 105.021 98.5729 103.348Z" stroke="#E1E4E5" stroke-width="4" stroke-miterlimit="10" stroke-linecap="round" stroke-linejoin="round"/>
<path d="M109.369 94.5018C109.369 93.8949 108.876 93.4067 108.264 93.4067C104.418 93.4018 91.6517 93.3926 87.806 93.3877C87.1939 93.3877 86.701 93.8761 86.701 94.4828C86.701 96.1563 86.6964 99.3323 86.6964 101.006C86.6966 101.15 86.7253 101.293 86.781 101.426C86.8366 101.56 86.9181 101.681 87.0208 101.782C87.1234 101.884 87.2452 101.965 87.3791 102.019C87.513 102.074 87.6565 102.102 87.8011 102.101C91.6468 102.105 104.413 102.115 108.259 102.12C108.552 102.121 108.832 102.006 109.04 101.801C109.248 101.596 109.366 101.317 109.369 101.025C109.364 99.3513 109.369 96.175 109.369 94.5018V94.5018ZM109.221 112.05C109.221 111.443 108.728 110.955 108.116 110.955C104.27 110.95 91.5035 110.941 87.6578 110.936C87.5131 110.935 87.3697 110.963 87.2357 111.017C87.1018 111.072 86.98 111.153 86.8773 111.254C86.7746 111.356 86.6931 111.477 86.6374 111.61C86.5817 111.744 86.553 111.887 86.5528 112.031C86.5528 113.705 86.5479 116.881 86.5479 118.554C86.5479 119.161 87.0408 119.649 87.6529 119.654C91.4986 119.658 104.265 119.668 108.111 119.673C108.403 119.674 108.684 119.559 108.892 119.354C109.1 119.149 109.218 118.87 109.221 118.578V112.05ZM144.329 85.8564C144.329 85.2495 143.836 84.7614 143.224 84.7614C139.378 84.7564 126.612 84.7469 122.766 84.7423C122.622 84.7414 122.478 84.7691 122.344 84.8237C122.21 84.8784 122.088 84.9589 121.986 85.0606C121.883 85.1624 121.801 85.2834 121.746 85.4167C121.69 85.55 121.661 85.693 121.661 85.8374C121.652 87.5109 121.652 90.6869 121.652 92.3604C121.652 92.967 122.144 93.4555 122.757 93.4601C126.602 93.4647 139.369 93.4742 143.214 93.4791C143.827 93.4791 144.319 92.9907 144.319 92.384C144.324 90.7059 144.329 87.5296 144.329 85.8564ZM144.018 103.387C144.018 103.242 143.989 103.099 143.933 102.966C143.878 102.833 143.796 102.712 143.693 102.61C143.591 102.508 143.469 102.428 143.335 102.373C143.201 102.318 143.058 102.291 142.913 102.291C139.063 102.287 126.301 102.277 122.451 102.272C121.848 102.272 121.346 102.761 121.346 103.368C121.346 105.041 121.346 108.217 121.336 109.89C121.336 110.497 121.838 110.986 122.441 110.986C126.292 110.99 139.053 111 142.904 111.005C143.048 111.005 143.192 110.978 143.326 110.923C143.459 110.868 143.581 110.788 143.684 110.686C143.787 110.584 143.868 110.463 143.924 110.33C143.98 110.197 144.008 110.054 144.009 109.909C144.013 108.236 144.013 105.065 144.018 103.387ZM76.3935 50.6766C76.3933 50.5322 76.3645 50.3892 76.3088 50.256C76.2531 50.1227 76.1716 50.0017 76.0689 49.8999C75.9663 49.7982 75.8445 49.7177 75.7105 49.663C75.5766 49.6084 75.4332 49.5807 75.2885 49.5815C71.4428 49.5769 58.6765 49.5674 54.8308 49.5625C54.2187 49.5625 53.7258 50.0509 53.7258 50.6576C53.7258 52.3311 53.7212 55.5071 53.7212 57.1805C53.7213 57.3249 53.7501 57.4679 53.8057 57.6012C53.8614 57.7345 53.9429 57.8554 54.0456 57.9572C54.1482 58.059 54.27 58.1395 54.4039 58.1941C54.5378 58.2488 54.6812 58.2765 54.8259 58.2756C58.6716 58.2802 71.4382 58.2898 75.2839 58.2947C75.5763 58.2957 75.8573 58.181 76.0652 57.9758C76.2732 57.7705 76.3912 57.4914 76.3935 57.1996C76.3886 55.5261 76.3935 52.3547 76.3935 50.6766V50.6766ZM76.0824 68.2064C76.0824 67.5995 75.5898 67.1113 74.9773 67.1064C71.1317 67.1018 58.3654 67.0923 54.5197 67.0877C54.2272 67.0865 53.9463 67.2011 53.7383 67.4063C53.5303 67.6115 53.4123 67.8906 53.4101 68.1825C53.4101 69.856 53.4052 73.0322 53.4052 74.7054C53.4052 75.3124 53.898 75.8005 54.5102 75.8005C58.3558 75.8054 71.1221 75.8149 74.9678 75.8196C75.58 75.8196 76.0774 75.3314 76.0774 74.7245C76.0774 73.0559 76.0824 69.8796 76.0824 68.2064V68.2064Z" stroke="#E1E4E5" stroke-width="4" stroke-miterlimit="10" stroke-linecap="round" stroke-linejoin="round"/>
<path d="M86.8781 59.5028C86.8781 58.8961 86.3853 58.4077 85.7731 58.4077C81.9274 58.4031 69.1611 58.3935 65.3154 58.3889C65.1707 58.3881 65.0273 58.4157 64.8933 58.4704C64.7594 58.525 64.6376 58.6055 64.5349 58.7073C64.4322 58.809 64.3507 58.93 64.295 59.0633C64.2393 59.1966 64.2106 59.3396 64.2104 59.484C64.2104 61.1572 64.2055 64.3335 64.2055 66.0067C64.2055 66.6136 64.6984 67.1018 65.3105 67.1018C69.1562 67.1067 81.9225 67.1162 85.7682 67.1208C85.9129 67.1217 86.0563 67.094 86.1903 67.0394C86.3242 66.9848 86.4461 66.9043 86.5487 66.8025C86.6514 66.7007 86.7329 66.5797 86.7886 66.4464C86.8443 66.3131 86.873 66.1702 86.8732 66.0257C86.8732 64.3476 86.8781 61.1763 86.8781 59.5028V59.5028ZM86.7293 77.0519C86.7292 76.9075 86.7004 76.7645 86.6448 76.6313C86.5891 76.498 86.5076 76.377 86.405 76.2752C86.3023 76.1735 86.1805 76.093 86.0466 76.0383C85.9127 75.9837 85.7693 75.956 85.6246 75.9568C81.7789 75.9519 69.0123 75.9427 65.1667 75.9378C64.5545 75.9378 64.057 76.4262 64.057 77.0329C64.057 78.7063 64.0521 81.8823 64.0521 83.5558C64.0521 84.1625 64.545 84.6509 65.1571 84.6555C69.0028 84.6604 81.7691 84.6697 85.6148 84.6746C86.2272 84.6746 86.7247 84.1864 86.7247 83.5795C86.7247 81.8965 86.7293 78.7251 86.7293 77.0519ZM121.839 50.7193C121.838 50.5749 121.81 50.4319 121.754 50.2986C121.698 50.1653 121.617 50.0443 121.514 49.9426C121.411 49.8408 121.29 49.7603 121.156 49.7057C121.022 49.651 120.878 49.6233 120.734 49.6242C116.888 49.6196 104.122 49.6101 100.276 49.6054C99.6638 49.6054 99.1709 50.0936 99.1709 50.7005C99.1709 52.3737 99.1663 55.55 99.1663 57.2232C99.1664 57.3676 99.1952 57.5106 99.2509 57.6439C99.3065 57.7772 99.3881 57.8982 99.4907 58C99.5934 58.1017 99.7152 58.1822 99.8492 58.2369C99.9831 58.2915 100.127 58.3192 100.271 58.3183C104.117 58.3232 116.883 58.3327 120.729 58.3373C121.341 58.3373 121.834 57.8492 121.834 57.2422C121.839 55.569 121.839 52.3928 121.839 50.7193V50.7193ZM121.527 68.2488C121.527 68.1044 121.498 67.9614 121.443 67.8281C121.387 67.6948 121.306 67.5739 121.203 67.4721C121.1 67.3703 120.978 67.2898 120.844 67.2352C120.711 67.1806 120.567 67.1529 120.422 67.1537C116.577 67.1491 103.81 67.1396 99.9648 67.1349C99.3526 67.1349 98.8552 67.6231 98.8552 68.2297C98.8552 69.9032 98.8502 73.0795 98.8502 74.7527C98.8502 75.3597 99.3431 75.8478 99.9552 75.8478C103.801 75.8527 116.563 75.8619 120.413 75.8668C120.558 75.8677 120.701 75.84 120.835 75.7854C120.969 75.7308 121.091 75.6503 121.193 75.5485C121.296 75.4468 121.378 75.3257 121.433 75.1924C121.489 75.0591 121.518 74.9162 121.518 74.7717C121.518 73.0983 121.527 69.9223 121.527 68.2488Z" stroke="#E1E4E5" stroke-width="4" stroke-miterlimit="10" stroke-linecap="round" stroke-linejoin="round"/>
<path d="M132.318 59.4226C132.318 59.2782 132.289 59.1352 132.234 59.0019C132.178 58.8686 132.097 58.7476 131.994 58.6459C131.891 58.5441 131.769 58.4636 131.635 58.409C131.501 58.3543 131.358 58.3267 131.213 58.3275C127.368 58.3229 114.601 58.3134 110.756 58.3085C110.463 58.3074 110.182 58.4221 109.974 58.6273C109.766 58.8326 109.648 59.1117 109.646 59.4036C109.646 61.0771 109.641 64.2531 109.641 65.9266C109.641 66.5332 110.134 67.0216 110.746 67.0263C114.592 67.0312 127.358 67.0407 131.204 67.0453C131.816 67.0453 132.309 66.5571 132.309 65.9502C132.318 64.2675 132.318 61.0961 132.318 59.4226V59.4226ZM132.175 76.9717C132.175 76.3651 131.682 75.8767 131.07 75.872C127.224 75.8671 114.463 75.8579 110.612 75.853C110 75.853 109.502 76.3414 109.502 76.9481C109.502 78.6216 109.498 81.7976 109.498 83.4711C109.498 84.0777 109.99 84.5662 110.603 84.5662C114.448 84.5708 127.215 84.5803 131.06 84.5849C131.673 84.5849 132.165 84.0968 132.165 83.4901C132.175 81.8166 132.175 78.6452 132.175 76.9717V76.9717ZM99.1184 50.7002C99.1184 50.0933 98.6255 49.6052 98.0134 49.6003C94.1677 49.5956 81.4014 49.5861 77.5557 49.5812C76.9435 49.5812 76.4461 50.0697 76.4461 50.6763C76.4461 52.3498 76.4412 55.5261 76.4412 57.1993C76.4413 57.3437 76.4701 57.4867 76.5257 57.62C76.5814 57.7533 76.6629 57.8743 76.7656 57.9761C76.8683 58.0778 76.9901 58.1583 77.1241 58.2129C77.258 58.2676 77.4015 58.2952 77.5462 58.2944C81.3919 58.2993 94.1581 58.3085 98.0038 58.3134C98.616 58.3134 99.1135 57.825 99.1135 57.2183C99.1135 55.5448 99.1135 52.3734 99.1184 50.7002ZM98.8075 68.2315C98.8075 67.6248 98.3147 67.1364 97.7025 67.1364C93.8568 67.1318 81.0905 67.1223 77.2449 67.1177C77.1002 67.1168 76.9567 67.1445 76.8228 67.1991C76.6888 67.2537 76.567 67.3342 76.4643 67.436C76.3616 67.5377 76.2801 67.6587 76.2244 67.7921C76.1688 67.9254 76.14 68.0683 76.1399 68.2128C76.1399 69.886 76.1349 73.0622 76.1349 74.7354C76.1349 75.3424 76.6278 75.8305 77.2399 75.8354C81.0856 75.84 93.8519 75.8496 97.6976 75.8545C97.9901 75.8555 98.2711 75.7409 98.4791 75.5357C98.6872 75.3304 98.8052 75.0513 98.8075 74.7594C98.8026 73.0764 98.8026 69.905 98.8075 68.2315V68.2315Z" stroke="#E1E4E5" stroke-width="4" stroke-miterlimit="10" stroke-linecap="round" stroke-linejoin="round"/>
<path d="M109.598 59.3843C109.598 58.7776 109.105 58.2892 108.493 58.2892C104.647 58.2846 91.8808 58.275 88.0351 58.2704C87.423 58.2704 86.9255 58.7586 86.9255 59.3652C86.9255 61.0387 86.9206 64.215 86.9206 65.8882C86.9206 66.4951 87.4132 66.9833 88.0256 66.9882C91.8713 66.9928 104.638 67.0023 108.483 67.0069C109.095 67.0069 109.593 66.5188 109.593 65.9121C109.593 64.2337 109.598 61.0577 109.598 59.3843ZM109.454 76.9342C109.454 76.3276 108.961 75.8392 108.349 75.8345C104.504 75.8296 91.7373 75.8201 87.8916 75.8155C87.5991 75.8144 87.3181 75.9291 87.1101 76.1343C86.9022 76.3396 86.7842 76.6187 86.7819 76.9106C86.7819 78.5841 86.777 81.7601 86.777 83.4336C86.7772 83.578 86.806 83.7209 86.8617 83.8542C86.9174 83.9875 86.9989 84.1085 87.1016 84.2102C87.2042 84.312 87.3261 84.3925 87.46 84.4472C87.5939 84.5018 87.7373 84.5295 87.882 84.5287C91.7277 84.5333 104.494 84.5428 108.34 84.5474C108.952 84.5474 109.445 84.0592 109.445 83.4523C109.449 81.7837 109.449 78.6077 109.454 76.9342ZM144.559 50.7383C144.559 50.1316 144.066 49.6432 143.454 49.6386C139.608 49.6337 126.842 49.6245 122.996 49.6196C122.852 49.6187 122.708 49.6464 122.574 49.7011C122.44 49.7557 122.318 49.8362 122.216 49.938C122.113 50.0397 122.032 50.1607 121.976 50.294C121.92 50.4273 121.891 50.5702 121.891 50.7147C121.891 52.3881 121.882 55.5641 121.882 57.2376C121.882 57.382 121.911 57.525 121.966 57.6583C122.022 57.7916 122.104 57.9125 122.206 58.0143C122.309 58.1161 122.431 58.1966 122.565 58.2512C122.699 58.3058 122.842 58.3335 122.987 58.3327C126.832 58.3373 139.599 58.3468 143.444 58.3517C144.056 58.3517 144.549 57.8633 144.549 57.2566C144.559 55.5878 144.559 52.4118 144.559 50.7383ZM144.247 68.269C144.247 68.1246 144.218 67.9817 144.163 67.8484C144.107 67.7152 144.026 67.5942 143.923 67.4925C143.82 67.3908 143.699 67.3103 143.565 67.2556C143.431 67.201 143.287 67.1733 143.143 67.1742C139.297 67.1693 126.53 67.1597 122.685 67.1551C122.54 67.1543 122.397 67.182 122.263 67.2366C122.129 67.2913 122.007 67.3718 121.904 67.4736C121.802 67.5753 121.72 67.6963 121.665 67.8296C121.609 67.9629 121.58 68.1058 121.58 68.2502C121.571 69.9234 121.571 73.0997 121.571 74.7732C121.571 75.3798 122.063 75.868 122.675 75.8729C126.521 75.8775 139.288 75.887 143.133 75.8919C143.278 75.8928 143.421 75.8651 143.555 75.8104C143.689 75.7558 143.811 75.6753 143.914 75.5735C144.016 75.4717 144.098 75.3507 144.153 75.2175C144.209 75.0842 144.238 74.9412 144.238 74.7968C144.243 73.1187 144.247 69.9424 144.247 68.269ZM76.3068 15.5354C76.3068 14.9287 75.8143 14.4403 75.2021 14.4357C71.3564 14.4308 58.5899 14.4213 54.7442 14.4167C54.5995 14.4158 54.4561 14.4435 54.3222 14.4982C54.1882 14.5528 54.0665 14.6333 53.9638 14.7351C53.8612 14.8368 53.7797 14.9578 53.724 15.0911C53.6683 15.2244 53.6396 15.3674 53.6395 15.5117C53.6395 17.1849 53.6345 20.3612 53.6345 22.0347C53.6345 22.6414 54.1274 23.1298 54.7395 23.1298C58.5852 23.1344 71.3515 23.1439 75.1972 23.1485C75.8094 23.1485 76.3022 22.6604 76.3022 22.0537C76.3022 20.3849 76.3068 17.2089 76.3068 15.5354V15.5354ZM75.9957 33.0661C75.9956 32.9217 75.9668 32.7787 75.9112 32.6454C75.8555 32.5121 75.774 32.3911 75.6713 32.2894C75.5687 32.1876 75.4469 32.1071 75.313 32.0525C75.1791 31.9978 75.0357 31.9701 74.891 31.971C71.0453 31.9664 58.2787 31.9568 54.433 31.9522C54.1406 31.9512 53.8597 32.0657 53.6517 32.2709C53.4437 32.4761 53.3257 32.7552 53.3234 33.047C53.3234 34.7205 53.3188 37.8968 53.3188 39.57C53.3188 40.1769 53.8113 40.6651 54.4235 40.67C58.2692 40.6746 71.0358 40.6841 74.8815 40.6887C75.0261 40.6896 75.1695 40.6619 75.3034 40.6072C75.4373 40.5526 75.5591 40.4721 75.6617 40.3704C75.7644 40.2687 75.8459 40.1477 75.9015 40.0145C75.9572 39.8812 75.986 39.7383 75.9862 39.5939C75.9911 37.9155 75.9957 34.7395 75.9957 33.0661V33.0661ZM86.7915 24.3572C86.7915 23.7503 86.2989 23.2622 85.6865 23.2572C81.8408 23.2526 69.0745 23.2431 65.2288 23.2385C64.6167 23.2385 64.1238 23.7267 64.1238 24.3336C64.1238 26.0068 64.1192 29.1831 64.1192 30.8563C64.1193 31.0007 64.1481 31.1436 64.2037 31.2769C64.2594 31.4102 64.3409 31.5312 64.4435 31.6329C64.5462 31.7347 64.668 31.8152 64.8019 31.8699C64.9358 31.9245 65.0792 31.9522 65.2239 31.9514C69.0696 31.9563 81.8362 31.9658 85.6819 31.9704C85.9743 31.9715 86.2553 31.8568 86.4633 31.6516C86.6713 31.4463 86.7893 31.1672 86.7915 30.8753C86.7866 29.2067 86.7915 26.0304 86.7915 24.3572V24.3572ZM86.6436 41.9058C86.6434 41.7614 86.6147 41.6184 86.559 41.4852C86.5034 41.3519 86.4219 41.2309 86.3192 41.1291C86.2166 41.0274 86.0948 40.9468 85.9609 40.8922C85.8269 40.8376 85.6835 40.8099 85.5389 40.8107C81.6932 40.8061 68.9266 40.7966 65.0809 40.792C64.4687 40.792 63.9713 41.2801 63.9713 41.887C63.9713 43.5602 63.9664 46.7365 63.9664 48.4097C63.9664 49.0167 64.4592 49.5048 65.0714 49.5048C68.9171 49.5097 81.6833 49.5192 85.529 49.5238C86.1415 49.5238 86.6389 49.0357 86.6389 48.4287C86.6389 46.7555 86.6436 43.5793 86.6436 41.9058ZM121.747 15.5723C121.757 14.9654 121.254 14.4772 120.647 14.4723C116.797 14.4677 104.03 14.4579 100.185 14.4533C100.04 14.4524 99.8965 14.4801 99.7626 14.5347C99.6286 14.5893 99.5068 14.6698 99.4041 14.7716C99.3014 14.8734 99.2199 14.9944 99.1642 15.1277C99.1085 15.261 99.0798 15.4039 99.0797 15.5484C99.0797 17.2219 99.0747 20.3981 99.0747 22.0713C99.0747 22.6783 99.5676 23.1664 100.18 23.1664C104.025 23.171 116.792 23.1808 120.642 23.1855C121.245 23.1855 121.747 22.697 121.747 22.0904V15.5723V15.5723ZM121.441 33.1047C121.441 32.4978 120.949 32.0096 120.337 32.0047C116.491 32.0001 103.725 31.9906 99.879 31.986C99.2666 31.986 98.7691 32.4741 98.7691 33.0811C98.7691 34.7543 98.7645 37.9305 98.7645 39.6037C98.7645 40.2107 99.257 40.6988 99.8692 40.7037C103.715 40.7083 116.481 40.7178 120.327 40.7225C120.472 40.7233 120.615 40.6956 120.749 40.641C120.883 40.5864 121.005 40.5059 121.107 40.4041C121.21 40.3024 121.292 40.1815 121.347 40.0482C121.403 39.9149 121.432 39.772 121.432 39.6277C121.441 37.9542 121.441 34.7828 121.441 33.1047V33.1047Z" stroke="#E1E4E5" stroke-width="4" stroke-miterlimit="10" stroke-linecap="round" stroke-linejoin="round"/>
<path d="M132.237 24.2759C132.237 23.669 131.735 23.1808 131.132 23.1808C127.281 23.1762 114.515 23.1664 110.669 23.1618C110.057 23.1618 109.564 23.6503 109.564 24.2569C109.564 25.9304 109.56 29.1064 109.56 30.7799C109.56 30.9243 109.589 31.0672 109.644 31.2005C109.7 31.3338 109.781 31.4548 109.884 31.5565C109.987 31.6583 110.108 31.7388 110.242 31.7935C110.376 31.8481 110.52 31.8758 110.664 31.875C114.51 31.8796 127.277 31.8891 131.127 31.894C131.73 31.894 132.232 31.4056 132.232 30.7989C132.232 29.1254 132.232 25.954 132.237 24.2759ZM132.094 41.8256C132.093 41.6812 132.065 41.5382 132.009 41.4049C131.953 41.2716 131.872 41.1506 131.769 41.0489C131.666 40.9471 131.545 40.8666 131.411 40.812C131.277 40.7573 131.133 40.7297 130.989 40.7305C127.138 40.7259 114.377 40.7164 110.526 40.7115C109.914 40.7115 109.416 41.1999 109.416 41.8066C109.416 43.4801 109.412 46.6561 109.412 48.3296C109.412 48.9362 109.904 49.4247 110.516 49.4293C114.362 49.4342 127.129 49.4437 130.979 49.4483C131.124 49.4492 131.267 49.4215 131.401 49.3669C131.535 49.3122 131.657 49.2317 131.76 49.13C131.862 49.0282 131.944 48.9072 131.999 48.7739C132.055 48.6406 132.084 48.4976 132.084 48.3532C132.084 46.6751 132.084 43.4991 132.094 41.8256V41.8256ZM99.0317 15.5539C99.0316 15.4094 99.0028 15.2665 98.9471 15.1332C98.8914 14.9999 98.8099 14.8788 98.7072 14.7771C98.6046 14.6753 98.4828 14.5948 98.3488 14.5402C98.2148 14.4856 98.0714 14.4579 97.9267 14.4588C94.081 14.4542 81.3147 14.4446 77.469 14.44C77.1766 14.4389 76.8957 14.5535 76.6877 14.7587C76.4797 14.9639 76.3617 15.243 76.3594 15.5348C76.3594 17.2083 76.3545 20.3846 76.3545 22.0578C76.3545 22.6647 76.8473 23.1529 77.4595 23.1578C81.3052 23.1624 94.0715 23.1719 97.9172 23.1768C98.5296 23.1768 99.0271 22.6884 99.0271 22.0817C99.0271 20.4036 99.0271 17.2273 99.0317 15.5539ZM98.7162 33.0842C98.7161 32.9398 98.6874 32.7969 98.6317 32.6636C98.576 32.5303 98.4945 32.4093 98.3919 32.3076C98.2892 32.2058 98.1674 32.1253 98.0335 32.0707C97.8996 32.016 97.7562 31.9883 97.6115 31.9891C93.7658 31.9842 80.9993 31.975 77.1536 31.9701C77.0089 31.9693 76.8655 31.997 76.7316 32.0516C76.5976 32.1063 76.4759 32.1868 76.3732 32.2885C76.2706 32.3903 76.1891 32.5113 76.1334 32.6446C76.0777 32.7779 76.049 32.9208 76.0489 33.0652C76.0489 34.7387 76.0439 37.9147 76.0439 39.5882C76.0439 40.1948 76.5368 40.6833 77.1489 40.6833C80.9946 40.6879 93.7609 40.6974 97.6066 40.702C97.8991 40.7031 98.18 40.5886 98.388 40.3834C98.596 40.1782 98.714 39.8991 98.7162 39.6072V33.0842V33.0842Z" stroke="#E1E4E5" stroke-width="4" stroke-miterlimit="10" stroke-linecap="round" stroke-linejoin="round"/>
<path d="M109.512 24.2376C109.512 24.0932 109.483 23.9502 109.427 23.817C109.372 23.6837 109.29 23.5627 109.188 23.4609C109.085 23.3592 108.963 23.2787 108.829 23.224C108.695 23.1694 108.552 23.1417 108.407 23.1425C104.562 23.1379 91.795 23.1284 87.9493 23.1235C87.6569 23.1225 87.3759 23.2371 87.168 23.4424C86.96 23.6476 86.842 23.9267 86.8397 24.2186C86.8397 25.8921 86.8351 29.0683 86.8351 30.7415C86.8352 30.8859 86.864 31.0289 86.9196 31.1622C86.9753 31.2954 87.0568 31.4164 87.1594 31.5182C87.2621 31.62 87.3839 31.7005 87.5178 31.7551C87.6517 31.8098 87.7951 31.8375 87.9398 31.8366C91.7855 31.8415 104.552 31.8507 108.398 31.8557C109.01 31.8557 109.507 31.3672 109.507 30.7606C109.507 29.0871 109.512 25.9157 109.512 24.2376ZM109.369 41.7887C109.369 41.1821 108.876 40.6939 108.264 40.6939C104.418 40.689 91.6517 40.6795 87.806 40.6749C87.1939 40.6749 86.701 41.1631 86.701 41.77C86.701 43.4432 86.6964 46.6195 86.6964 48.2927C86.6964 48.8996 87.189 49.3878 87.8011 49.3927C91.6468 49.3973 104.413 49.4068 108.259 49.4117C108.404 49.4125 108.547 49.3848 108.681 49.3302C108.815 49.2755 108.937 49.195 109.039 49.0933C109.142 48.9915 109.224 48.8705 109.279 48.7372C109.335 48.6039 109.364 48.461 109.364 48.3166C109.364 46.6385 109.364 43.4671 109.369 41.7887V41.7887ZM144.477 15.5974C144.477 14.9907 143.975 14.5023 143.372 14.5023C139.521 14.4977 126.76 14.4882 122.909 14.4836C122.297 14.4836 121.804 14.9717 121.804 15.5784C121.804 17.2519 121.804 20.4281 121.795 22.1013C121.795 22.7083 122.288 23.1964 122.9 23.2013C126.751 23.2059 139.512 23.2155 143.363 23.2201C143.965 23.2201 144.467 22.7319 144.467 22.1253C144.467 20.4423 144.467 17.2709 144.477 15.5974ZM144.162 33.126C144.161 32.9817 144.133 32.8388 144.077 32.7055C144.021 32.5723 143.94 32.4513 143.837 32.3496C143.734 32.2478 143.613 32.1674 143.479 32.1127C143.345 32.0581 143.202 32.0304 143.057 32.0312C139.211 32.0263 126.445 32.0168 122.599 32.0122C122.454 32.0114 122.311 32.0391 122.177 32.0937C122.043 32.1484 121.921 32.2289 121.819 32.3306C121.716 32.4324 121.634 32.5534 121.579 32.6867C121.523 32.82 121.494 32.9629 121.494 33.1073C121.494 34.7805 121.485 37.9568 121.485 39.63C121.485 39.7744 121.514 39.9173 121.569 40.0506C121.625 40.1839 121.706 40.3049 121.809 40.4066C121.912 40.5084 122.033 40.5889 122.167 40.6436C122.301 40.6982 122.445 40.7259 122.589 40.7251C126.435 40.73 139.201 40.7395 143.047 40.7441C143.192 40.745 143.335 40.7173 143.469 40.6627C143.603 40.608 143.725 40.5275 143.828 40.4258C143.93 40.324 144.012 40.203 144.067 40.0697C144.123 39.9364 144.152 39.7934 144.152 39.649C144.162 37.9709 144.162 34.7995 144.162 33.126V33.126ZM121.609 85.8357C121.609 85.2287 121.116 84.7406 120.504 84.7357C116.658 84.7311 103.892 84.7216 100.046 84.7167C99.9013 84.7158 99.7578 84.7435 99.6239 84.7982C99.49 84.8528 99.3682 84.9333 99.2655 85.0351C99.1628 85.1368 99.0813 85.2578 99.0256 85.3911C98.9699 85.5244 98.9412 85.6673 98.941 85.8118C98.941 87.4852 98.9361 90.6615 98.9361 92.3347C98.9361 92.9417 99.4289 93.4298 100.041 93.4298C103.887 93.4347 116.648 93.4439 120.499 93.4488C120.643 93.4497 120.787 93.422 120.921 93.3673C121.055 93.3127 121.177 93.2322 121.279 93.1304C121.382 93.0287 121.463 92.9077 121.519 92.7744C121.575 92.6411 121.604 92.4982 121.604 92.3537C121.599 90.6852 121.609 87.5089 121.609 85.8357ZM144.264 120.788C144.264 120.181 143.772 119.693 143.159 119.688C139.314 119.683 126.547 119.674 122.702 119.669C122.409 119.668 122.128 119.783 121.92 119.988C121.712 120.193 121.594 120.472 121.592 120.764C121.592 122.438 121.587 125.614 121.587 127.287C121.587 127.894 122.08 128.382 122.692 128.387C126.538 128.392 139.304 128.401 143.15 128.406C143.762 128.406 144.26 127.918 144.26 127.311C144.26 125.638 144.26 122.461 144.264 120.788ZM143.949 138.32C143.949 137.713 143.456 137.224 142.844 137.22C138.998 137.215 126.232 137.206 122.386 137.201C121.774 137.201 121.281 137.689 121.281 138.296C121.281 139.969 121.277 143.145 121.277 144.819C121.277 145.426 121.769 145.914 122.381 145.919C126.227 145.923 138.994 145.933 142.839 145.938C143.132 145.939 143.413 145.824 143.621 145.619C143.829 145.414 143.947 145.134 143.949 144.843C143.944 143.169 143.949 139.993 143.949 138.32Z" stroke="#E1E4E5" stroke-width="4" stroke-miterlimit="10" stroke-linecap="round" stroke-linejoin="round"/>
<path d="M154.744 129.615C154.744 129.008 154.252 128.52 153.639 128.515C149.794 128.51 137.027 128.501 133.182 128.496C132.57 128.496 132.072 128.984 132.072 129.591C132.072 131.265 132.067 134.441 132.067 136.114C132.067 136.721 132.56 137.209 133.172 137.214C137.018 137.219 149.784 137.228 153.63 137.233C154.242 137.233 154.74 136.745 154.74 136.138C154.74 134.46 154.744 131.288 154.744 129.615ZM154.596 147.165C154.596 146.558 154.104 146.07 153.492 146.065C149.646 146.06 136.879 146.051 133.034 146.046C132.741 146.045 132.46 146.159 132.252 146.365C132.044 146.57 131.926 146.849 131.924 147.141C131.924 148.814 131.919 151.991 131.919 153.664C131.919 154.271 132.412 154.759 133.024 154.764C136.87 154.768 149.636 154.778 153.482 154.783C153.626 154.783 153.77 154.756 153.904 154.701C154.038 154.646 154.16 154.566 154.262 154.464C154.365 154.362 154.446 154.241 154.502 154.108C154.558 153.975 154.587 153.832 154.587 153.687C154.596 152.009 154.596 148.838 154.596 147.165V147.165ZM189.705 120.83C189.705 120.223 189.212 119.735 188.6 119.73C184.754 119.726 171.988 119.716 168.142 119.711C167.85 119.71 167.569 119.825 167.361 120.03C167.153 120.235 167.035 120.514 167.032 120.806C167.032 122.48 167.027 125.656 167.027 127.329C167.027 127.936 167.52 128.424 168.132 128.429C171.978 128.434 184.744 128.443 188.59 128.448C188.735 128.449 188.878 128.421 189.012 128.366C189.146 128.312 189.268 128.231 189.371 128.13C189.473 128.028 189.555 127.907 189.611 127.773C189.666 127.64 189.695 127.497 189.695 127.353C189.705 125.675 189.705 122.503 189.705 120.83ZM189.394 138.363C189.394 137.756 188.902 137.267 188.289 137.263C184.439 137.258 171.677 137.248 167.831 137.244C167.219 137.244 166.722 137.732 166.722 138.339C166.722 140.012 166.717 143.188 166.717 144.862C166.717 145.468 167.21 145.957 167.822 145.961C171.668 145.966 184.429 145.976 188.28 145.98C188.425 145.981 188.568 145.953 188.702 145.899C188.836 145.844 188.958 145.764 189.06 145.662C189.163 145.56 189.244 145.439 189.3 145.306C189.356 145.173 189.384 145.03 189.385 144.885C189.389 143.207 189.394 140.036 189.394 138.363Z" stroke="#E1E4E5" stroke-width="4" stroke-miterlimit="10" stroke-linecap="round" stroke-linejoin="round"/>
<path d="M200.189 129.535C200.189 128.928 199.697 128.44 199.085 128.435C195.239 128.43 182.472 128.42 178.627 128.416C178.334 128.415 178.053 128.529 177.845 128.735C177.637 128.94 177.519 129.219 177.517 129.511C177.517 131.184 177.512 134.36 177.512 136.034C177.512 136.641 178.005 137.129 178.617 137.134C182.463 137.139 195.229 137.148 199.075 137.153C199.219 137.154 199.363 137.126 199.497 137.071C199.631 137.017 199.753 136.936 199.855 136.834C199.958 136.733 200.039 136.612 200.095 136.478C200.151 136.345 200.18 136.202 200.18 136.058C200.189 134.379 200.189 131.208 200.189 129.535V129.535ZM200.041 147.084C200.041 146.477 199.548 145.989 198.936 145.984C195.09 145.979 182.329 145.97 178.478 145.965C178.334 145.964 178.19 145.992 178.056 146.046C177.922 146.101 177.801 146.181 177.698 146.283C177.595 146.385 177.514 146.506 177.458 146.639C177.402 146.772 177.374 146.915 177.373 147.06C177.373 148.733 177.369 151.91 177.369 153.583C177.369 154.19 177.861 154.678 178.474 154.682C182.319 154.687 195.086 154.697 198.931 154.701C199.076 154.702 199.22 154.675 199.354 154.62C199.487 154.565 199.609 154.485 199.712 154.383C199.814 154.281 199.896 154.16 199.952 154.027C200.007 153.894 200.036 153.751 200.036 153.606C200.041 151.928 200.041 148.757 200.041 147.084V147.084ZM166.985 120.807C166.985 120.2 166.492 119.712 165.88 119.712C162.034 119.707 149.268 119.698 145.422 119.693C145.277 119.692 145.134 119.72 145 119.775C144.866 119.829 144.744 119.91 144.641 120.012C144.539 120.113 144.457 120.234 144.402 120.368C144.346 120.501 144.317 120.644 144.317 120.788C144.317 122.462 144.312 125.638 144.312 127.311C144.312 127.918 144.805 128.406 145.417 128.411C149.263 128.416 162.029 128.425 165.875 128.43C166.019 128.431 166.163 128.403 166.297 128.349C166.431 128.294 166.553 128.213 166.655 128.112C166.758 128.01 166.839 127.889 166.895 127.756C166.951 127.622 166.98 127.479 166.98 127.335C166.98 125.657 166.98 122.485 166.985 120.807ZM166.674 138.338C166.674 137.731 166.181 137.243 165.569 137.238C161.723 137.233 148.957 137.224 145.111 137.219C144.499 137.219 144.006 137.707 144.006 138.314C144.006 139.987 144.001 143.164 144.001 144.837C144.001 145.444 144.494 145.932 145.106 145.937C148.952 145.941 161.718 145.951 165.564 145.955C166.176 145.955 166.669 145.467 166.669 144.861C166.669 143.187 166.669 140.016 166.674 138.338Z" stroke="#E1E4E5" stroke-width="4" stroke-miterlimit="10" stroke-linecap="round" stroke-linejoin="round"/>
<path d="M177.465 129.497C177.465 128.89 176.972 128.402 176.36 128.397C172.514 128.393 159.748 128.383 155.902 128.378C155.61 128.377 155.329 128.492 155.121 128.697C154.913 128.902 154.795 129.182 154.792 129.473C154.792 131.147 154.788 134.323 154.788 135.996C154.788 136.603 155.28 137.091 155.893 137.096C159.738 137.101 172.505 137.11 176.35 137.115C176.495 137.116 176.639 137.088 176.772 137.034C176.906 136.979 177.028 136.899 177.131 136.797C177.233 136.695 177.315 136.574 177.371 136.441C177.426 136.307 177.455 136.164 177.455 136.02C177.465 134.342 177.465 131.171 177.465 129.497ZM177.321 147.045C177.321 146.438 176.829 145.95 176.216 145.946C172.371 145.941 159.604 145.931 155.759 145.927C155.466 145.926 155.185 146.04 154.977 146.245C154.769 146.451 154.651 146.73 154.649 147.022C154.649 148.695 154.644 151.871 154.644 153.544C154.644 154.151 155.137 154.64 155.749 154.644C159.595 154.649 172.361 154.659 176.207 154.663C176.352 154.664 176.495 154.637 176.629 154.582C176.763 154.527 176.885 154.447 176.987 154.345C177.09 154.243 177.172 154.122 177.227 153.989C177.283 153.856 177.312 153.713 177.312 153.568C177.317 151.89 177.317 148.719 177.321 147.045V147.045ZM212.425 120.851C212.425 120.244 211.932 119.756 211.32 119.756C207.474 119.751 194.708 119.741 190.863 119.737C190.718 119.736 190.574 119.764 190.44 119.818C190.306 119.873 190.185 119.953 190.082 120.055C189.979 120.157 189.898 120.278 189.842 120.411C189.786 120.544 189.758 120.687 189.758 120.832C189.758 122.505 189.748 125.681 189.748 127.355C189.748 127.961 190.241 128.45 190.853 128.455C194.699 128.459 207.465 128.469 211.311 128.474C211.923 128.474 212.416 127.985 212.416 127.378C212.425 125.7 212.425 122.524 212.425 120.851ZM212.115 138.38C212.115 137.774 211.622 137.285 211.01 137.281C207.164 137.276 194.398 137.266 190.552 137.262C189.94 137.262 189.447 137.75 189.447 138.357C189.437 140.03 189.437 143.206 189.437 144.88C189.437 145.486 189.93 145.975 190.542 145.979C194.388 145.984 207.15 145.994 211 145.998C211.612 145.998 212.105 145.51 212.105 144.903C212.11 143.23 212.115 140.054 212.115 138.38ZM144.437 85.7988C144.437 85.1921 143.944 84.7037 143.332 84.6991C139.486 84.6942 126.72 84.6847 122.874 84.68C122.581 84.679 122.301 84.7936 122.093 84.9989C121.885 85.2041 121.767 85.4832 121.764 85.7751C121.764 87.4486 121.759 90.6246 121.759 92.2981C121.76 92.4425 121.788 92.5855 121.844 92.7187C121.9 92.852 121.981 92.973 122.084 93.0748C122.187 93.1765 122.308 93.257 122.442 93.3117C122.576 93.3663 122.72 93.394 122.864 93.3932C126.71 93.3978 139.476 93.4073 143.322 93.4119C143.934 93.4119 144.427 92.9238 144.427 92.3168C144.432 90.6436 144.437 87.4723 144.437 85.7988ZM144.126 103.329C144.125 103.184 144.097 103.041 144.041 102.908C143.985 102.775 143.904 102.654 143.801 102.552C143.698 102.45 143.577 102.37 143.443 102.315C143.309 102.261 143.165 102.233 143.021 102.234C139.175 102.229 126.409 102.219 122.563 102.215C121.951 102.215 121.453 102.703 121.453 103.31C121.453 104.983 121.448 108.159 121.448 109.833C121.448 110.439 121.941 110.928 122.553 110.933C126.399 110.937 139.165 110.947 143.011 110.952C143.303 110.953 143.584 110.838 143.792 110.633C144.001 110.428 144.119 110.148 144.121 109.856C144.121 108.173 144.126 105.002 144.126 103.329ZM154.922 94.6206C154.922 94.0137 154.429 93.5255 153.817 93.5206C149.971 93.516 137.205 93.5065 133.359 93.5019C133.066 93.5007 132.785 93.6153 132.577 93.8206C132.369 94.0259 132.251 94.305 132.249 94.597C132.249 96.2702 132.244 99.4465 132.244 101.12C132.245 101.264 132.273 101.407 132.329 101.54C132.385 101.674 132.466 101.795 132.569 101.896C132.672 101.998 132.793 102.079 132.927 102.133C133.061 102.188 133.205 102.216 133.349 102.215C137.195 102.22 149.961 102.229 153.807 102.234C154.419 102.234 154.912 101.746 154.912 101.139C154.918 98.966 154.921 96.7933 154.922 94.6206V94.6206ZM154.773 112.169C154.773 111.563 154.281 111.074 153.668 111.074C149.823 111.069 137.056 111.06 133.211 111.055C132.599 111.055 132.106 111.543 132.106 112.15C132.106 113.824 132.101 117 132.101 118.673C132.101 118.817 132.13 118.96 132.186 119.094C132.241 119.227 132.323 119.348 132.425 119.45C132.528 119.552 132.65 119.632 132.784 119.687C132.918 119.741 133.061 119.769 133.206 119.768C137.051 119.773 149.818 119.783 153.664 119.787C153.956 119.788 154.237 119.674 154.445 119.468C154.653 119.263 154.771 118.984 154.773 118.692C154.768 117.019 154.773 113.843 154.773 112.169ZM189.571 103.367C189.571 102.761 189.078 102.272 188.466 102.268C184.616 102.263 171.849 102.253 168.004 102.248C167.711 102.247 167.43 102.362 167.222 102.567C167.014 102.773 166.896 103.052 166.894 103.344C166.894 105.017 166.889 108.193 166.889 109.867C166.889 110.011 166.918 110.154 166.974 110.287C167.029 110.42 167.111 110.541 167.214 110.643C167.316 110.745 167.438 110.825 167.572 110.88C167.706 110.935 167.849 110.962 167.994 110.962C171.84 110.966 184.606 110.976 188.456 110.98C189.059 110.98 189.561 110.492 189.561 109.886C189.566 108.217 189.566 105.041 189.571 103.367V103.367ZM200.366 94.5408C200.366 94.3963 200.337 94.2534 200.282 94.1201C200.226 93.9868 200.145 93.8658 200.042 93.7641C199.939 93.6623 199.817 93.5818 199.683 93.5272C199.55 93.4725 199.406 93.4448 199.261 93.4457C195.416 93.441 182.649 93.4315 178.804 93.4266C178.192 93.4266 177.699 93.9151 177.699 94.5217C177.699 96.1952 177.694 99.3712 177.694 101.045C177.694 101.189 177.723 101.332 177.779 101.465C177.834 101.599 177.916 101.72 178.018 101.821C178.121 101.923 178.243 102.004 178.377 102.058C178.511 102.113 178.654 102.141 178.799 102.14C182.645 102.144 195.416 102.154 199.257 102.159C199.401 102.16 199.545 102.132 199.679 102.077C199.813 102.023 199.934 101.942 200.037 101.84C200.14 101.739 200.221 101.618 200.277 101.484C200.333 101.351 200.361 101.208 200.361 101.064C200.357 99.3902 200.366 96.2142 200.366 94.5408V94.5408Z" stroke="#E1E4E5" stroke-width="4" stroke-miterlimit="10" stroke-linecap="round" stroke-linejoin="round"/>
<path d="M200.218 112.09C200.218 111.483 199.726 110.995 199.114 110.99C195.268 110.986 182.502 110.976 178.656 110.971C178.044 110.971 177.546 111.46 177.546 112.066C177.546 113.74 177.541 116.916 177.541 118.589C177.541 119.196 178.034 119.684 178.646 119.689C182.492 119.694 195.263 119.703 199.104 119.708C199.249 119.709 199.392 119.681 199.526 119.626C199.66 119.572 199.782 119.491 199.884 119.39C199.987 119.288 200.069 119.167 200.124 119.034C200.18 118.9 200.209 118.757 200.209 118.613C200.209 116.939 200.218 113.763 200.218 112.09ZM167.157 85.8172C167.156 85.6728 167.128 85.5299 167.072 85.3966C167.016 85.2633 166.935 85.1423 166.832 85.0405C166.729 84.9388 166.608 84.8583 166.474 84.8036C166.34 84.749 166.196 84.7213 166.052 84.7221C162.206 84.7175 149.44 84.708 145.594 84.7034C144.982 84.7034 144.484 85.1915 144.484 85.7985C144.484 87.4717 144.479 90.648 144.479 92.3212C144.479 92.9281 144.972 93.4163 145.584 93.4212C149.43 93.4258 162.196 93.4353 166.042 93.4399C166.335 93.441 166.616 93.3265 166.824 93.1213C167.032 92.9161 167.15 92.637 167.152 92.3451C167.157 90.6621 167.157 87.4907 167.157 85.8172V85.8172ZM166.846 103.348C166.846 102.741 166.353 102.253 165.741 102.253C161.895 102.248 149.129 102.238 145.283 102.233C144.991 102.232 144.71 102.347 144.502 102.552C144.294 102.758 144.176 103.037 144.174 103.329C144.174 105.002 144.169 108.178 144.169 109.852C144.169 109.996 144.198 110.139 144.254 110.272C144.309 110.405 144.391 110.526 144.493 110.628C144.596 110.73 144.718 110.81 144.852 110.865C144.986 110.92 145.129 110.947 145.274 110.947C149.12 110.951 161.886 110.961 165.732 110.965C166.344 110.965 166.837 110.477 166.837 109.87C166.841 108.197 166.846 105.021 166.846 103.348Z" stroke="#E1E4E5" stroke-width="4" stroke-miterlimit="10" stroke-linecap="round" stroke-linejoin="round"/>
<path d="M177.642 94.5018C177.642 94.3574 177.613 94.2144 177.557 94.0811C177.502 93.9478 177.42 93.8268 177.317 93.7251C177.215 93.6233 177.093 93.5428 176.959 93.4882C176.825 93.4335 176.681 93.4059 176.537 93.4067C172.691 93.4018 159.925 93.3926 156.079 93.3877C155.467 93.3877 154.974 93.8761 154.974 94.4828C154.974 96.1563 154.969 99.3323 154.969 101.006C154.97 101.15 154.998 101.293 155.054 101.426C155.11 101.56 155.191 101.681 155.294 101.782C155.397 101.884 155.518 101.965 155.652 102.019C155.786 102.074 155.93 102.102 156.074 102.101C159.92 102.105 172.686 102.115 176.532 102.12C176.825 102.121 177.106 102.006 177.313 101.801C177.521 101.596 177.64 101.317 177.642 101.025C177.637 99.3513 177.642 96.175 177.642 94.5018V94.5018ZM177.494 112.05C177.494 111.443 177.001 110.955 176.389 110.955C172.543 110.95 159.777 110.941 155.931 110.936C155.319 110.936 154.826 111.424 154.826 112.031C154.826 113.705 154.821 116.881 154.821 118.554C154.821 119.161 155.314 119.649 155.926 119.654C159.772 119.658 172.538 119.668 176.384 119.673C176.676 119.674 176.957 119.559 177.165 119.354C177.373 119.149 177.491 118.87 177.494 118.578V112.05ZM212.602 85.8564C212.602 85.2495 212.109 84.7614 211.497 84.7614C207.651 84.7564 194.885 84.7469 191.039 84.7423C190.427 84.7423 189.934 85.2305 189.934 85.8374C189.925 87.5109 189.925 90.6869 189.925 92.3604C189.925 92.967 190.417 93.4555 191.03 93.4601C194.875 93.4647 207.642 93.4742 211.487 93.4791C212.1 93.4791 212.592 92.9907 212.592 92.384C212.597 90.7059 212.602 87.5296 212.602 85.8564ZM212.291 103.387C212.291 103.242 212.262 103.099 212.206 102.966C212.151 102.833 212.069 102.712 211.967 102.61C211.864 102.508 211.742 102.428 211.608 102.373C211.474 102.318 211.331 102.291 211.186 102.291C207.336 102.287 194.574 102.277 190.724 102.272C190.121 102.272 189.619 102.761 189.619 103.368C189.619 105.041 189.619 108.217 189.609 109.89C189.609 110.497 190.111 110.986 190.714 110.986C194.565 110.99 207.326 111 211.177 111.005C211.321 111.005 211.465 110.978 211.599 110.923C211.733 110.868 211.854 110.788 211.957 110.686C212.06 110.584 212.141 110.463 212.197 110.33C212.253 110.197 212.281 110.054 212.282 109.909C212.287 108.236 212.287 105.065 212.291 103.387ZM144.667 50.6766C144.666 50.5322 144.638 50.3892 144.582 50.256C144.526 50.1227 144.445 50.0017 144.342 49.8999C144.239 49.7982 144.118 49.7177 143.984 49.663C143.85 49.6084 143.706 49.5807 143.562 49.5815C139.716 49.5769 126.95 49.5674 123.104 49.5625C122.492 49.5625 121.999 50.0509 121.999 50.6576C121.999 52.3311 121.994 55.5071 121.994 57.1805C121.994 57.325 122.023 57.4679 122.079 57.6012C122.135 57.7345 122.216 57.8555 122.319 57.9573C122.421 58.0591 122.543 58.1396 122.677 58.1942C122.811 58.2488 122.955 58.2765 123.099 58.2756C126.945 58.2802 139.711 58.2898 143.557 58.2947C143.849 58.2957 144.13 58.1811 144.338 57.9759C144.546 57.7706 144.664 57.4915 144.667 57.1996C144.662 55.5261 144.667 52.3547 144.667 50.6766ZM144.355 68.2064C144.355 67.5995 143.863 67.1113 143.25 67.1064C139.405 67.1018 126.638 67.0923 122.793 67.0877C122.5 67.0865 122.219 67.2011 122.011 67.4063C121.803 67.6115 121.685 67.8906 121.683 68.1825C121.683 69.856 121.678 73.0322 121.678 74.7054C121.678 75.3124 122.171 75.8005 122.783 75.8005C126.629 75.8054 139.395 75.8149 143.241 75.8196C143.853 75.8196 144.351 75.3314 144.351 74.7245C144.351 73.0559 144.355 69.8796 144.355 68.2064V68.2064Z" stroke="#E1E4E5" stroke-width="4" stroke-miterlimit="10" stroke-linecap="round" stroke-linejoin="round"/>
<path d="M155.151 59.5028C155.151 58.8961 154.658 58.4077 154.046 58.4077C150.201 58.4031 137.434 58.3936 133.589 58.3889C133.444 58.3881 133.3 58.4157 133.166 58.4704C133.033 58.525 132.911 58.6055 132.808 58.7073C132.705 58.809 132.624 58.93 132.568 59.0633C132.512 59.1966 132.484 59.3396 132.484 59.484C132.484 61.1572 132.479 64.3335 132.479 66.0067C132.479 66.6136 132.972 67.1018 133.584 67.1018C137.429 67.1067 150.196 67.1162 154.041 67.1208C154.186 67.1217 154.329 67.094 154.463 67.0394C154.597 66.9848 154.719 66.9043 154.822 66.8025C154.925 66.7007 155.006 66.5797 155.062 66.4464C155.117 66.3131 155.146 66.1702 155.146 66.0257C155.146 64.3476 155.151 61.1763 155.151 59.5028V59.5028ZM155.002 77.0519C155.002 76.9075 154.974 76.7645 154.918 76.6313C154.862 76.498 154.781 76.377 154.678 76.2752C154.575 76.1735 154.454 76.093 154.32 76.0383C154.186 75.9837 154.042 75.956 153.898 75.9568C150.052 75.9519 137.286 75.9427 133.44 75.9378C132.828 75.9378 132.33 76.4262 132.33 77.0329C132.33 78.7063 132.326 81.8823 132.326 83.5558C132.326 84.1625 132.818 84.6509 133.43 84.6555C137.276 84.6604 150.043 84.6697 153.888 84.6746C154.5 84.6746 154.998 84.1864 154.998 83.5795C154.998 81.8965 155.002 78.7251 155.002 77.0519ZM190.112 50.7193C190.112 50.5749 190.083 50.4319 190.027 50.2986C189.972 50.1654 189.89 50.0444 189.787 49.9426C189.685 49.8408 189.563 49.7603 189.429 49.7057C189.295 49.651 189.152 49.6233 189.007 49.6242C185.161 49.6196 172.395 49.6101 168.549 49.6054C168.404 49.6046 168.261 49.6323 168.127 49.6869C167.993 49.7416 167.871 49.8221 167.769 49.9239C167.666 50.0256 167.585 50.1466 167.529 50.2799C167.473 50.4132 167.444 50.5561 167.444 50.7005C167.444 52.3737 167.439 55.55 167.439 57.2232C167.44 57.3676 167.468 57.5106 167.524 57.6439C167.58 57.7772 167.661 57.8982 167.764 58C167.867 58.1017 167.988 58.1822 168.122 58.2369C168.256 58.2915 168.4 58.3192 168.544 58.3183C172.39 58.3232 185.156 58.3327 189.002 58.3373C189.614 58.3373 190.107 57.8492 190.107 57.2422C190.112 55.569 190.112 52.3928 190.112 50.7193V50.7193ZM189.801 68.2488C189.8 68.1044 189.772 67.9614 189.716 67.8282C189.66 67.6949 189.579 67.5739 189.476 67.4721C189.374 67.3704 189.252 67.2899 189.118 67.2352C188.984 67.1806 188.841 67.1529 188.696 67.1537C184.85 67.1491 172.084 67.1396 168.238 67.135C167.626 67.135 167.128 67.6231 167.128 68.2298C167.128 69.9032 167.123 73.0795 167.123 74.7527C167.123 75.3597 167.616 75.8478 168.228 75.8478C172.074 75.8527 184.836 75.8619 188.686 75.8668C188.831 75.8677 188.974 75.84 189.108 75.7854C189.242 75.7308 189.364 75.6503 189.467 75.5485C189.569 75.4468 189.651 75.3257 189.706 75.1924C189.762 75.0591 189.791 74.9162 189.791 74.7717C189.791 73.0983 189.801 69.9223 189.801 68.2488Z" stroke="#E1E4E5" stroke-width="4" stroke-miterlimit="10" stroke-linecap="round" stroke-linejoin="round"/>
<path d="M200.591 59.4226C200.591 59.2782 200.563 59.1352 200.507 59.0019C200.451 58.8686 200.37 58.7476 200.267 58.6459C200.164 58.5441 200.042 58.4636 199.909 58.409C199.775 58.3543 199.631 58.3267 199.486 58.3275C195.641 58.3229 182.874 58.3134 179.029 58.3085C178.736 58.3075 178.455 58.4222 178.247 58.6274C178.039 58.8326 177.921 59.1117 177.919 59.4036C177.919 61.0771 177.914 64.2531 177.914 65.9266C177.914 66.5332 178.407 67.0216 179.019 67.0263C182.865 67.0312 195.631 67.0407 199.477 67.0453C199.622 67.0462 199.765 67.0185 199.899 66.9639C200.033 66.9092 200.155 66.8287 200.257 66.727C200.36 66.6252 200.442 66.5042 200.497 66.3709C200.553 66.2376 200.582 66.0946 200.582 65.9502C200.591 64.2675 200.591 61.0961 200.591 59.4226V59.4226ZM200.448 76.9717C200.448 76.3651 199.955 75.8767 199.343 75.872C195.497 75.8671 182.736 75.8579 178.885 75.853C178.273 75.853 177.776 76.3414 177.776 76.9481C177.776 78.6216 177.771 81.7976 177.771 83.4711C177.771 84.0777 178.264 84.5662 178.876 84.5662C182.721 84.5708 195.488 84.5803 199.333 84.5849C199.946 84.5849 200.438 84.0968 200.438 83.4901C200.448 81.8166 200.448 78.6452 200.448 76.9717V76.9717ZM167.391 50.7002C167.391 50.0933 166.899 49.6052 166.286 49.6003C162.441 49.5956 149.674 49.5861 145.829 49.5812C145.217 49.5812 144.719 50.0697 144.719 50.6763C144.719 52.3498 144.714 55.5261 144.714 57.1993C144.714 57.8062 145.207 58.2944 145.819 58.2944C149.665 58.2993 162.431 58.3085 166.277 58.3134C166.889 58.3134 167.387 57.825 167.387 57.2183C167.387 55.5448 167.387 52.3734 167.391 50.7002ZM167.081 68.2315C167.081 67.6248 166.588 67.1364 165.976 67.1364C162.13 67.1318 149.364 67.1223 145.518 67.1177C145.373 67.1168 145.23 67.1445 145.096 67.1991C144.962 67.2537 144.84 67.3342 144.737 67.436C144.635 67.5377 144.553 67.6587 144.498 67.7921C144.442 67.9254 144.413 68.0683 144.413 68.2128C144.413 69.886 144.408 73.0622 144.408 74.7354C144.408 75.3424 144.901 75.8305 145.513 75.8354C149.359 75.84 162.125 75.8496 165.971 75.8545C166.263 75.8555 166.544 75.7409 166.752 75.5357C166.96 75.3304 167.078 75.0513 167.081 74.7594C167.076 73.0764 167.076 69.905 167.081 68.2315V68.2315Z" stroke="#E1E4E5" stroke-width="4" stroke-miterlimit="10" stroke-linecap="round" stroke-linejoin="round"/>
<path d="M177.871 59.3843C177.871 59.2398 177.842 59.0969 177.786 58.9636C177.731 58.8303 177.649 58.7093 177.546 58.6076C177.444 58.5058 177.322 58.4253 177.188 58.3707C177.054 58.316 176.911 58.2883 176.766 58.2892C172.92 58.2846 160.154 58.275 156.308 58.2704C155.696 58.2704 155.199 58.7586 155.199 59.3652C155.199 61.0387 155.194 64.215 155.194 65.8882C155.194 66.4951 155.687 66.9833 156.299 66.9882C160.144 66.9928 172.911 67.0023 176.756 67.0069C177.369 67.0069 177.866 66.5188 177.866 65.9121C177.866 64.2337 177.871 61.0577 177.871 59.3843ZM177.727 76.9342C177.727 76.3276 177.235 75.8392 176.622 75.8345C172.777 75.8296 160.01 75.8201 156.165 75.8155C155.872 75.8144 155.591 75.9291 155.383 76.1343C155.175 76.3396 155.057 76.6187 155.055 76.9106C155.055 78.5841 155.05 81.7601 155.05 83.4336C155.05 84.0402 155.543 84.5287 156.155 84.5287C160.001 84.5333 172.767 84.5428 176.613 84.5474C177.225 84.5474 177.718 84.0592 177.718 83.4523C177.722 81.7837 177.722 78.6077 177.727 76.9342V76.9342ZM212.832 50.7383C212.832 50.1316 212.339 49.6432 211.727 49.6386C207.881 49.6337 195.115 49.6245 191.269 49.6196C190.657 49.6196 190.164 50.108 190.164 50.7147C190.164 52.3881 190.155 55.5641 190.155 57.2376C190.155 57.382 190.184 57.525 190.239 57.6583C190.295 57.7916 190.377 57.9125 190.479 58.0143C190.582 58.1161 190.704 58.1966 190.838 58.2512C190.972 58.3058 191.115 58.3335 191.26 58.3327C195.105 58.3373 207.872 58.3468 211.717 58.3517C212.33 58.3517 212.822 57.8633 212.822 57.2566C212.832 55.5878 212.832 52.4118 212.832 50.7383ZM212.521 68.269C212.521 67.6623 212.028 67.1742 211.416 67.1742C207.57 67.1693 194.804 67.1597 190.958 67.1551C190.813 67.1543 190.67 67.1819 190.536 67.2366C190.402 67.2912 190.28 67.3717 190.178 67.4735C190.075 67.5752 189.993 67.6962 189.938 67.8295C189.882 67.9628 189.853 68.1058 189.853 68.2502C189.844 69.9234 189.844 73.0997 189.844 74.7732C189.844 75.3798 190.336 75.868 190.948 75.8729C194.794 75.8775 207.561 75.887 211.406 75.8919C211.551 75.8928 211.694 75.8651 211.828 75.8104C211.962 75.7558 212.084 75.6753 212.187 75.5735C212.289 75.4717 212.371 75.3507 212.426 75.2175C212.482 75.0842 212.511 74.9412 212.511 74.7968C212.516 73.1187 212.521 69.9424 212.521 68.269V68.269ZM144.58 15.5354C144.58 14.9287 144.087 14.4403 143.475 14.4357C139.63 14.4308 126.863 14.4213 123.018 14.4167C122.873 14.4158 122.729 14.4435 122.595 14.4981C122.461 14.5527 122.34 14.6332 122.237 14.735C122.134 14.8367 122.053 14.9578 121.997 15.0911C121.941 15.2244 121.913 15.3673 121.913 15.5118C121.913 17.1849 121.908 20.3612 121.908 22.0347C121.908 22.6414 122.4 23.1298 123.013 23.1298C126.858 23.1344 139.625 23.1439 143.47 23.1485C143.615 23.1494 143.758 23.1218 143.892 23.0671C144.026 23.0125 144.148 22.9321 144.251 22.8303C144.353 22.7286 144.435 22.6076 144.491 22.4744C144.546 22.3411 144.575 22.1981 144.575 22.0537C144.575 20.3849 144.58 17.2089 144.58 15.5354V15.5354ZM144.269 33.0661C144.269 32.4594 143.776 31.971 143.164 31.971C139.318 31.9664 126.552 31.9568 122.706 31.9522C122.414 31.9511 122.133 32.0656 121.925 32.2708C121.717 32.476 121.599 32.7551 121.596 33.047C121.596 34.7205 121.592 37.8968 121.592 39.57C121.592 40.1769 122.084 40.6651 122.697 40.67C126.542 40.6746 139.309 40.6841 143.155 40.6887C143.299 40.6896 143.443 40.6619 143.576 40.6072C143.71 40.5526 143.832 40.4721 143.935 40.3704C144.037 40.2687 144.119 40.1477 144.175 40.0145C144.23 39.8812 144.259 39.7383 144.259 39.5939C144.264 37.9155 144.269 34.7395 144.269 33.0661V33.0661ZM155.065 24.3572C155.065 23.7503 154.572 23.2622 153.96 23.2572C150.114 23.2526 137.348 23.2431 133.502 23.2385C132.89 23.2385 132.397 23.7267 132.397 24.3336C132.397 26.0068 132.392 29.1831 132.392 30.8563C132.392 31.0007 132.421 31.1437 132.477 31.277C132.533 31.4103 132.614 31.5313 132.717 31.633C132.819 31.7348 132.941 31.8153 133.075 31.8699C133.209 31.9246 133.353 31.9522 133.497 31.9514C137.343 31.9563 150.109 31.9658 153.955 31.9704C154.247 31.9715 154.528 31.8568 154.736 31.6516C154.944 31.4463 155.062 31.1672 155.065 30.8753C155.06 29.2067 155.065 26.0304 155.065 24.3572ZM154.917 41.9058C154.916 41.7614 154.888 41.6184 154.832 41.4852C154.776 41.3519 154.695 41.2309 154.592 41.1291C154.49 41.0274 154.368 40.9468 154.234 40.8922C154.1 40.8376 153.957 40.8099 153.812 40.8107C149.966 40.8061 137.2 40.7966 133.354 40.792C132.742 40.792 132.244 41.2801 132.244 41.887C132.244 43.5602 132.24 46.7365 132.24 48.4097C132.24 48.5541 132.269 48.6971 132.324 48.8303C132.38 48.9636 132.461 49.0846 132.564 49.1864C132.667 49.2881 132.789 49.3687 132.922 49.4233C133.056 49.4779 133.2 49.5056 133.344 49.5048C137.19 49.5097 149.957 49.5192 153.802 49.5238C154.415 49.5238 154.912 49.0357 154.912 48.4287C154.912 46.7555 154.917 43.5793 154.917 41.9058ZM190.02 15.5723C190.03 14.9654 189.528 14.4772 188.92 14.4723C185.07 14.4677 172.303 14.4579 168.458 14.4533C168.313 14.4524 168.17 14.4801 168.036 14.5347C167.902 14.5893 167.78 14.6698 167.677 14.7716C167.575 14.8734 167.493 14.9944 167.437 15.1277C167.382 15.261 167.353 15.4039 167.353 15.5484C167.353 17.2219 167.348 20.3981 167.348 22.0713C167.348 22.6783 167.841 23.1664 168.453 23.1664C172.299 23.171 185.065 23.1808 188.915 23.1855C189.518 23.1855 190.02 22.697 190.02 22.0904V15.5723V15.5723ZM189.715 33.1047C189.715 32.4978 189.222 32.0096 188.61 32.0047C184.764 32.0001 171.998 31.9906 168.152 31.986C167.54 31.986 167.042 32.4741 167.042 33.0811C167.042 34.7543 167.038 37.9305 167.038 39.6037C167.038 40.2107 167.53 40.6988 168.143 40.7037C171.988 40.7083 184.755 40.7178 188.6 40.7225C188.745 40.7233 188.888 40.6956 189.022 40.641C189.156 40.5864 189.278 40.5059 189.38 40.4041C189.483 40.3024 189.565 40.1815 189.62 40.0482C189.676 39.9149 189.705 39.772 189.705 39.6277C189.715 37.9542 189.715 34.7828 189.715 33.1047V33.1047Z" stroke="#E1E4E5" stroke-width="4" stroke-miterlimit="10" stroke-linecap="round" stroke-linejoin="round"/>
<path d="M200.51 24.2759C200.51 23.669 200.008 23.1808 199.405 23.1808C195.554 23.1762 182.788 23.1664 178.942 23.1618C178.33 23.1618 177.837 23.6503 177.837 24.2569C177.837 25.9304 177.833 29.1064 177.833 30.7799C177.833 30.9243 177.862 31.0672 177.917 31.2005C177.973 31.3338 178.054 31.4548 178.157 31.5565C178.26 31.6583 178.382 31.7388 178.515 31.7935C178.649 31.8481 178.793 31.8758 178.937 31.875C182.783 31.8796 195.55 31.8891 199.4 31.894C200.003 31.894 200.505 31.4056 200.505 30.7989C200.505 29.1254 200.505 25.954 200.51 24.2759ZM200.367 41.8256C200.367 41.6812 200.338 41.5382 200.282 41.4049C200.226 41.2716 200.145 41.1506 200.042 41.0489C199.94 40.9471 199.818 40.8666 199.684 40.812C199.55 40.7573 199.406 40.7297 199.262 40.7305C195.411 40.7259 182.65 40.7164 178.799 40.7115C178.187 40.7115 177.689 41.1999 177.689 41.8066C177.689 43.4801 177.685 46.6561 177.685 48.3296C177.685 48.9362 178.177 49.4247 178.79 49.4293C182.635 49.4342 195.402 49.4437 199.252 49.4483C199.397 49.4492 199.54 49.4215 199.674 49.3669C199.808 49.3122 199.93 49.2317 200.033 49.13C200.135 49.0282 200.217 48.9072 200.273 48.7739C200.328 48.6406 200.357 48.4976 200.357 48.3532C200.357 46.6751 200.357 43.4991 200.367 41.8256V41.8256ZM167.305 15.5539C167.305 15.4095 167.276 15.2665 167.22 15.1332C167.165 14.9999 167.083 14.8789 166.98 14.7772C166.878 14.6754 166.756 14.5949 166.622 14.5403C166.488 14.4856 166.345 14.4579 166.2 14.4588C162.354 14.4542 149.588 14.4446 145.742 14.44C145.45 14.4389 145.169 14.5535 144.961 14.7587C144.753 14.9639 144.635 15.243 144.632 15.5348C144.632 17.2083 144.628 20.3846 144.628 22.0578C144.628 22.6647 145.12 23.1529 145.733 23.1578C149.578 23.1624 162.345 23.1719 166.191 23.1768C166.803 23.1768 167.3 22.6884 167.3 22.0817C167.3 20.4036 167.3 17.2273 167.305 15.5539ZM166.989 33.0842C166.989 32.9398 166.96 32.7969 166.905 32.6636C166.849 32.5303 166.768 32.4093 166.665 32.3076C166.562 32.2058 166.441 32.1253 166.307 32.0707C166.173 32.016 166.029 31.9883 165.885 31.9891C162.039 31.9842 149.273 31.975 145.427 31.9701C145.282 31.9692 145.139 31.9969 145.005 32.0515C144.871 32.1062 144.749 32.1867 144.646 32.2884C144.544 32.3902 144.462 32.5112 144.407 32.6445C144.351 32.7778 144.322 32.9208 144.322 33.0652C144.322 34.7387 144.317 37.9147 144.317 39.5882C144.317 40.1948 144.81 40.6833 145.422 40.6833C149.268 40.6879 162.034 40.6974 165.88 40.702C166.172 40.7031 166.453 40.5886 166.661 40.3834C166.869 40.1782 166.987 39.8991 166.989 39.6072V33.0842V33.0842Z" stroke="#E1E4E5" stroke-width="4" stroke-miterlimit="10" stroke-linecap="round" stroke-linejoin="round"/>
<path d="M177.785 24.2376C177.785 23.6309 177.293 23.1425 176.68 23.1425C172.835 23.1379 160.068 23.1284 156.223 23.1235C155.93 23.1224 155.649 23.237 155.441 23.4423C155.233 23.6475 155.115 23.9266 155.113 24.2186C155.113 25.892 155.108 29.0683 155.108 30.7415C155.108 30.8859 155.137 31.0289 155.193 31.1622C155.248 31.2955 155.33 31.4165 155.433 31.5183C155.535 31.62 155.657 31.7006 155.791 31.7552C155.925 31.8098 156.069 31.8375 156.213 31.8366C160.059 31.8415 172.825 31.8507 176.671 31.8556C177.283 31.8556 177.78 31.3672 177.78 30.7605C177.78 29.0871 177.785 25.9157 177.785 24.2376V24.2376ZM177.642 41.7887C177.642 41.1821 177.149 40.6939 176.537 40.6939C172.691 40.689 159.925 40.6795 156.079 40.6749C155.467 40.6749 154.974 41.163 154.974 41.77C154.974 43.4432 154.97 46.6195 154.97 48.2927C154.97 48.8996 155.462 49.3877 156.074 49.3926C159.92 49.3973 172.687 49.4068 176.532 49.4117C176.677 49.4125 176.82 49.3848 176.954 49.3302C177.088 49.2755 177.21 49.195 177.313 49.0933C177.415 48.9915 177.497 48.8705 177.552 48.7372C177.608 48.6039 177.637 48.461 177.637 48.3166C177.637 46.6385 177.637 43.4671 177.642 41.7887V41.7887ZM212.75 15.5974C212.75 14.9907 212.248 14.5023 211.645 14.5023C207.795 14.4977 195.033 14.4882 191.183 14.4836C191.038 14.4827 190.895 14.5104 190.761 14.565C190.627 14.6197 190.505 14.7002 190.402 14.8019C190.3 14.9036 190.218 15.0246 190.163 15.1578C190.107 15.2911 190.078 15.434 190.078 15.5784C190.078 17.2518 190.078 20.4281 190.068 22.1013C190.068 22.7083 190.561 23.1964 191.173 23.2013C195.024 23.2059 207.785 23.2154 211.636 23.2201C212.238 23.2201 212.741 22.7319 212.741 22.1253C212.741 20.4423 212.741 17.2709 212.75 15.5974V15.5974ZM212.435 33.126C212.435 32.5194 211.942 32.0312 211.33 32.0312C207.484 32.0263 194.718 32.0168 190.872 32.0122C190.728 32.0113 190.584 32.039 190.45 32.0936C190.316 32.1483 190.195 32.2288 190.092 32.3305C189.989 32.4323 189.908 32.5533 189.852 32.6866C189.796 32.8199 189.768 32.9629 189.767 33.1073C189.767 34.7805 189.758 37.9568 189.758 39.63C189.758 39.7744 189.787 39.9173 189.842 40.0506C189.898 40.1839 189.98 40.3049 190.082 40.4066C190.185 40.5084 190.307 40.5889 190.441 40.6436C190.574 40.6982 190.718 40.7259 190.863 40.7251C194.708 40.73 207.475 40.7395 211.321 40.7441C211.465 40.7449 211.609 40.7172 211.743 40.6626C211.876 40.6079 211.998 40.5274 212.101 40.4257C212.204 40.3239 212.285 40.2029 212.341 40.0696C212.396 39.9363 212.425 39.7934 212.425 39.649C212.435 37.9709 212.435 34.7995 212.435 33.126V33.126ZM189.882 85.8357C189.882 85.2287 189.389 84.7406 188.777 84.7357C184.931 84.7311 172.165 84.7216 168.319 84.7167C168.174 84.7158 168.031 84.7435 167.897 84.7982C167.763 84.8528 167.641 84.9333 167.539 85.0351C167.436 85.1368 167.354 85.2578 167.299 85.3911C167.243 85.5244 167.214 85.6673 167.214 85.8117C167.214 87.4852 167.209 90.6615 167.209 92.3347C167.209 92.9416 167.702 93.4298 168.314 93.4298C172.16 93.4347 184.922 93.4439 188.772 93.4488C188.917 93.4497 189.06 93.422 189.194 93.3673C189.328 93.3127 189.45 93.2322 189.552 93.1304C189.655 93.0287 189.737 92.9077 189.792 92.7744C189.848 92.6411 189.877 92.4981 189.877 92.3537C189.872 90.6852 189.882 87.5089 189.882 85.8357V85.8357Z" stroke="#E1E4E5" stroke-width="4" stroke-miterlimit="10" stroke-linecap="round" stroke-linejoin="round"/>
<path fill-rule="evenodd" clip-rule="evenodd" d="M146.688 82.6862V128.915L146.735 128.869L146.724 131.162L173.365 157.592H169.814L146.688 134.638V157.579H143.883V135.513L121.653 157.592H117.751L143.883 131.661V82.6862H146.688Z" fill="white" stroke="#E1E4E5" stroke-width="4"/>
<path d="M151.467 133.429C151.467 131.667 150.036 130.238 148.27 130.238H142.607C140.841 130.238 139.409 131.667 139.409 133.429C139.409 135.192 140.841 136.621 142.607 136.621H148.27C150.036 136.621 151.467 135.192 151.467 133.429Z" fill="white" stroke="#E1E4E5" stroke-width="4"/>
<path d="M212.395 23.4718H83.2C81.9236 23.4718 80.8889 24.5045 80.8889 25.7784V100.086C80.8889 101.36 81.9236 102.393 83.2 102.393H212.395C213.672 102.393 214.707 101.36 214.707 100.086V25.7784C214.707 24.5045 213.672 23.4718 212.395 23.4718Z" fill="white" stroke="#E1E4E5" stroke-width="4"/>
<path d="M137.51 65.6466C137.51 65.3389 137.76 65.0895 138.068 65.0895H152.456C152.604 65.0895 152.746 65.1482 152.85 65.2527C152.955 65.3571 153.014 65.4988 153.014 65.6466C153.014 65.7943 152.955 65.936 152.85 66.0405C152.746 66.1449 152.604 66.2036 152.456 66.2036H138.068C137.92 66.2036 137.778 66.1449 137.673 66.0405C137.568 65.936 137.51 65.7943 137.51 65.6466ZM153.014 83.4079C153.014 83.5557 152.955 83.6973 152.85 83.8018C152.746 83.9063 152.604 83.965 152.456 83.965H138.068C137.92 83.965 137.778 83.9063 137.673 83.8018C137.568 83.6973 137.51 83.5557 137.51 83.4079C137.51 83.2602 137.568 83.1185 137.673 83.014C137.778 82.9095 137.92 82.8508 138.068 82.8508H152.456C152.764 82.8508 153.014 83.1003 153.014 83.4079ZM133.723 71.6929C133.723 71.3853 133.973 71.1359 134.282 71.1359H156.242C156.39 71.1359 156.532 71.1946 156.636 71.299C156.741 71.4035 156.8 71.5452 156.8 71.6929C156.8 71.8407 156.741 71.9824 156.636 72.0868C156.532 72.1913 156.39 72.25 156.242 72.25H134.282C134.134 72.25 133.992 72.1913 133.887 72.0868C133.782 71.9824 133.723 71.8407 133.723 71.6929ZM156.8 77.3616C156.8 77.5093 156.741 77.651 156.636 77.7555C156.532 77.8599 156.39 77.9186 156.242 77.9186H134.282C134.134 77.9186 133.992 77.8599 133.887 77.7555C133.782 77.651 133.723 77.5093 133.723 77.3616C133.723 77.2138 133.782 77.0721 133.887 76.9677C133.992 76.8632 134.134 76.8045 134.282 76.8045H156.242C156.55 76.8045 156.8 77.0539 156.8 77.3616ZM155.664 49.2081C155.664 55.0558 150.998 59.7793 145.262 59.7793C139.526 59.7793 134.859 55.0558 134.859 49.2081C134.859 43.3601 139.526 38.6367 145.262 38.6367C150.998 38.6367 155.664 43.3601 155.664 49.2081Z" fill="white" stroke="#E1E4E5" stroke-width="4"/>
<path d="M145.451 48.4426C146.7 48.4426 147.713 47.4318 147.713 46.1849C147.713 44.9381 146.7 43.9273 145.451 43.9273C144.202 43.9273 143.189 44.9381 143.189 46.1849C143.189 47.4318 144.202 48.4426 145.451 48.4426Z" fill="white" stroke="#E1E4E5" stroke-width="4"/>
<path d="M141.675 52.0422C141.675 51.5938 141.853 51.1638 142.171 50.8468C142.489 50.5298 142.919 50.3517 143.369 50.3517H147.912C148.137 50.3487 148.359 50.3903 148.567 50.474C148.775 50.5576 148.965 50.6817 149.124 50.8389C149.284 50.9962 149.411 51.1836 149.497 51.3902C149.584 51.5967 149.628 51.8184 149.628 52.0423C149.628 52.2662 149.584 52.4879 149.497 52.6944C149.411 52.901 149.284 53.0884 149.124 53.2456C148.965 53.4029 148.775 53.527 148.567 53.6106C148.359 53.6943 148.137 53.7359 147.912 53.7329H143.369C143.146 53.7329 142.926 53.6892 142.72 53.6042C142.515 53.5193 142.328 53.3947 142.171 53.2377C142.014 53.0807 141.889 52.8943 141.804 52.6892C141.719 52.484 141.675 52.2642 141.675 52.0422ZM172.722 65.6466C172.722 65.3389 172.972 65.0895 173.28 65.0895H187.668C187.816 65.0895 187.958 65.1482 188.062 65.2527C188.167 65.3571 188.226 65.4988 188.226 65.6466C188.226 65.7943 188.167 65.936 188.062 66.0405C187.958 66.1449 187.816 66.2036 187.668 66.2036H173.28C173.132 66.2036 172.99 66.1449 172.885 66.0405C172.781 65.936 172.722 65.7943 172.722 65.6466ZM188.226 83.4079C188.226 83.5557 188.167 83.6973 188.063 83.8018C187.958 83.9063 187.816 83.965 187.668 83.965H173.28C173.132 83.965 172.99 83.9063 172.886 83.8018C172.781 83.6973 172.722 83.5557 172.722 83.4079C172.722 83.2602 172.781 83.1185 172.886 83.014C172.99 82.9095 173.132 82.8508 173.28 82.8508H187.668C187.976 82.8508 188.226 83.1003 188.226 83.4079ZM168.936 71.6929C168.936 71.3853 169.185 71.1359 169.494 71.1359H191.454C191.602 71.1359 191.744 71.1946 191.849 71.299C191.954 71.4035 192.012 71.5452 192.012 71.6929C192.012 71.8407 191.954 71.9824 191.849 72.0868C191.744 72.1913 191.602 72.25 191.454 72.25H169.494C169.346 72.25 169.204 72.1913 169.099 72.0868C168.994 71.9824 168.936 71.8407 168.936 71.6929ZM192.012 77.3616C192.012 77.5093 191.954 77.651 191.849 77.7555C191.744 77.8599 191.602 77.9186 191.454 77.9186H169.494C169.346 77.9186 169.204 77.8599 169.099 77.7555C168.994 77.651 168.936 77.5093 168.936 77.3616C168.936 77.2138 168.994 77.0721 169.099 76.9677C169.204 76.8632 169.346 76.8045 169.494 76.8045H191.454C191.762 76.8045 192.012 77.0539 192.012 77.3616ZM190.876 49.2081C190.876 55.0558 186.21 59.7793 180.474 59.7793C174.738 59.7793 170.071 55.0558 170.071 49.2081C170.071 43.3601 174.738 38.6367 180.474 38.6367C186.21 38.6367 190.876 43.3601 190.876 49.2081Z" fill="white" stroke="#E1E4E5" stroke-width="4"/>
<path d="M180.663 48.4426C181.912 48.4426 182.925 47.4318 182.925 46.1849C182.925 44.9381 181.912 43.9273 180.663 43.9273C179.414 43.9273 178.401 44.9381 178.401 46.1849C178.401 47.4318 179.414 48.4426 180.663 48.4426Z" fill="white" stroke="#E1E4E5" stroke-width="4"/>
<path d="M176.887 52.0422C176.887 51.5938 177.066 51.1638 177.383 50.8468C177.701 50.5297 178.132 50.3517 178.581 50.3517H183.125C183.574 50.3517 184.005 50.5298 184.322 50.8468C184.64 51.1639 184.819 51.5939 184.819 52.0423C184.819 52.4907 184.64 52.9207 184.322 53.2378C184.005 53.5548 183.574 53.7329 183.125 53.7329H178.581C178.132 53.7329 177.701 53.5548 177.383 53.2377C177.065 52.9206 176.887 52.4906 176.887 52.0422ZM102.297 65.6466C102.297 65.3389 102.547 65.0895 102.855 65.0895H117.243C117.391 65.0895 117.533 65.1482 117.638 65.2527C117.743 65.3571 117.801 65.4988 117.801 65.6466C117.801 65.7943 117.743 65.936 117.638 66.0405C117.533 66.1449 117.391 66.2036 117.243 66.2036H102.855C102.707 66.2036 102.565 66.1449 102.461 66.0405C102.356 65.936 102.297 65.7943 102.297 65.6466ZM117.802 83.4079C117.802 83.4811 117.787 83.5535 117.759 83.6211C117.731 83.6887 117.69 83.7501 117.638 83.8018C117.586 83.8535 117.525 83.8946 117.457 83.9226C117.389 83.9506 117.317 83.965 117.244 83.965H102.856C102.708 83.965 102.566 83.9063 102.461 83.8018C102.356 83.6973 102.298 83.5557 102.298 83.4079C102.298 83.2602 102.356 83.1185 102.461 83.014C102.566 82.9095 102.708 82.8508 102.856 82.8508H117.244C117.552 82.8508 117.802 83.1003 117.802 83.4079ZM98.5111 71.6929C98.5111 71.3853 98.761 71.1359 99.0692 71.1359H121.03C121.178 71.1359 121.32 71.1946 121.424 71.299C121.529 71.4035 121.588 71.5452 121.588 71.6929C121.588 71.8407 121.529 71.9824 121.424 72.0868C121.32 72.1913 121.178 72.25 121.03 72.25H99.0692C98.9212 72.25 98.7792 72.1913 98.6746 72.0868C98.5699 71.9824 98.5111 71.8407 98.5111 71.6929ZM121.588 77.3616C121.588 77.5093 121.529 77.6509 121.424 77.7554C121.32 77.8598 121.178 77.9185 121.03 77.9186H99.0692C98.9212 77.9186 98.7792 77.8599 98.6746 77.7555C98.5699 77.651 98.5111 77.5093 98.5111 77.3616C98.5111 77.2138 98.5699 77.0721 98.6746 76.9677C98.7792 76.8632 98.9212 76.8045 99.0692 76.8045H121.03C121.338 76.8045 121.588 77.0539 121.588 77.3616ZM120.452 49.2081C120.452 55.0558 115.785 59.7793 110.049 59.7793C104.313 59.7793 99.647 55.0558 99.647 49.2081C99.647 43.3601 104.313 38.6367 110.049 38.6367C115.785 38.6367 120.452 43.3601 120.452 49.2081Z" fill="white" stroke="#E1E4E5" stroke-width="4"/>
<path d="M110.239 48.4426C111.488 48.4426 112.501 47.4318 112.501 46.1849C112.501 44.9381 111.488 43.9273 110.239 43.9273C108.989 43.9273 107.977 44.9381 107.977 46.1849C107.977 47.4318 108.989 48.4426 110.239 48.4426Z" fill="white" stroke="#E1E4E5" stroke-width="4"/>
<path d="M106.462 52.0422C106.462 51.8201 106.506 51.6003 106.591 51.3952C106.677 51.19 106.801 51.0037 106.959 50.8467C107.116 50.6897 107.303 50.5652 107.508 50.4803C107.714 50.3953 107.934 50.3516 108.157 50.3517H112.7C113.149 50.3517 113.58 50.5298 113.898 50.8468C114.215 51.1639 114.394 51.5939 114.394 52.0423C114.394 52.4907 114.215 52.9207 113.898 53.2378C113.58 53.5548 113.149 53.7329 112.7 53.7329H108.157C107.934 53.733 107.714 53.6893 107.508 53.6043C107.303 53.5194 107.116 53.3948 106.959 53.2378C106.801 53.0808 106.676 52.8944 106.591 52.6892C106.506 52.4841 106.462 52.2642 106.462 52.0422ZM139.668 100.092H150.894C151.108 100.092 151.467 100.349 151.467 100.919V104.078C151.467 104.648 151.108 104.905 150.894 104.905H139.668C139.454 104.905 139.094 104.648 139.094 104.078V100.919C139.094 100.349 139.454 100.092 139.668 100.092Z" fill="white" stroke="#E1E4E5" stroke-width="4"/>
<path d="M76.2863 52.246C76.1098 52.9495 76.3438 53.681 76.7295 54.2955C77.0022 54.7294 77.3832 54.2502 77.9387 54.1732C78.7985 54.053 79.3427 53.145 79.5288 50.9326C79.6149 49.3165 79.5741 48.5104 79.484 48.3694C79.1631 47.8642 78.3371 47.6952 77.686 47.744" fill="#19283E"/>
<path fill-rule="evenodd" clip-rule="evenodd" d="M77.8466 148.407C77.8466 148.407 77.7943 151.73 79.8492 152.91C81.9037 154.09 85.087 156.283 85.087 156.283L72.9774 156.691L73.3226 148.377L77.8466 148.407Z" fill="#F8AE9D"/>
<path fill-rule="evenodd" clip-rule="evenodd" d="M72.555 152.068L72.358 157.459H75.1706L75.3636 156.764C75.3636 156.764 76.4224 156.721 77.0343 157.021C77.6811 157.338 77.768 157.492 77.768 157.492L86.6898 157.511C86.6898 157.511 87.1301 155.769 84.4105 154.509C81.6909 153.248 79.7105 151.459 79.3344 151.276C78.9557 151.092 78.1913 150.988 77.6531 151.421C77.1146 151.854 76.6887 152.993 75.4691 153.029C73.8989 153.075 72.997 151.157 72.555 152.068ZM69.0774 94.1824C69.0774 94.1824 72.3826 122.173 72.4854 124.119C72.5883 126.065 71.4237 129.422 71.4466 133.062C71.4691 136.702 71.8718 149.529 71.8718 149.529L79.1625 149.648C79.1625 149.648 82.2267 126.468 82.26 122.991C82.2926 119.515 82.5737 94.5168 82.5737 94.5168L69.0774 94.1824Z" fill="#19283E"/>
<path fill-rule="evenodd" clip-rule="evenodd" d="M60.16 147.823L58.7392 156.436L63.977 156.409L64.1429 147.688L60.16 147.823Z" fill="#F8AE9D"/>
<path fill-rule="evenodd" clip-rule="evenodd" d="M59.3288 151.607C59.1562 151.644 59.001 151.738 58.8879 151.873C58.7748 152.009 58.7103 152.178 58.7045 152.354L58.6531 153.91C57.9034 154.742 57.5539 157.164 57.5238 157.38C57.5224 157.391 57.5215 157.401 57.5224 157.413C57.5984 158.593 65.3631 158.572 65.9813 157.451C65.9994 157.415 66.0047 157.374 65.9964 157.335C65.9291 156.92 65.5029 154.486 64.6675 153.832L64.6617 152.294C64.661 152.12 64.6032 151.951 64.4971 151.814C64.3909 151.676 64.2424 151.577 64.0744 151.532L63.0274 151.251C62.2616 150.133 61.2181 150.173 60.324 151.391L59.3288 151.607ZM62.7316 94.4459C62.7316 94.4459 60.3974 113.543 60.4292 117.2C60.461 120.857 61.1474 122.464 60.1703 125.087C59.1927 127.711 58.3593 148.651 58.3593 148.651L65.5864 149.252C65.5864 149.252 70.2035 126.844 70.7055 123.738C71.2076 120.631 77.413 94.1824 77.413 94.1824L62.7316 94.4459Z" fill="#19283E"/>
<path fill-rule="evenodd" clip-rule="evenodd" d="M98.7694 60.1091C98.7694 60.1091 98.1659 56.7527 98.3829 56.0731C98.5683 55.4857 100.32 54.6386 100.32 54.6386C100.32 54.6386 103.366 49.8352 104.033 50.3243C104.575 50.721 102.447 54.2623 102.447 54.2623C102.447 54.2623 104.388 56.2951 104.361 57.2036C104.334 58.1124 101.192 60.9571 101.192 60.9571L98.7694 60.1091ZM67.457 60.8977C67.457 60.8977 69.4637 60.4275 69.5333 57.1462C69.6029 53.8647 69.5541 52.7448 69.5541 52.7448L74.3106 52.6652C74.3106 52.6652 74.3589 56.3222 74.3597 57.645C74.3615 60.5246 76.5042 61.3025 76.5042 61.3025C76.5042 61.3025 76.3262 64.4514 72.3213 64.676C69.1947 64.8519 67.457 60.8977 67.457 60.8977Z" fill="#F8AE9D"/>
<path fill-rule="evenodd" clip-rule="evenodd" d="M69.117 51.086C67.1453 51.0099 67.4671 53.8907 69.5151 53.8866C69.5151 53.8866 71.7161 58.3039 75.1718 58.3154C76.8364 58.3209 77.3801 56.8412 77.879 55.8023C78.3779 54.7634 78.7442 53.2093 78.7745 52.2578C78.8075 51.2435 78.8115 47.9106 78.8115 47.9106L69.0404 47.9063L69.117 51.086Z" fill="#F8AE9D"/>
<path fill-rule="evenodd" clip-rule="evenodd" d="M76.5792 61.1074C76.5792 61.1074 81.7035 62.7039 82.9385 64.6112C86.9165 68.0992 91.8918 72.8892 91.8918 72.8892C91.8918 72.8892 96.6304 61.0194 98.1794 59.666C99.2397 58.7401 101.351 59.8848 101.745 61.0615C102.25 62.573 99.0048 71.4378 97.472 75.6247C97.175 76.436 96.9424 77.0715 96.8139 77.444C95.879 80.1503 93.6049 81.7027 90.8373 79.9825C89.7219 79.2891 86.402 77.017 83.5698 74.9572C83.5256 77.1211 83.451 79.4012 83.38 81.5669V81.5672C83.2078 86.8284 83.0579 91.4135 83.4184 92.0092C85.2049 94.9623 82.8296 96.9893 74.9658 97.734C67.1022 98.4788 60.1258 97.869 61.3918 93.9283C61.6558 93.1069 61.6523 91.3394 61.5209 89.0434C60.7553 89.0025 59.9823 88.952 59.2112 88.8914C55.9295 88.6331 53.5025 87.2257 53.1639 83.5705C52.9267 81.0107 57.8127 68.9939 59.6448 65.0422C60.0736 64.1178 60.7363 63.5423 61.4868 63.2552C61.6616 63.0605 61.8586 62.9239 62.0796 62.8512C63.4255 62.4083 68.2508 60.3851 68.2508 60.3851L73.9911 64.1334L76.5792 61.1074ZM60.989 82.2606L60.976 82.2938L60.9922 82.2958L60.989 82.2606Z" fill="#0D47A1"/>
<path fill-rule="evenodd" clip-rule="evenodd" d="M73.7259 85.4323C73.7259 85.4323 75.4765 85.0808 76.1933 84.5194C76.9097 83.9581 79.0796 83.561 79.0796 83.561L78.3854 85.0203C78.3854 85.0203 83.7038 84.522 83.8298 85.0456C83.9557 85.5693 82.4174 86.1384 82.4174 86.1384C82.4174 86.1384 81.6591 87.5527 80.9247 88.3724C80.2296 89.1483 76.7777 89.0558 75.5675 88.5717C74.5218 88.1536 73.3847 88.3626 73.3847 88.3626L73.7259 85.4323Z" fill="#F8AE9D"/>
<path d="M69.6534 48.0421C69.9414 48.4184 70.4493 48.5014 70.8679 48.5758C71.4304 48.6758 71.7086 48.884 72.0006 49.4434C72.1855 49.8006 72.3704 50.1919 72.7012 50.3854C72.9707 50.5437 72.9626 50.1432 73.0025 49.8335C73.0059 49.8045 73.0115 49.7758 73.0193 49.7476C73.0837 49.5002 73.3469 49.5417 73.4231 49.7856C73.4933 50.0068 73.6433 50.1939 73.8339 50.2983C73.8651 50.3153 73.8981 50.33 73.9313 50.3237C73.9761 50.3173 74.011 50.2749 74.0402 50.2366C74.1009 50.157 74.1613 50.0561 74.2237 49.9491C74.4293 49.5956 74.8222 49.7199 75.0522 50.0578C75.1963 50.2686 75.3676 50.4854 75.6031 50.5342C75.6788 50.5512 75.7744 50.5385 75.8094 50.4641C75.8541 50.3727 75.7839 50.2813 75.7958 50.1876C75.8053 50.1005 75.8423 50.0622 75.8833 49.9878C76.0428 49.7006 76.4123 49.6902 76.6373 49.9295C76.7939 50.0959 76.9572 50.2558 77.127 50.4087C77.1989 50.4727 77.3041 50.5365 77.376 50.4727C77.415 50.4387 77.4248 50.3811 77.4323 50.326C77.4734 50.0558 77.5124 49.7856 77.5531 49.5158C77.5765 49.3647 77.6562 49.1669 77.7926 49.2052C77.8587 49.2243 77.8977 49.2946 77.9347 49.3583C77.9795 49.4391 78.7791 50.36 78.7947 50.2896C78.9195 49.7666 79.1743 49.2903 79.2988 48.7672C80.1046 45.401 76.5296 42.6938 73.799 42.6791C73.1917 42.6748 72.6371 42.6849 72.0472 42.8273C71.4185 42.9804 70.755 43.2235 70.1847 43.5657C69.3848 44.0441 68.7795 44.914 68.9352 45.9517" fill="#19283E"/>
<path d="M71.8738 46.9539C72.2589 47.3934 72.3609 48.0118 72.3967 48.596C72.4496 49.4771 72.3777 50.3923 71.9738 51.1743C71.8588 51.3969 71.7739 52.4986 71.5965 52.4377C71.5399 52.4187 71.5491 51.5644 71.4001 51.1039C71.1698 50.3903 70.109 50.1184 69.6315 50.5693C68.8691 51.2867 69.3163 52.1581 69.5694 52.7004C69.7202 53.0277 69.96 53.395 70.0016 53.7413C70.0524 54.1845 70.0674 55.8 69.7806 56.1768C69.5411 56.4926 69.2863 54.9667 69.069 54.666C67.4628 52.4265 65.9227 46.7238 68.6652 45.4869C69.0823 45.2986 70.3696 45.2014 70.7602 45.4413" fill="#19283E"/>
<path fill-rule="evenodd" clip-rule="evenodd" d="M203.255 131.168C207.825 120.815 211.976 110.182 215.776 99.3144C207.022 107.578 200.215 117.645 201.185 131.168H203.255Z" fill="#0D47A1"/>
<path fill-rule="evenodd" clip-rule="evenodd" d="M200.82 132.249C199.738 114.595 200.197 98.2009 209.261 88.839C208.011 108.221 205.672 121.875 202.71 132.249H200.82Z" fill="#0D47A1"/>
<path fill-rule="evenodd" clip-rule="evenodd" d="M200.404 130.41C195.34 118.074 190.251 114.538 186.044 101.875C199.811 109.025 200.674 114.929 203.376 130.41H200.404Z" fill="#0D47A1"/>
<path fill-rule="evenodd" clip-rule="evenodd" d="M197.678 130.411L188.593 118.074C192.981 119.327 200.315 121.355 200.315 130.411H197.678ZM206.176 130.41H209.206C211.132 126.383 213.847 123.61 220.413 126.971C216.109 120.405 207.277 118.418 206.176 130.41Z" fill="#0D47A1"/>
<path fill-rule="evenodd" clip-rule="evenodd" d="M203.388 130.41H205.908C210.534 123.785 212.522 120.899 217.309 115.241C211.003 117.637 204.53 120.899 203.388 130.41Z" fill="#0D47A1"/>
<path d="M197.014 130.45H209.802C209.97 130.45 210.107 130.586 210.107 130.753C210.107 132.459 210.714 134.072 211.632 135.449C213.863 138.793 214.957 142.103 214.957 145.388C214.957 149.192 213.628 153.025 210.919 156.895C210.862 156.976 210.769 157.025 210.67 157.025H196.147C196.047 157.025 195.954 156.976 195.897 156.895C193.188 153.025 191.859 149.192 191.859 145.388C191.859 141.545 193.357 137.665 196.424 133.736C196.609 133.501 196.71 133.21 196.71 132.911V130.753C196.71 130.586 196.846 130.45 197.014 130.45Z" fill="white" stroke="#E1E4E5" stroke-width="4"/>
</svg>
