<svg width="215" height="145" viewBox="0 0 215 145" fill="none" xmlns="http://www.w3.org/2000/svg">
<path d="M62.6395 137.097C64.1558 135.642 66.5217 135.642 67.9238 137.097C69.3259 138.552 69.2332 140.911 67.7168 142.366C66.2005 143.821 63.8346 143.821 62.4325 142.366C61.0304 140.911 61.1231 138.552 62.6395 137.097Z" fill="#0D47A1"/>
<path d="M203.503 44.3998C200.644 44.344 198.37 42.075 198.423 39.3319C198.477 36.5888 200.839 34.4104 203.698 34.4662C206.557 34.522 208.832 36.791 208.778 39.5341C208.724 42.2772 206.363 44.4556 203.503 44.3998Z" fill="#0D47A1"/>
<path d="M22.4989 103.305C21.4682 104.294 21.4361 105.929 22.4272 106.958C23.4184 107.986 25.0574 108.018 26.0881 107.029C27.1188 106.04 27.1509 104.405 26.1597 103.377C25.1686 102.348 23.5296 102.316 22.4989 103.305Z" fill="#0D47A1"/>
<path d="M174.293 27.2505C175.545 26.5615 176 24.9901 175.31 23.7408C174.619 22.4914 173.044 22.0373 171.792 22.7263C170.54 23.4154 170.085 24.9868 170.775 26.2361C171.466 27.4854 173.041 27.9396 174.293 27.2505Z" fill="#0D47A1"/>
<path d="M203.376 86.4827C204.806 86.5106 205.988 85.3768 206.016 83.9503C206.044 82.5238 204.907 81.3448 203.478 81.3169C202.048 81.289 200.866 82.4227 200.838 83.8492C200.81 85.2757 201.947 86.4547 203.376 86.4827Z" fill="#0D47A1"/>
<path d="M15.3373 47.5292C18.3285 45.8831 22.0908 46.9681 23.7406 49.9526C25.3904 52.9372 24.303 56.6911 21.3118 58.3373C18.3206 59.9834 14.5583 58.8984 12.9085 55.9138C11.2587 52.9293 12.3461 49.1753 15.3373 47.5292Z" fill="#0D47A1"/>
<path d="M40.341 12.8561C41.7583 12.0762 43.5409 12.5902 44.3226 14.0044C45.1043 15.4185 44.5891 17.1972 43.1718 17.9771C41.7545 18.7571 39.9719 18.243 39.1902 16.8289C38.4085 15.4148 38.9237 13.6361 40.341 12.8561Z" fill="#0D47A1"/>
<path d="M175.906 133.082C172.701 132.158 170.854 128.816 171.78 125.618C172.707 122.421 176.056 120.578 179.261 121.502C182.465 122.426 184.313 125.768 183.386 128.966C182.46 132.163 179.111 134.006 175.906 133.082Z" fill="#0D47A1"/>
<path fill-rule="evenodd" clip-rule="evenodd" d="M45.5574 88.823V54.223C45.5574 42.5832 51.7617 31.8224 61.8402 25.966L94.6089 6.93703C99.6141 4.03181 105.301 2.50134 111.092 2.50134C116.882 2.50134 122.569 4.03181 127.575 6.93703L160.344 25.966C170.429 31.8224 176.633 42.5832 176.633 54.223V88.823C176.633 100.463 170.429 111.223 160.351 117.08L127.582 136.109C122.577 139.014 116.89 140.545 111.099 140.545C105.309 140.545 99.6215 139.014 94.6163 136.109L61.8476 117.08C51.7617 111.223 45.5574 100.463 45.5574 88.823Z" fill="#0D47A1"/>
<path d="M111.088 96.9534C110.083 96.9534 109.268 97.7669 109.275 98.7698C109.275 99.2515 109.467 99.7134 109.808 100.054C110.15 100.395 110.613 100.586 111.096 100.586C111.578 100.586 112.041 100.395 112.382 100.054C112.724 99.7134 112.916 99.2515 112.916 98.7698C112.916 98.5308 112.868 98.2941 112.776 98.0734C112.684 97.8527 112.549 97.6522 112.38 97.4835C112.21 97.3148 112.008 97.1811 111.787 97.0902C111.565 96.9992 111.328 96.9527 111.088 96.9534M111.096 71.5228V38.8268V71.5228Z" stroke="white" stroke-width="20" stroke-linecap="round" stroke-linejoin="round"/>
</svg>
