<svg width="240" height="208" viewBox="0 0 240 208" fill="none" xmlns="http://www.w3.org/2000/svg">
<path d="M82.3815 186.116C96.7416 187.977 111.227 188.264 125.678 188.829C132.304 189.089 138.8 188.788 144.915 191.172C150.64 193.406 155.211 197.883 161.119 199.805C165.705 201.296 170.653 201.248 175.444 200.706C195.708 198.412 214.792 187.127 226.582 170.464C237.38 155.202 241.899 135.667 239.087 117.192C237.382 105.987 232.241 95.5342 231.016 84.2438C229.72 72.3082 234.279 61.9066 237.164 50.5592C239.176 42.6462 240.058 34.4465 239.777 26.2867C239.614 21.5858 239.028 16.766 236.81 12.6195C230.786 1.3553 215.575 -0.780662 202.878 0.47903C187.161 2.03749 171.478 6.88145 157.645 14.5166C146.724 20.5453 135.904 29.3244 123.373 31.6972C109.243 34.3723 98.3231 24.6687 85.612 20.2368C57.0119 10.265 22.458 29.7845 9.8269 55.7712C-5.76605 87.8516 -4.03348 140.352 25.0891 164.191C40.96 177.182 61.4187 183.331 81.7385 186.031C81.9528 186.06 82.1672 186.088 82.3815 186.116Z" fill="#EEF3FE"/>
<g clip-path="url(#clip0_5197_9377)">
<path d="M38.8121 208H213.902C213.99 208 214.076 207.965 214.138 207.902C214.201 207.839 214.236 207.754 214.236 207.665C214.236 207.576 214.201 207.491 214.138 207.428C214.076 207.365 213.99 207.33 213.902 207.33H38.8121C38.7234 207.33 38.6383 207.365 38.5755 207.428C38.5128 207.491 38.4775 207.576 38.4775 207.665C38.4775 207.754 38.5128 207.839 38.5755 207.902C38.6383 207.965 38.7234 208 38.8121 208Z" fill="#CCCCCC"/>
<path d="M72.4518 126.814C62.2119 116.717 57.8871 106.184 60.2736 97.155C63.3363 85.5678 76.9423 77.5562 97.6029 75.1746L97.6792 75.8392C77.3062 78.1876 63.9078 86.0193 60.9193 97.3261C58.5967 106.113 62.8587 116.417 72.9204 126.337L72.4518 126.814Z" fill="#90AAD4"/>
<path d="M171.25 162.654C158.469 162.654 144.582 160.751 130.787 157.094C113.729 152.57 98.0875 145.743 85.5552 137.349L85.9263 136.793C98.3983 145.146 113.97 151.943 130.958 156.447C146.31 160.518 161.777 162.404 175.681 161.906L175.706 162.575C174.237 162.627 172.752 162.654 171.25 162.654Z" fill="#F0F0F0"/>
<path d="M200.568 158.447L200.354 157.814C211.784 153.943 218.933 147.708 221.029 139.781C223.692 129.705 217.906 118.012 204.736 106.857C191.5 95.6444 172.413 86.3411 150.99 80.6607L151.161 80.014C172.677 85.7194 191.857 95.0709 205.168 106.346C218.545 117.678 224.407 129.613 221.674 139.952C219.519 148.106 212.221 154.501 200.568 158.447Z" fill="#90AAD4"/>
<path d="M95.6146 162.933C70.5026 151.778 51.1519 137.305 41.1274 122.181L41.6838 121.811C51.639 136.831 70.8881 151.217 95.8852 162.322L95.6146 162.933Z" fill="#90AAD4"/>
<path d="M183.906 182.259C181.316 182.259 178.682 182.201 176.003 182.085L176.032 181.417C196.022 182.284 213.659 179.887 227.041 174.486L227.291 175.107C215.617 179.818 200.739 182.259 183.906 182.259Z" fill="#F0F0F0"/>
<path d="M169.336 75.7745C165.185 74.421 160.916 73.1607 156.647 72.0287C132.079 65.5143 107.929 63.2014 86.8055 65.3412L86.7383 64.6756C107.94 62.5287 132.173 64.8472 156.818 71.382C161.099 72.5173 165.38 73.7811 169.543 75.1385L169.336 75.7745Z" fill="#90AAD4"/>
<path d="M56.7575 127.817C46.5176 117.721 42.1927 107.188 44.5793 98.1584C47.642 86.5712 61.248 78.5597 81.9085 76.178L81.9849 76.8426C61.6119 79.191 48.2134 87.0228 45.2249 98.3295C42.9023 107.117 47.1644 117.42 57.2261 127.341L56.7575 127.817Z" fill="#90AAD4"/>
<path d="M155.555 163.657C142.775 163.657 128.887 161.755 115.093 158.097C98.0342 153.574 82.3932 146.746 69.8608 138.353L70.232 137.797C82.704 146.15 98.2757 152.946 115.264 157.45C130.616 161.521 146.083 163.408 159.987 162.91L160.011 163.578C158.543 163.631 157.058 163.657 155.555 163.657Z" fill="#90AAD4"/>
<path d="M184.874 159.451L184.66 158.817C196.09 154.946 203.239 148.711 205.334 140.785C207.997 130.708 202.212 119.016 189.042 107.86C175.806 96.6477 156.718 87.3444 135.295 81.664L135.466 81.0173C156.983 86.7227 176.163 96.0742 189.473 107.349C202.851 118.681 208.713 130.616 205.98 140.956C203.825 149.109 196.526 155.505 184.874 159.451Z" fill="#90AAD4"/>
<path d="M79.9202 163.936C54.8083 152.781 35.4576 138.309 25.4331 123.185L25.9894 122.815C35.9446 137.834 55.1937 152.221 80.1909 163.325L79.9202 163.936Z" fill="#90AAD4"/>
<path d="M168.212 183.262C165.622 183.262 162.987 183.204 160.309 183.088L160.337 182.42C180.327 183.287 197.965 180.891 211.346 175.49L211.596 176.11C199.923 180.821 185.045 183.262 168.212 183.262Z" fill="#F0F0F0"/>
<path d="M153.642 76.7778C149.491 75.4243 145.222 74.164 140.953 73.032C116.385 66.5176 92.2343 64.2047 71.1111 66.3445L71.0439 65.6789C92.2459 63.532 116.479 65.8505 141.123 72.3853C145.405 73.5206 149.686 74.7844 153.848 76.1418L153.642 76.7778Z" fill="#90AAD4"/>
<path d="M198.722 159.367C198.635 159.757 198.453 160.12 198.191 160.422C197.93 160.725 197.598 160.957 197.224 161.099C197.032 161.171 197.17 161.459 197.36 161.387C197.772 161.228 198.138 160.971 198.428 160.637C198.718 160.304 198.921 159.904 199.021 159.474C199.034 159.434 199.031 159.391 199.013 159.353C198.995 159.315 198.964 159.286 198.925 159.27C198.885 159.256 198.842 159.259 198.804 159.277C198.766 159.295 198.736 159.327 198.722 159.367V159.367Z" fill="white"/>
<path d="M82.1077 102.65C83.583 102.65 84.779 101.452 84.779 99.9742C84.779 98.4965 83.583 97.2986 82.1077 97.2986C80.6323 97.2986 79.4363 98.4965 79.4363 99.9742C79.4363 101.452 80.6323 102.65 82.1077 102.65Z" fill="#FD6584"/>
<path d="M184.36 129.048C184.597 127.589 183.608 126.215 182.151 125.978C180.695 125.741 179.323 126.732 179.087 128.191C178.85 129.649 179.839 131.024 181.296 131.26C182.752 131.497 184.124 130.506 184.36 129.048Z" fill="#E6E6E6"/>
<path d="M81.999 72.5396C83.4744 72.5396 84.6704 71.3417 84.6704 69.864C84.6704 68.3863 83.4744 67.1884 81.999 67.1884C80.5236 67.1884 79.3276 68.3863 79.3276 69.864C79.3276 71.3417 80.5236 72.5396 81.999 72.5396Z" fill="#E6E6E6"/>
<path d="M161.708 101.349H160.945V80.4277C160.945 77.2163 159.671 74.1363 157.404 71.8655C155.137 69.5946 152.062 68.3189 148.856 68.3188H104.601C103.013 68.3188 101.441 68.632 99.9744 69.2406C98.5076 69.8491 97.1748 70.741 96.0522 71.8654C94.9296 72.9898 94.0391 74.3247 93.4315 75.7938C92.8239 77.2629 92.5112 78.8375 92.5112 80.4277V195.205C92.5112 198.417 93.7849 201.497 96.0522 203.768C98.3194 206.039 101.394 207.314 104.601 207.314H148.856C152.062 207.314 155.137 206.039 157.404 203.768C159.671 201.497 160.945 198.417 160.945 195.205V116.242H161.708V101.349Z" fill="#3F3D56"/>
<path d="M158.371 80.5116V195.121C158.371 196.309 158.138 197.484 157.684 198.581C157.231 199.678 156.566 200.675 155.728 201.514C154.89 202.354 153.895 203.02 152.8 203.475C151.705 203.929 150.531 204.163 149.346 204.163H104.875C102.481 204.163 100.184 203.211 98.4915 201.515C96.7985 199.82 95.8473 197.52 95.8472 195.122V80.5116C95.8471 79.3242 96.0805 78.1485 96.5341 77.0515C96.9877 75.9545 97.6526 74.9577 98.4908 74.1181C99.329 73.2784 100.324 72.6124 101.419 72.1579C102.515 71.7035 103.688 71.4695 104.874 71.4695H110.272C110.006 72.1218 109.904 72.8295 109.976 73.5303C110.048 74.2312 110.29 74.9036 110.683 75.4883C111.075 76.0731 111.605 76.5523 112.226 76.8836C112.846 77.2149 113.539 77.3882 114.242 77.3883H139.596C140.299 77.3878 140.992 77.2142 141.612 76.8827C142.233 76.5513 142.762 76.0721 143.155 75.4875C143.547 74.9029 143.789 74.2307 143.861 73.53C143.933 72.8294 143.832 72.1218 143.567 71.4695H149.343C150.529 71.4694 151.703 71.7032 152.798 72.1576C153.893 72.6119 154.888 73.2779 155.727 74.1174C156.565 74.957 157.23 75.9537 157.684 77.0506C158.137 78.1476 158.371 79.3233 158.371 80.5107L158.371 80.5116Z" fill="#F2F2F2"/>
<path d="M113.012 82.4099H99.2168V83.0284H113.012V82.4099Z" fill="white"/>
<path d="M134.007 82.4099H120.211V83.0284H134.007V82.4099Z" fill="white"/>
<path d="M148.736 156.464H103.767C103.615 156.464 103.465 156.434 103.325 156.376C103.185 156.318 103.058 156.233 102.951 156.126C102.844 156.018 102.759 155.891 102.701 155.751C102.643 155.611 102.613 155.46 102.613 155.309C102.613 155.157 102.643 155.007 102.701 154.866C102.759 154.726 102.844 154.599 102.951 154.491C103.058 154.384 103.185 154.299 103.325 154.241C103.465 154.183 103.615 154.153 103.767 154.153H148.736C148.888 154.153 149.038 154.183 149.178 154.241C149.318 154.299 149.445 154.384 149.552 154.491C149.659 154.599 149.744 154.726 149.802 154.866C149.86 155.007 149.89 155.157 149.89 155.309C149.89 155.46 149.86 155.611 149.802 155.751C149.744 155.891 149.659 156.018 149.552 156.126C149.445 156.233 149.318 156.318 149.178 156.376C149.038 156.434 148.888 156.464 148.736 156.464Z" fill="#CCCCCC"/>
<path d="M148.736 164.504H103.767C103.461 164.504 103.167 164.383 102.951 164.166C102.735 163.949 102.613 163.655 102.613 163.349C102.613 163.042 102.735 162.748 102.951 162.532C103.167 162.315 103.461 162.193 103.767 162.193H148.736C149.042 162.193 149.335 162.315 149.552 162.532C149.768 162.748 149.89 163.042 149.89 163.349C149.89 163.655 149.768 163.949 149.552 164.166C149.335 164.383 149.042 164.504 148.736 164.504Z" fill="#CCCCCC"/>
<path d="M148.736 172.545H103.767C103.461 172.545 103.167 172.423 102.951 172.206C102.735 171.989 102.613 171.696 102.613 171.389C102.613 171.083 102.735 170.789 102.951 170.572C103.167 170.355 103.461 170.233 103.767 170.233H148.736C149.042 170.233 149.335 170.355 149.552 170.572C149.768 170.789 149.89 171.083 149.89 171.389C149.89 171.696 149.768 171.989 149.552 172.206C149.335 172.423 149.042 172.545 148.736 172.545Z" fill="#CCCCCC"/>
<path d="M155.001 82.4099H141.206V83.0284H155.001V82.4099Z" fill="white"/>
<path d="M113.012 193.426H99.2168V194.045H113.012V193.426Z" fill="white"/>
<path d="M134.007 193.426H120.211V194.045H134.007V193.426Z" fill="white"/>
<path d="M155.001 193.426H141.206V194.045H155.001V193.426Z" fill="white"/>
<path d="M127.109 140.633C138.658 140.633 148.02 131.256 148.02 119.689C148.02 108.122 138.658 98.7446 127.109 98.7446C115.56 98.7446 106.198 108.122 106.198 119.689C106.198 131.256 115.56 140.633 127.109 140.633Z" fill="#D1D3D4"/>
<path d="M127.109 139.725C137.645 139.725 146.186 131.17 146.186 120.617C146.186 110.064 137.645 101.51 127.109 101.51C116.573 101.51 108.032 110.064 108.032 120.617C108.032 131.17 116.573 139.725 127.109 139.725Z" fill="#0D47A1"/>
<path d="M125.444 128.106C125.402 128.106 125.361 128.105 125.319 128.103C124.953 128.085 124.596 127.989 124.27 127.819C123.945 127.65 123.661 127.413 123.436 127.123L120.429 123.251C120.016 122.718 119.831 122.042 119.914 121.372C119.998 120.702 120.343 120.092 120.875 119.677L120.983 119.593C121.515 119.179 122.19 118.993 122.86 119.077C123.529 119.161 124.137 119.506 124.552 120.039C124.687 120.213 124.858 120.356 125.053 120.457C125.248 120.559 125.463 120.617 125.683 120.628C125.903 120.64 126.123 120.605 126.327 120.522C126.532 120.44 126.716 120.314 126.866 120.152L132.97 113.698C133.435 113.208 134.074 112.923 134.748 112.905C135.422 112.886 136.075 113.137 136.565 113.6L136.665 113.694C137.154 114.159 137.439 114.799 137.457 115.475C137.475 116.15 137.225 116.804 136.762 117.295L127.289 127.311C127.052 127.562 126.766 127.762 126.448 127.899C126.131 128.036 125.789 128.106 125.444 128.106Z" fill="white"/>
<path d="M93.698 90.3771H91.228V103.674H93.698V90.3771Z" fill="#3F3D56"/>
<path d="M93.698 105.22H91.228V112.951H93.698V105.22Z" fill="#3F3D56"/>
<path d="M93.698 114.498H91.228V122.228H93.698V114.498Z" fill="#3F3D56"/>
<path d="M115.002 74.6059C115.684 74.6059 116.237 74.0521 116.237 73.3689C116.237 72.6858 115.684 72.132 115.002 72.132C114.32 72.132 113.767 72.6858 113.767 73.3689C113.767 74.0521 114.32 74.6059 115.002 74.6059Z" fill="white"/>
<path opacity="0.16" d="M127.109 137.078C122.283 137.077 117.636 135.244 114.105 131.948C110.575 128.651 108.423 124.137 108.084 119.315C108.053 119.76 108.032 120.207 108.032 120.66C108.032 125.728 110.042 130.588 113.62 134.171C117.197 137.755 122.05 139.768 127.109 139.768C132.169 139.768 137.021 137.755 140.599 134.171C144.176 130.588 146.186 125.728 146.186 120.66C146.186 120.207 146.165 119.76 146.134 119.315C145.795 124.137 143.643 128.651 140.113 131.948C136.582 135.244 131.935 137.077 127.109 137.078Z" fill="#231F20"/>
<path d="M154.004 136.036L169.133 136.654L170.985 126.449L158.018 122.429L154.004 136.036Z" fill="#FFB8B8"/>
<path d="M159.722 113.933L159.869 109.112L152.537 107.27L139.336 103.413C139.161 102.882 138.83 102.417 138.385 102.079C137.941 101.741 137.405 101.546 136.847 101.52C136.29 101.494 135.737 101.638 135.264 101.933C134.79 102.228 134.416 102.661 134.193 103.173C133.97 103.685 133.907 104.253 134.013 104.802C134.119 105.351 134.389 105.854 134.787 106.246C135.185 106.638 135.692 106.899 136.242 106.996C136.792 107.093 137.358 107.02 137.865 106.787L150.699 112.071L159.722 113.933Z" fill="#FFB8B8"/>
<path d="M154.998 113.899L159.123 108.007L159.226 108.02C159.29 108.029 165.759 108.896 169.999 110.161C170.476 110.287 170.919 110.516 171.298 110.832C171.677 111.147 171.983 111.542 172.194 111.988C172.497 112.612 172.612 113.311 172.524 113.999C172.436 114.687 172.15 115.334 171.7 115.861C171.242 116.431 170.63 116.857 169.936 117.087C169.243 117.318 168.499 117.344 167.791 117.162L154.998 113.899Z" fill="#0D47A1"/>
<path d="M157.611 203.23L153.415 203.23L151.419 187.021L157.611 187.021L157.611 203.23Z" fill="#FFB8B8"/>
<path d="M190.279 201.411L186.13 202.039L181.737 186.311L187.176 185.384L190.279 201.411Z" fill="#FFB8B8"/>
<path d="M169.75 133.561L155.239 131.088L154.723 132.153C151.946 137.894 150.306 144.119 149.895 150.485C149.544 155.858 149.338 161.534 149.331 167.484C149.321 176.702 149.79 185.255 150.533 193.038L158.497 192.988C158.267 184.725 158.58 176.455 159.435 168.233C160.044 162.37 160.892 156.894 161.872 151.84C163.69 159.259 166.256 166.473 169.53 173.373C172.313 179.268 178.038 186.082 180.821 191.977C183.673 191.634 186.525 191.292 189.376 190.949C187.129 184.996 183.12 176.303 180.872 170.35C177.659 161.838 176.207 156.067 172.994 147.555C173.177 145.955 173.213 144.342 173.101 142.735C172.951 140.057 172.395 136.844 170.769 134.702L169.75 133.561Z" fill="#2F2E41"/>
<path d="M171.992 129.125C172.717 130.481 170.996 133.292 169.75 133.561L155.4 128.916L162.626 107.945L166.261 108.607L172.075 109.588L174.137 111.465C174.657 111.939 175.028 112.553 175.205 113.233C175.383 113.914 175.359 114.631 175.137 115.298L171.992 129.125Z" fill="#0D47A1"/>
<path d="M162.114 121.02L158.054 118.426L152.721 123.791L142.653 133.172C142.108 133.05 141.539 133.097 141.022 133.307C140.505 133.516 140.063 133.878 139.755 134.344C139.447 134.81 139.288 135.359 139.298 135.918C139.309 136.476 139.488 137.019 139.813 137.473C140.138 137.928 140.593 138.273 141.118 138.462C141.643 138.652 142.213 138.678 142.753 138.536C143.293 138.394 143.777 138.092 144.141 137.668C144.505 137.245 144.733 136.721 144.793 136.165L155.896 127.83L162.114 121.02Z" fill="#FFB8B8"/>
<path d="M159.666 125.068L156.725 118.502L156.789 118.42C156.83 118.369 160.885 113.248 164.141 110.248C164.494 109.902 164.917 109.638 165.382 109.474C165.847 109.309 166.342 109.248 166.833 109.295C167.523 109.354 168.18 109.613 168.725 110.041C169.27 110.469 169.679 111.047 169.901 111.704C170.155 112.389 170.206 113.134 170.049 113.848C169.892 114.563 169.533 115.217 169.015 115.732L159.666 125.068Z" fill="#0D47A1"/>
<path d="M168.813 106.543C172.337 106.543 175.195 103.682 175.195 100.151C175.195 96.6209 172.337 93.759 168.813 93.759C165.288 93.759 162.431 96.6209 162.431 100.151C162.431 103.682 165.288 106.543 168.813 106.543Z" fill="#FFB8B8"/>
<path d="M173.967 109.414L173.943 109.408L164.668 107.084C164.347 107.004 164.049 106.849 163.798 106.632C163.547 106.415 163.351 106.143 163.224 105.836C163.097 105.53 163.044 105.198 163.069 104.867C163.093 104.536 163.195 104.215 163.365 103.931L163.672 103.42C163.971 102.922 164.141 102.356 164.165 101.775C164.19 101.194 164.07 100.616 163.814 100.094C163.375 99.2407 162.619 98.5942 161.709 98.293L161.678 98.2782L161.484 98.1568C161.292 98.0663 161.122 97.9367 160.983 97.7764C160.845 97.6161 160.741 97.4285 160.679 97.2258C160.615 97.0157 160.595 96.7944 160.622 96.5762C160.648 96.3581 160.72 96.1479 160.833 95.9594C161.651 94.5877 162.877 93.5057 164.338 92.8641C166.184 92.068 168.264 92.0055 170.154 92.6891C170.28 92.5732 170.433 92.4904 170.599 92.4482C170.765 92.4061 170.938 92.4057 171.104 92.4474C175.907 93.6124 176.303 96.8415 175.354 102.025L176.477 106.562C176.556 106.882 176.565 107.216 176.503 107.54C176.44 107.864 176.308 108.171 176.115 108.438C175.923 108.706 175.674 108.929 175.387 109.091C175.1 109.252 174.781 109.35 174.452 109.376L173.967 109.414ZM170.103 92.7402L170.103 92.7408L170.103 92.7402ZM170.219 92.7118L170.22 92.7121L170.219 92.7118Z" fill="#2F2E41"/>
<path d="M158.633 207.432H156.239L155.811 205.168L154.716 207.432H148.366C148.061 207.432 147.765 207.334 147.52 207.154C147.274 206.973 147.093 206.719 147.003 206.427C146.912 206.136 146.917 205.824 147.016 205.536C147.115 205.247 147.304 204.999 147.554 204.825L152.626 201.317V199.028L157.96 199.347L158.633 207.432Z" fill="#2F2E41"/>
<path d="M190.947 207.432H188.552L188.125 205.168L187.03 207.432H180.679C180.375 207.432 180.078 207.334 179.833 207.154C179.588 206.973 179.407 206.719 179.316 206.427C179.226 206.136 179.23 205.824 179.329 205.536C179.429 205.247 179.617 204.999 179.868 204.825L184.94 201.317V199.028L190.274 199.347L190.947 207.432Z" fill="#2F2E41"/>
</g>
<defs>
<clipPath id="clip0_5197_9377">
<rect width="201.858" height="144.102" fill="white" transform="translate(25.4331 63.8979)"/>
</clipPath>
</defs>
</svg>
