<svg width="267" height="165" viewBox="0 0 267 165" fill="none" xmlns="http://www.w3.org/2000/svg">
<path d="M12.339 154.132C4.75537 139.344 -6.12509 121.475 5.62156 107.006C10.1293 101.457 20.7888 91.8898 22.0969 84.8541C25.4556 66.8444 12.6837 49.0293 31.0417 35.834C48.454 23.3112 61.6413 38.666 79.9993 22.6386C97.5442 7.32812 125.165 -4.12378 152.972 2.37212C167.096 5.67317 179.912 26.8866 192.048 26.8866C241.951 26.8866 231.963 65.2248 251.833 77.3228C275.839 91.9341 265.488 131.06 255.633 153.813C255.642 153.796 12.339 154.132 12.339 154.132Z" fill="#E3EAFF"/>
<path d="M79.6546 86.518C79.6369 86.518 79.6281 86.518 79.6104 86.5091C79.4955 86.4826 79.4248 86.3764 79.4513 86.2613C80.4236 81.5708 78.8061 77.9866 77.2328 74.5174C76.4373 72.7474 75.6065 70.9243 75.1645 69.0038C74.6696 66.8533 74.7226 64.7912 75.3236 62.7203C75.4032 62.4548 75.4827 62.1805 75.5623 61.8973C76.5964 58.375 78.0018 53.5429 77.1974 50.3923C76.3136 46.9319 75.9689 44.2503 77.1444 42.4007C77.2063 42.3033 77.3389 42.2768 77.4361 42.3387C77.5333 42.4007 77.5598 42.5334 77.498 42.6308C76.4108 44.3477 76.7555 46.9408 77.604 50.2949C78.4349 53.5606 77.003 58.4546 75.96 62.0212C75.8805 62.3044 75.8009 62.5787 75.7214 62.8442C74.4309 67.3135 75.9777 70.7296 77.6129 74.3492C79.2127 77.8804 80.8655 81.5354 79.8579 86.3587C79.8402 86.4472 79.7518 86.518 79.6546 86.518Z" fill="#CFDAFF"/>
<path d="M77.1179 40.9934L76.3401 42.7811C76.2782 42.9139 76.3666 43.0732 76.4903 43.0732H77.7366C77.8603 43.0732 77.9487 42.9139 77.8868 42.7811L77.1179 40.9934Z" fill="#CFDAFF"/>
<path d="M77.277 41.7457C81.1382 41.7457 84.2684 37.5893 84.2684 32.4621C84.2684 27.3349 81.1382 23.1785 77.277 23.1785C73.4157 23.1785 70.2856 27.3349 70.2856 32.4621C70.2856 37.5893 73.4157 41.7457 77.277 41.7457Z" fill="#CFDAFF"/>
<path d="M200.824 82.7123C200.807 82.7123 200.798 82.7123 200.78 82.7034C200.665 82.6769 200.595 82.5707 200.621 82.4556C201.593 77.7651 199.976 74.1809 198.403 70.7117C197.607 68.9417 196.776 67.1186 196.334 65.1981C195.839 63.0476 195.892 60.9855 196.493 58.9146C196.573 58.6491 196.653 58.3748 196.732 58.0916C197.766 54.5693 199.172 49.7372 198.367 46.5866C197.483 43.1262 197.139 40.4447 198.314 38.595C198.376 38.4977 198.509 38.4711 198.606 38.5331C198.703 38.595 198.73 38.7278 198.668 38.8251C197.581 40.542 197.925 43.1351 198.774 46.4892C199.605 49.7549 198.173 54.6489 197.13 58.2155C197.05 58.4987 196.971 58.773 196.891 59.0385C195.601 63.5078 197.148 66.9239 198.783 70.5435C200.383 74.0747 202.035 77.7297 201.028 82.553C201.01 82.6415 200.922 82.7123 200.824 82.7123Z" fill="#CFDAFF"/>
<path d="M198.279 37.188L197.501 38.9757C197.439 39.1084 197.528 39.2677 197.651 39.2677H198.898C199.021 39.2677 199.11 39.1084 199.048 38.9757L198.279 37.188Z" fill="#CFDAFF"/>
<path d="M198.447 37.9313C202.308 37.9313 205.438 33.7749 205.438 28.6477C205.438 23.5204 202.308 19.364 198.447 19.364C194.586 19.364 191.456 23.5204 191.456 28.6477C191.456 33.7749 194.586 37.9313 198.447 37.9313Z" fill="#CFDAFF"/>
<path d="M102.308 99.9169C102.291 99.9169 102.282 99.9169 102.264 99.908C102.149 99.8815 102.078 99.7753 102.105 99.6602C103.077 94.9697 101.46 91.3855 99.8864 87.9163C99.0909 86.1463 98.2601 84.3232 97.8182 82.4027C97.3232 80.2522 97.3762 78.1901 97.9772 76.1192C98.0568 75.8537 98.1363 75.5794 98.2159 75.2962C99.25 71.7739 100.655 66.9418 99.8511 63.7912C98.9672 60.3308 98.6225 57.6493 99.798 55.7996C99.8599 55.7023 99.9925 55.6757 100.09 55.7377C100.187 55.7996 100.213 55.9324 100.152 56.0297C99.0644 57.7466 99.4091 60.3397 100.258 63.6938C101.088 66.9595 99.6566 71.8535 98.6136 75.4201C98.5341 75.7033 98.4545 75.9776 98.375 76.2431C97.0845 80.7124 98.6313 84.1285 100.266 87.7481C101.866 91.2793 103.519 94.9343 102.511 99.7576C102.494 99.8461 102.405 99.9169 102.308 99.9169Z" fill="#CFDAFF"/>
<path d="M99.7627 54.3923L98.9849 56.18C98.923 56.3128 99.0114 56.4721 99.1351 56.4721H100.381C100.505 56.4721 100.594 56.3128 100.532 56.18L99.7627 54.3923Z" fill="#CFDAFF"/>
<path d="M99.9306 55.1447C103.792 55.1447 106.922 50.9883 106.922 45.861C106.922 40.7338 103.792 36.5774 99.9306 36.5774C96.0693 36.5774 92.9392 40.7338 92.9392 45.861C92.9392 50.9883 96.0693 55.1447 99.9306 55.1447Z" fill="#CFDAFF"/>
<path d="M139.811 68.2516C139.793 68.2516 139.784 68.2516 139.767 68.2428C139.652 68.2162 139.581 68.11 139.608 67.995C140.58 63.3045 138.962 59.7202 137.389 56.251C136.594 54.481 135.763 52.6579 135.321 50.7374C134.826 48.5869 134.879 46.5248 135.48 44.4539C135.559 44.1884 135.639 43.9141 135.719 43.6309C136.753 40.1086 138.158 35.2765 137.354 32.1259C136.47 28.6655 136.125 25.984 137.301 24.1343C137.363 24.037 137.495 24.0104 137.592 24.0724C137.69 24.1343 137.716 24.2671 137.654 24.3644C136.567 26.0813 136.912 28.6744 137.76 32.0285C138.591 35.2942 137.159 40.1882 136.116 43.7548C136.037 44.038 135.957 44.3123 135.878 44.5778C134.587 49.0471 136.134 52.4632 137.769 56.0829C139.369 59.614 141.022 63.269 140.014 68.0923C139.996 68.1808 139.908 68.2516 139.811 68.2516Z" fill="#CFDAFF"/>
<path d="M137.274 22.7183L136.496 24.506C136.434 24.6387 136.523 24.798 136.647 24.798H137.893C138.017 24.798 138.105 24.6387 138.043 24.506L137.274 22.7183Z" fill="#CFDAFF"/>
<path d="M137.433 23.4706C141.295 23.4706 144.425 19.3142 144.425 14.187C144.425 9.05975 141.295 4.90332 137.433 4.90332C133.572 4.90332 130.442 9.05975 130.442 14.187C130.442 19.3142 133.572 23.4706 137.433 23.4706Z" fill="#CFDAFF"/>
<path d="M257.728 132.193C257.71 132.193 257.702 132.193 257.684 132.184C257.569 132.157 257.498 132.051 257.525 131.936C258.497 127.246 256.88 123.661 255.306 120.192C254.511 118.422 253.68 116.599 253.238 114.679C252.743 112.528 252.796 110.466 253.397 108.395C253.477 108.13 253.556 107.855 253.636 107.572C254.67 104.05 256.075 99.2177 255.28 96.0671C254.396 92.6067 254.051 89.9252 255.227 88.0755C255.289 87.9782 255.421 87.9516 255.518 88.0135C255.616 88.0755 255.642 88.2083 255.58 88.3056C254.493 90.0225 254.838 92.6156 255.686 95.9697C256.517 99.2354 255.085 104.129 254.042 107.696C253.963 107.979 253.883 108.254 253.804 108.519C252.513 112.988 254.06 116.404 255.695 120.024C257.295 123.555 258.948 127.21 257.94 132.033C257.914 132.131 257.825 132.193 257.728 132.193Z" fill="#CFDAFF"/>
<path d="M255.191 86.6682L254.414 88.4559C254.352 88.5887 254.44 88.748 254.564 88.748H255.81C255.934 88.748 256.022 88.5887 255.96 88.4559L255.191 86.6682Z" fill="#CFDAFF"/>
<path d="M255.359 87.4206C259.221 87.4206 262.351 83.2641 262.351 78.1369C262.351 73.0097 259.221 68.8533 255.359 68.8533C251.498 68.8533 248.368 73.0097 248.368 78.1369C248.368 83.2641 251.498 87.4206 255.359 87.4206Z" fill="#CFDAFF"/>
<path d="M14.0714 150.309C14.0537 150.309 14.0449 150.309 14.0272 150.3C13.9123 150.273 13.8416 150.167 13.8681 150.052C14.8403 145.362 13.2229 141.777 11.6496 138.308C10.8541 136.538 10.0232 134.715 9.5813 132.795C9.08634 130.644 9.13937 128.582 9.7404 126.511C9.81995 126.246 9.8995 125.971 9.97904 125.688C11.0132 122.166 12.4185 117.334 11.6142 114.183C10.7303 110.723 10.3856 108.041 11.5612 106.191C11.623 106.094 11.7556 106.068 11.8529 106.13C11.9501 106.191 11.9766 106.324 11.9147 106.422C10.8276 108.138 11.1723 110.732 12.0208 114.086C12.8516 117.351 11.4198 122.245 10.3768 125.812C10.2972 126.095 10.2177 126.369 10.1381 126.635C8.84769 131.104 10.3945 134.52 12.0296 138.14C13.6294 141.671 15.2823 145.326 14.2747 150.149C14.257 150.247 14.1686 150.309 14.0714 150.309Z" fill="#CFDAFF"/>
<path d="M11.5347 104.784L10.7569 106.572C10.695 106.705 10.7834 106.864 10.9071 106.864H12.1534C12.2771 106.864 12.3655 106.705 12.3036 106.572L11.5347 104.784Z" fill="#CFDAFF"/>
<path d="M11.6938 105.537C15.555 105.537 18.6852 101.38 18.6852 96.2529C18.6852 91.1257 15.555 86.9692 11.6938 86.9692C7.8325 86.9692 4.70233 91.1257 4.70233 96.2529C4.70233 101.38 7.8325 105.537 11.6938 105.537Z" fill="#CFDAFF"/>
<path d="M132.731 164.982C202.673 164.982 259.372 160.235 259.372 154.38C259.372 148.524 202.673 143.777 132.731 143.777C62.7892 143.777 6.09003 148.524 6.09003 154.38C6.09003 160.235 62.7892 164.982 132.731 164.982Z" fill="#B1C1F2"/>
<path d="M90.2699 108.696L88.0514 108.05L86.425 109.696C86.2659 109.855 85.9919 109.749 85.9831 109.528L85.9124 107.218L83.8441 106.183C83.6408 106.085 83.6585 105.784 83.8707 105.713L86.045 104.935L86.3897 102.643C86.425 102.421 86.7079 102.342 86.8405 102.527L88.2547 104.359L90.535 103.979C90.756 103.943 90.9151 104.191 90.7914 104.377L89.4921 106.289L90.5527 108.342C90.6676 108.528 90.482 108.758 90.2699 108.696Z" fill="#CFDAFF"/>
<path d="M28.284 48.3568L26.1185 47.5514L24.3773 49.0825C24.2094 49.2329 23.9442 49.1002 23.9531 48.8789L24.0503 46.5691L22.0616 45.3832C21.8671 45.2682 21.9025 44.9761 22.1234 44.9142L24.3508 44.2947L24.8634 42.0379C24.9165 41.8167 25.1993 41.7636 25.3231 41.9494L26.6047 43.8787L28.9027 43.6663C29.1237 43.6486 29.2651 43.9053 29.1237 44.0823L27.683 45.8965L28.5934 48.0205C28.6906 48.2152 28.4962 48.4276 28.284 48.3568Z" fill="#CFDAFF"/>
<path d="M154.474 134.449L152.857 132.794L150.638 133.441C150.426 133.502 150.241 133.272 150.338 133.078L151.407 131.024L150.117 129.104C149.993 128.918 150.152 128.67 150.373 128.706L152.654 129.086L154.068 127.254C154.209 127.077 154.492 127.148 154.518 127.369L154.854 129.662L157.029 130.449C157.241 130.529 157.258 130.821 157.055 130.918L154.987 131.945L154.916 134.255C154.907 134.503 154.633 134.609 154.474 134.449Z" fill="#CFDAFF"/>
<path d="M231.742 49.0824L230.125 47.4274L227.906 48.0735C227.694 48.1354 227.508 47.9053 227.606 47.7106L228.675 45.6574L227.376 43.7458C227.252 43.56 227.411 43.3122 227.632 43.3476L229.913 43.7281L231.327 41.8962C231.468 41.7192 231.751 41.79 231.778 42.0112L232.113 44.3034L234.288 45.091C234.5 45.1707 234.518 45.4627 234.314 45.5601L232.246 46.5867L232.175 48.8965C232.175 49.1355 231.901 49.2417 231.742 49.0824Z" fill="#CFDAFF"/>
<path d="M163.702 35.0374L161.413 34.71L160.043 36.5685C159.91 36.7455 159.627 36.6835 159.583 36.4623L159.185 34.179L156.993 33.4444C156.781 33.3736 156.755 33.0816 156.958 32.9754L159 31.8957L159.017 29.577C159.017 29.3557 159.291 29.2407 159.45 29.3911L161.112 31.0018L163.313 30.3027C163.525 30.2319 163.72 30.4531 163.622 30.6567L162.606 32.7364L163.949 34.6215C164.073 34.825 163.923 35.0728 163.702 35.0374Z" fill="#CFDAFF"/>
<path d="M158.319 23.0723L156.834 22.8599L155.941 24.0635C155.853 24.1786 155.667 24.1343 155.641 23.9927L155.385 22.5148L153.962 22.0369C153.82 21.9926 153.811 21.7979 153.935 21.736L155.261 21.0368L155.27 19.5412C155.27 19.3996 155.447 19.3199 155.553 19.4261L156.631 20.4704L158.063 20.0191C158.204 19.9748 158.328 20.1164 158.257 20.2492L157.594 21.5944L158.46 22.8157C158.558 22.9307 158.46 23.09 158.319 23.0723Z" fill="#CFDAFF"/>
<path d="M164.789 116.723L163.808 115.59L162.35 115.926C162.208 115.962 162.093 115.803 162.173 115.679L162.942 114.395L162.173 113.103C162.102 112.979 162.208 112.82 162.35 112.856L163.808 113.192L164.798 112.059C164.895 111.953 165.072 112.006 165.09 112.156L165.222 113.652L166.601 114.245C166.734 114.298 166.734 114.493 166.601 114.546L165.222 115.139L165.09 116.634C165.063 116.776 164.886 116.838 164.789 116.723Z" fill="#CFDAFF"/>
<path d="M239.839 126.529L237.549 126.201L236.179 128.06C236.047 128.237 235.764 128.175 235.72 127.954L235.322 125.67L233.13 124.936C232.918 124.865 232.891 124.573 233.095 124.467L235.136 123.387L235.154 121.068C235.154 120.847 235.428 120.732 235.587 120.883L237.249 122.493L239.45 121.794C239.662 121.723 239.856 121.953 239.759 122.148L238.743 124.228L240.086 126.113C240.21 126.308 240.06 126.555 239.839 126.529Z" fill="#CFDAFF"/>
<path d="M26.7814 149.079C29.0795 152.256 34.7274 150.309 34.5418 154.601C25.9506 154.548 22.3798 154.601 22.3798 154.601C22.3886 153.61 23.0957 149.928 23.2901 149.017L26.7814 149.079Z" fill="#070635"/>
<path d="M53.1473 149.078C55.4454 152.256 61.0933 150.309 60.9077 154.601C52.3165 154.548 48.7456 154.601 48.7456 154.601C48.7545 153.61 48.9754 150.733 49.1699 149.822L53.1473 149.078Z" fill="#070635"/>
<path d="M48.5954 72.5083C48.5954 72.5083 55.578 76.4023 59.0339 79.7211C58.6096 81.5442 60.2183 84.9603 60.6691 86.1019C55.7017 86.1019 45.988 81.7743 45.988 81.7743L48.5954 72.5083Z" fill="#C4204A"/>
<path d="M46.6685 97.8105L35.0721 103.917C35.0721 103.917 44.5384 121.794 49.9742 127.325C50.9199 128.29 56.3469 126.794 56.7358 125.635C58.15 121.431 46.6685 97.8105 46.6685 97.8105Z" fill="#2C2858"/>
<path d="M47.632 150.698L54.8355 150.238C54.7913 137.963 57.4341 132.918 56.8507 124.148C55.7636 121.971 52.7142 120.697 50.9376 122.307C46.2266 125.723 47.4463 146.928 47.632 150.698Z" fill="#2C2858"/>
<path d="M43.849 101.094L29.6363 96.6953C29.6363 96.6953 27.241 116.369 27.8421 125.414C27.9305 126.759 34.9837 127.838 35.5494 126.759L43.849 101.094Z" fill="#494C7F"/>
<path d="M22.5654 149.928H28.779C32.2172 139.299 35.5494 126.759 35.5494 126.759C35.7969 124.794 34.4534 122.599 33.0127 122.068C23.9619 119.351 23.1222 147.149 22.5654 149.928Z" fill="#494C7F"/>
<path d="M38.9347 65.9593L41.5244 65.9682L42.1166 72.0924L39.0849 73.6942L35.8588 72.1101V65.092L38.9347 65.9593Z" fill="#DE623C"/>
<path d="M39.4738 66.2602C37.2641 67.1187 35.3196 64.5168 35.3196 64.5168C33.8612 64.6495 33.7375 63.1981 33.7375 63.1981C33.0216 63.1627 31.9609 62.6848 31.9167 61.3485C31.8814 60.2157 32.942 59.9944 32.7564 58.7023C32.6061 57.6669 31.245 55.3924 34.4004 54.3658C34.4004 54.3658 33.9938 52.4719 35.8058 51.5338C38.0243 50.3745 38.9789 51.64 40.0749 51.6312C41.3034 51.6135 43.5131 49.9054 44.5296 52.4985C44.5296 52.4985 46.1912 52.1091 47.2607 53.118C48.2595 54.0561 48.2153 55.596 47.8706 56.242C47.8706 56.242 49.3113 56.3482 49.9389 57.5253C50.3631 58.3129 50.3101 59.49 49.6118 60.2334C49.1699 60.7113 48.6661 60.8706 48.6661 60.8706C48.1446 61.1007 48.4893 62.5609 48.0827 62.9592C47.4375 63.6052 46.6862 64.1362 45.9084 64.6053L39.4738 66.2602Z" fill="#16142B"/>
<path d="M34.8954 63.0743C35.4611 67.3311 39.1733 70.6853 42.5143 70.2428C45.8554 69.8003 47.5701 65.7204 46.9956 61.4547C46.4299 57.1979 43.2568 54.1004 39.9158 54.5517C36.5747 54.9942 34.3297 58.8174 34.8954 63.0743Z" fill="#F37A50"/>
<path d="M46.065 63.4097C46.3666 63.2962 46.5191 62.9593 46.4057 62.6574C46.2922 62.3554 45.9558 62.2027 45.6542 62.3163C45.3527 62.4299 45.2002 62.7667 45.3136 63.0687C45.4271 63.3706 45.7635 63.5233 46.065 63.4097Z" fill="black"/>
<path d="M41.6094 63.6826C41.9384 63.5587 42.1048 63.1912 41.981 62.8618C41.8573 62.5324 41.4903 62.3658 41.1613 62.4898C40.8323 62.6137 40.666 62.9811 40.7897 63.3105C40.9135 63.6399 41.2805 63.8065 41.6094 63.6826Z" fill="black"/>
<path d="M43.4689 63.2424C44.0876 64.0478 44.8566 65.0213 44.8566 65.0213C44.8566 65.0213 44.6356 65.9505 43.4512 66.0833C43.9285 65.8266 44.397 65.4372 44.123 64.7912C43.8578 64.1363 43.4689 63.2424 43.4689 63.2424Z" fill="#DE623C"/>
<path d="M39.8716 62.437C39.8539 62.4282 39.8274 62.4193 39.8097 62.4016C39.686 62.3043 39.6594 62.1184 39.7655 61.9857C40.0395 61.6406 40.7731 61.083 41.5863 61.4547C41.7365 61.5255 41.7984 61.6937 41.7277 61.8441C41.657 61.9946 41.489 62.0565 41.3388 61.9857C40.7378 61.7114 40.234 62.3397 40.2251 62.3485C40.1367 62.4636 39.9865 62.4901 39.8716 62.437Z" fill="#16142B"/>
<path d="M45.2278 61.8972C45.1836 61.8884 45.1483 61.8619 45.1129 61.8353C45.0157 61.738 45.0157 61.5875 45.1129 61.4902C45.1306 61.4725 45.4842 61.1185 45.9703 61.1539C46.3062 61.1716 46.6067 61.3662 46.8718 61.7202C46.9514 61.8264 46.9337 61.9769 46.8276 62.0654C46.7216 62.145 46.5713 62.1273 46.4829 62.0211C46.3062 61.7911 46.1205 61.6671 45.9349 61.6494C45.6698 61.6317 45.4576 61.8353 45.4576 61.8442C45.3958 61.8884 45.3074 61.9149 45.2278 61.8972Z" fill="#16142B"/>
<path d="M47.632 57.0916L39.9953 53.0825L33.0923 59.1359L35.5141 64.6141C35.0456 61.9148 36.8841 62.3662 37.5205 61.375C38.1745 60.3749 38.2276 59.0563 40.4991 59.6404C40.4991 59.6404 41.8338 58.1182 43.0623 59.4811C44.0081 60.5342 44.8213 60.0829 45.714 59.9236C46.7569 59.7377 46.7658 60.7997 47.3845 60.605L47.632 57.0916Z" fill="#16142B"/>
<path d="M36.1026 64.9859C36.6708 64.387 36.5375 63.3366 35.8049 62.6398C35.0723 61.9431 34.0179 61.8637 33.4497 62.4625C32.8815 63.0614 33.0148 64.1117 33.7474 64.8085C34.48 65.5053 35.5345 65.5847 36.1026 64.9859Z" fill="#F37A50"/>
<path d="M35.1429 64.7026C35.1782 64.6938 35.2047 64.6761 35.2224 64.6495C35.5671 64.2778 35.6378 63.8176 35.4169 63.4371C35.1871 63.0477 34.7186 62.8264 34.2944 62.9238C34.1795 62.9503 34.0999 63.0654 34.1264 63.1893C34.1529 63.3043 34.2678 63.384 34.3916 63.3574C34.6214 63.3043 34.9042 63.4371 35.0368 63.6583C35.1606 63.8707 35.1075 64.1185 34.8954 64.3486C34.8158 64.4371 34.8158 64.5787 34.9042 64.6584C34.9838 64.7203 35.0722 64.738 35.1429 64.7026Z" fill="#DE623C"/>
<path d="M41.0471 66.9239C40.9587 66.7823 41.0825 66.6142 41.2416 66.6407C41.6481 66.7204 42.3199 66.8443 42.9651 66.8974C43.6103 66.9505 44.2909 66.9328 44.7063 66.9239C44.8654 66.9151 44.9627 67.1098 44.8478 67.2337C44.5207 67.6142 43.8578 68.1718 42.8679 68.0921C41.8779 68.0036 41.3123 67.3487 41.0471 66.9239Z" fill="white"/>
<path d="M28.4696 101.492C28.4696 101.492 33.384 102.094 38.4662 102.129C43.5485 102.094 48.1093 100.846 48.1093 100.846C48.1093 100.846 48.7898 91.1288 48.8605 87.5445C48.9578 83.4204 48.5954 77.96 48.5954 72.5172C48.5954 72.5172 44.9892 71.9331 42.9563 71.6853C42.6292 71.6411 42.3376 71.6145 42.1078 71.5968C42.1078 71.5968 40.9499 74.0306 35.903 71.5968C35.6378 71.5703 35.3108 71.5703 34.9396 71.5968C32.8183 71.7207 29.4065 72.5261 29.4065 72.5261C29.4065 77.96 29.1856 83.2788 29.2651 87.4029C29.0353 91.058 28.4696 101.492 28.4696 101.492Z" fill="#E62552"/>
<path d="M34.9484 71.579C35.302 72.1631 35.7969 72.6144 36.4952 72.9596C37.6089 73.5171 39.1114 73.7561 40.0395 73.6853C40.7731 73.6233 41.5863 73.3313 42.1078 72.9153C42.6646 72.4728 42.9032 71.9153 42.9563 71.6763C42.6292 71.6321 42.2845 71.5878 42.0636 71.5613C42.0636 71.5613 40.9587 74.0127 35.9118 71.579C35.6378 71.5613 35.3108 71.5613 34.9484 71.579Z" fill="#C4204A"/>
<path d="M58.4505 79.7298C58.4505 79.7298 62.6666 74.7827 70.48 71.5259C71.2313 72.6941 72.6101 74.765 72.6101 74.765C72.6101 74.765 64.8939 84.0663 60.669 86.1107C60.3332 86.27 57.275 83.9955 58.4505 79.7298Z" fill="#C4204A"/>
<path d="M75.8009 73.9508C75.3324 72.0304 73.8564 68.3399 72.9637 66.5788C70.0381 60.8263 63.5063 54.1888 58.3533 50.7107C54.4996 48.1088 49.2671 44.5511 49.2671 44.5511C48.2948 42.5156 49.0992 41.8784 49.0992 41.8784C46.8806 42.967 47.7999 43.8077 48.9047 44.8343L48.8782 44.852L50.7697 46.3477C53.7748 48.7106 68.3057 60.8351 70.7717 67.4195C71.4611 69.2692 73.0963 72.8888 73.5735 74.8004C75.739 83.4734 71.9207 105.448 71.9472 106.271C71.9914 107.776 72.8223 109.156 74.1481 108.528C74.1481 108.528 73.2995 108.307 72.6808 106.138C72.6808 106.138 74.6165 95.7041 75.2617 92.2261C76.8527 83.615 76.8792 78.3935 75.8009 73.9508Z" fill="#494C7F"/>
<path d="M49.1964 44.3652L48.8959 44.852L46.6862 80.2962L72.2124 107.351L73.4321 106.882L72.6808 106.147L71.8765 106.457L47.1193 80.1281L49.2052 45.0998L49.6206 44.79L49.1964 44.3652Z" fill="white"/>
<path d="M88.7319 63.1097L38.7844 84.1196L38.5988 83.6859L88.5551 62.676L88.7319 63.1097Z" fill="#2C2858"/>
<path d="M38.5988 83.686L37.0962 82.6417L43.1772 80.1106L45.4311 80.8363L38.5988 83.686Z" fill="#191E29"/>
<path d="M38.7844 84.1196L38.4662 85.925L44.5472 83.3939L45.6167 81.2788L38.7844 84.1196Z" fill="#191E29"/>
<path d="M89.7572 62.4282L85.5765 63.0743L86.5665 63.4991L86.7432 63.9416L86.6283 64.8974L89.7572 62.4282Z" fill="#494C7F"/>
<path d="M73.9183 71.7119C73.7945 72.1278 74.1569 72.6854 74.6961 72.9155C74.7137 72.8978 74.7403 72.9243 74.7403 72.9243C74.6961 72.9597 74.6961 73.004 74.6695 73.0748C74.6077 73.4376 74.8552 73.8801 75.2352 74.0306C75.6153 74.181 76.013 74.0483 76.0926 73.6766C76.1721 73.3934 76.0042 73.004 75.7302 72.8093C75.7921 72.7562 75.8628 72.65 75.8893 72.5438C75.9688 72.2606 75.8009 71.8712 75.5092 71.6057C75.5357 71.5437 75.5534 71.4729 75.5799 71.411C75.6595 71.0304 75.3766 70.5348 74.917 70.2782C75.0054 70.1985 75.0496 70.1189 75.0761 70.0127C75.1557 69.5878 74.8817 69.0922 74.4221 68.8798C73.9624 68.6674 73.5028 68.8533 73.3968 69.2958C73.3172 69.6764 73.4763 70.0569 73.7945 70.3047C73.7061 70.3843 73.6443 70.4817 73.6177 70.5968C73.5382 70.88 73.7061 71.2694 73.9978 71.5349C73.9624 71.5791 73.9448 71.6499 73.9183 71.7119Z" fill="#F37A50"/>
<path d="M72.2654 71.048C72.4157 69.9506 71.8235 69.3576 72.6985 68.8886C73.5824 68.4284 72.9018 67.8354 71.8765 68.1983C70.9396 68.5257 71.0104 69.6497 71.0545 70.6055C70.7098 70.9329 70.6391 71.756 70.6391 71.756L72.4157 74.4552L73.4056 74.057C73.4056 74.0658 72.7604 71.8091 72.2654 71.048Z" fill="#DE623C"/>
<path d="M70.9043 70.1011L72.3361 69.4993L72.3803 69.986L70.9661 70.5878L70.9043 70.1011Z" fill="#2C2858"/>
<path d="M44.2909 84.9778C43.7959 83.8361 43.3363 83.7211 43.3363 82.0838C43.3363 81.3316 43.7871 80.5882 44.2025 80.0041C44.7947 79.1722 46.1205 79.2253 46.5625 79.4908C47.137 79.836 47.3226 80.1103 46.8453 80.2342C46.3503 80.3581 45.5814 80.1191 45.8554 80.4908C45.9614 80.6324 46.041 80.9068 47.0397 80.5882C48.1446 80.1191 48.507 78.1987 49.0727 78.4023C49.5146 78.5616 49.3555 79.8536 48.1976 81.0749C48.4981 80.9156 49.0108 80.8448 49.0903 81.3581C49.1257 81.5971 48.9047 81.836 48.4451 82.0661C49.0461 81.9776 49.2141 81.9068 49.3555 82.2874C49.4616 82.7387 49.3201 82.8803 49.0285 82.9954C49.3643 82.9246 49.5057 82.8095 49.5853 83.1547C49.709 83.7034 48.8694 84.1901 47.2254 84.6946C46.7569 84.845 44.2909 84.9778 44.2909 84.9778Z" fill="#F37A50"/>
<path d="M42.753 86.2787L44.7682 84.6149L43.5661 81.7917L41.2681 83.606L42.753 86.2787Z" fill="#F37A50"/>
<path d="M27.7007 86.8187C32.341 85.385 41.8514 82.8362 41.8514 82.8362C43.0358 84.5177 43.5485 85.9337 43.5485 85.9337C38.9877 91.0844 26.1804 95.4474 21.8848 93.5093C18.2079 91.8455 21.4252 75.4022 29.4065 72.5171L29.6452 72.5348C31.9609 76.4553 27.7007 86.8187 27.7007 86.8187Z" fill="#C4204A"/>
<path d="M148.69 71.9663L163.981 64.3818V70.6388L151.828 79.533L148.69 71.9663Z" fill="#0E6A41"/>
<path d="M137.713 143.607C140.143 146.961 146.109 144.908 145.906 149.439C136.838 149.377 133.063 149.439 133.063 149.439C133.072 148.395 133.258 145.926 133.461 144.952L137.713 143.607Z" fill="#3C3F73"/>
<path d="M165.316 143.837C167.746 147.191 173.713 145.138 173.509 149.669C164.441 149.607 160.667 149.669 160.667 149.669C160.676 148.625 160.861 146.156 161.064 145.182L165.316 143.837Z" fill="#3C3F73"/>
<path d="M153.56 93.6045L143.414 98.0206C143.414 98.0206 150.82 116.685 154.948 122.102C155.664 123.048 161.232 121.438 161.091 120.278C160.41 114.535 153.56 93.6045 153.56 93.6045Z" fill="#4364CC"/>
<path d="M166.111 144.669L161.073 145.191C159.553 140.315 150.926 125.633 155.717 119.765C156.893 118.535 159.297 118.429 160.455 119.402C161.117 119.871 161.206 120.685 161.427 121.455C163.495 128.889 164.503 136.093 166.111 144.669Z" fill="#4364CC"/>
<path d="M151.077 94.7019C151.077 94.7019 145.712 86.3563 141.266 92.0557C136.82 97.7551 136.873 114.88 137.456 122.385C137.562 123.694 142.194 125.128 142.972 124.438C145.826 121.933 151.077 94.7019 151.077 94.7019Z" fill="#768FDB"/>
<path d="M139.498 144.669L133.479 144.952C134.018 140.589 134.044 127.111 138.437 120.721C138.8 120.199 138.977 119.615 139.259 119.146C139.878 118.163 145.111 119.933 144.731 121.004C143.493 125.022 143.007 133.544 139.498 144.669Z" fill="#768FDB"/>
<path d="M141.504 54.4963C138.694 51.5404 131.499 54.3281 132.012 58.6381C132.533 62.948 133.656 65.5676 128.397 66.55C124.216 67.3288 121.228 72.2671 123.04 77.9488C125.356 85.2146 129.484 80.7808 129.457 84.7456C129.431 88.7104 129.837 92.5867 135.07 91.0556C140.302 89.5157 143.661 83.6836 141.177 77.9665C138.694 72.2494 143.528 71.6299 143.696 68.3642C143.944 63.7003 141.504 54.4963 141.504 54.4963Z" fill="#16142B"/>
<path d="M146.242 73.0991C146.242 73.0991 146.595 75.4001 145.27 75.7275C143.944 76.055 140.965 73.8425 140.965 73.8425C141.036 73.1876 140.921 72.3557 140.709 71.4707C140.647 71.2229 140.585 70.9751 140.514 70.7273C139.807 68.2581 138.561 65.6917 138.561 65.6917L144.165 66.966C144.165 66.966 144.837 69.0192 145.438 70.8069C145.508 71.0282 145.588 71.2406 145.659 71.453C145.897 72.1521 146.109 72.7628 146.242 73.0991Z" fill="#DE623C"/>
<path d="M153.49 88.4625C152.986 85.6305 154.966 80.6834 153.286 78.0372C152.022 75.8955 150.043 72.2316 148.151 72.2051C147.382 72.1962 146.843 71.7891 145.844 72.0104C145.844 72.0104 146.675 74.391 145.491 74.7096C143.201 75.3114 140.93 72.6476 140.93 72.6476C139.657 72.7538 135.759 74.8247 135.759 75.9398C136.431 79.6391 138.809 83.8517 140.506 87.6837C141.054 89.6927 140.877 91.4273 140.877 92.6132C140.718 93.8787 140.072 96.4806 140.117 96.7373C140.117 96.7373 149.857 98.3834 154.807 94.3743C154.807 94.3832 153.834 90.3741 153.49 88.4625Z" fill="#80BC48"/>
<path d="M145.853 72.0194C145.853 72.0194 150.423 75.0284 151.837 79.5331C153.251 84.0377 153.861 95.056 153.861 95.056L155.39 93.9763C155.39 93.9763 154.93 82.8607 153.711 77.9047C150.025 72.2672 148.699 71.9663 148.699 71.9663L145.853 72.0194Z" fill="#3F964F"/>
<path d="M145.49 70.2918C148.737 69.6449 150.701 65.7667 149.879 61.6296C149.057 57.4925 145.759 54.6631 142.513 55.3099C139.266 55.9568 137.302 59.835 138.124 63.9721C138.946 68.1092 142.244 70.9386 145.49 70.2918Z" fill="#F37A50"/>
<path d="M148.985 63.6798C149.275 63.5492 149.403 63.2086 149.273 62.919C149.142 62.6294 148.802 62.5004 148.513 62.631C148.224 62.7616 148.095 63.1022 148.225 63.3918C148.356 63.6814 148.696 63.8104 148.985 63.6798Z" fill="black"/>
<path d="M144.722 63.7726C145.034 63.6319 145.173 63.2651 145.032 62.9532C144.892 62.6413 144.525 62.5025 144.214 62.6431C143.902 62.7837 143.764 63.1505 143.904 63.4624C144.045 63.7743 144.411 63.9132 144.722 63.7726Z" fill="black"/>
<path d="M147.285 63.9037C147.585 64.24 147.851 64.5852 148.142 64.7887C148.239 64.8595 148.266 64.9923 148.204 65.0985C147.948 65.5233 147.223 65.8507 146.781 66.0189C146.719 66.0454 146.666 65.9569 146.719 65.9127C147.17 65.541 147.373 65.2666 147.462 65.1162C147.506 65.0365 147.506 64.948 147.47 64.8684C147.391 64.6825 147.223 64.3197 147.108 64.0099C147.073 63.9037 147.205 63.824 147.285 63.9037Z" fill="#DE623C"/>
<path d="M143.36 62.4524C143.254 62.4789 143.131 62.4435 143.051 62.355C142.936 62.2223 142.954 62.0276 143.086 61.9125C143.908 61.2045 144.775 61.3638 144.81 61.3727C144.978 61.4081 145.084 61.5674 145.058 61.7355C145.022 61.9037 144.863 62.0099 144.695 61.9833C144.669 61.9745 144.076 61.8771 143.502 62.3816C143.449 62.417 143.405 62.4435 143.36 62.4524Z" fill="#201D40"/>
<path d="M149.645 62.7002C149.512 62.7356 149.371 62.6737 149.3 62.5586C149.079 62.1692 148.681 62.1515 148.664 62.1515C148.496 62.1515 148.354 62.0099 148.363 61.8329C148.363 61.6648 148.513 61.5232 148.681 61.5232C148.708 61.5232 149.433 61.5409 149.839 62.24C149.928 62.3905 149.875 62.5763 149.724 62.6648C149.698 62.6825 149.671 62.6914 149.645 62.7002Z" fill="#201D40"/>
<path d="M144.448 67.3022C144.368 67.1783 144.474 67.0278 144.616 67.0543C144.969 67.1163 145.561 67.2136 146.127 67.249C146.693 67.2844 147.294 67.2579 147.656 67.2402C147.798 67.2314 147.877 67.3995 147.789 67.5057C147.506 67.842 146.94 68.3465 146.065 68.2934C145.199 68.2403 144.686 67.6739 144.448 67.3022Z" fill="white"/>
<path d="M138.19 65.1693C140.638 64.9392 142.627 61.647 144.041 60.1159C145.862 59.5318 147.568 57.2839 147.753 56.5494C147.108 54.1068 144.951 53.0182 139.958 54.2838C136.873 55.0626 132.842 60.7974 138.19 65.1693Z" fill="#201D40"/>
<path d="M142.256 60.1602C142.256 60.1602 147.311 60.0009 149.875 61.6204C151.837 59.169 149.645 57.222 147.294 56.3635C145.57 56.9299 142.256 60.1602 142.256 60.1602Z" fill="#201D40"/>
<path d="M140.094 66.3366C140.615 65.7159 140.424 64.6947 139.666 64.0557C138.908 63.4168 137.87 63.4019 137.348 64.0226C136.826 64.6433 137.018 65.6645 137.776 66.3035C138.534 66.9424 139.572 66.9573 140.094 66.3366Z" fill="#F37A50"/>
<path d="M139.144 66.1075C139.171 66.0898 139.197 66.0721 139.224 66.0455C139.542 65.6561 139.586 65.2136 139.348 64.8508C139.1 64.4791 138.632 64.2932 138.216 64.4171C138.101 64.4525 138.031 64.5676 138.066 64.6826C138.101 64.7977 138.216 64.8685 138.331 64.8331C138.552 64.7711 138.835 64.8862 138.976 65.0897C139.109 65.2933 139.074 65.5322 138.879 65.7712C138.8 65.8597 138.817 66.0013 138.915 66.0721C138.985 66.134 139.074 66.1429 139.144 66.1075Z" fill="#DE623C"/>
<path d="M136.917 74.4797C136.917 74.4797 139.701 72.6212 140.903 72.4353C142.653 74.8425 144.271 76.3824 145.561 80.5331C146.852 84.6837 147.285 90.923 149.707 96.8967C147.356 98.0384 141.381 99.0738 138.384 97.7817C139.021 94.9409 139.445 90.1973 138.428 86.2413C137.412 82.2854 136.917 74.4797 136.917 74.4797Z" fill="#3F964F"/>
<path d="M140.727 71.5237L139.197 73.0547L141.814 76.1611L144.165 77.1258C144.165 77.1169 142.424 73.9574 140.727 71.5237Z" fill="#0E6A41"/>
<path d="M145.579 71.2317L147.647 71.8423L149.539 73.8424L149.707 75.6479L145.853 72.0193L145.579 71.2317Z" fill="#0E6A41"/>
<path d="M227.567 143.545C225.092 146.97 219.011 144.864 219.205 149.492C228.451 149.43 232.296 149.492 232.296 149.492C232.287 148.43 232.101 145.908 231.889 144.917L227.567 143.545Z" fill="#070635"/>
<path d="M205.815 143.545C203.34 146.97 197.259 144.864 197.453 149.492C206.699 149.43 210.543 149.492 210.543 149.492C210.535 148.43 210.349 145.908 210.137 144.917L205.815 143.545Z" fill="#070635"/>
<path d="M195.615 92.498L196.835 92.0909L196.216 89.3474L194.245 90.0377L195.615 92.498Z" fill="#F37A50"/>
<path d="M212.214 72.1164C212.214 72.1164 215.475 80.5062 211.206 79.5416C208.493 78.9309 197.392 73.1961 195.933 71.196C195.093 70.0455 199.831 66.417 200.167 65.3462C206.416 68.4083 210.358 70.3553 212.214 72.1164Z" fill="#30357F"/>
<path d="M213.787 96.5513L224.933 102.419C224.933 102.419 215.838 119.597 210.614 124.915C209.704 125.845 204.489 124.402 204.118 123.296C202.748 119.243 213.787 96.5513 213.787 96.5513Z" fill="#3C3F73"/>
<path d="M205.01 144.713L210.544 145.837C211.039 140.81 212.789 129.049 211.684 123.721C211.613 123.376 211.533 123.039 211.445 122.721C211.021 121.553 210.393 120.676 209.677 120.084C207.795 118.508 205.284 118.853 204.144 120.942C204.135 120.96 204.127 120.977 204.109 121.004C204.091 121.137 204.082 121.278 204.065 121.411V121.42C204.038 121.774 204.012 122.128 203.994 122.5C203.8 126.756 204.851 134.527 205.01 144.713Z" fill="#3C3F73"/>
<path d="M216.245 99.1975L229.591 95.9673C229.591 95.9673 230.157 117.676 228.53 124.951C228.247 126.217 223.554 127.65 222.644 126.907C219.347 124.199 216.245 99.1975 216.245 99.1975Z" fill="#494C7F"/>
<path d="M221.017 123.915C221.017 123.924 221.017 123.933 221.017 123.942C222.06 127.871 223.289 134.102 226.542 144.545L232.287 145.2C231.977 140.421 231.111 128.756 228.76 123.615C228.504 123.057 228.23 122.544 227.938 122.084C225.499 118.278 220.558 119.933 221.017 123.915Z" fill="#494C7F"/>
<path d="M225.092 70.258L214.804 70.196L210.897 71.1341C209.801 76.9398 211.533 99.0471 211.533 99.0471C211.533 99.0471 214.521 103.339 221.141 102.499C226.577 100.534 230.369 101.914 230.369 101.914C231.792 95.2327 231.067 87.1615 230.263 78.9222C229.741 73.683 227.638 71.7359 225.092 70.258Z" fill="#2C2858"/>
<path d="M219.232 65.249L216.766 65.0808L215.794 70.8598C215.794 70.8598 215.617 72.2405 218.083 72.8157C220.195 73.3113 221.733 71.3023 221.733 71.3023L221.654 65.4348L219.232 65.249Z" fill="#DE623C"/>
<path d="M222.803 61.2222C222.414 65.4702 219.877 68.7004 216.545 68.3907C213.213 68.0898 210.826 64.3993 211.215 60.1513C211.604 55.9033 214.618 52.7085 217.95 53.0094C221.283 53.3103 223.192 56.9742 222.803 61.2222Z" fill="#F37A50"/>
<path d="M215.193 61.47C214.618 62.293 213.885 63.2931 213.885 63.2931C213.885 63.2931 214.15 64.2046 215.325 64.2843C214.839 64.0542 214.362 63.6825 214.6 63.0276C214.848 62.3638 215.193 61.47 215.193 61.47Z" fill="#DE623C"/>
<path d="M224.509 57.7972C224.703 53.7616 220.956 52.5845 220.956 52.5845C220.956 52.5845 221.769 52.2571 221.521 51.0535C220.956 51.434 220.248 51.6287 219.559 51.5933C214.945 51.3278 212.081 52.204 212.612 53.9828C212.797 54.62 209.836 55.0714 211.339 59.2751C211.604 58.7618 211.781 56.8591 212.656 56.4077C213.54 55.9564 213.063 57.452 215.087 57.1334C217.128 56.8148 218.428 55.9121 219.948 56.6644C221.168 57.3458 222.865 62.1868 222.812 62.5231C222.935 61.7531 224.429 59.576 224.509 57.7972Z" fill="#181B47"/>
<path d="M211.286 62.4522C211.286 62.4522 211.772 64.7355 212.294 65.3285C212.364 64.3373 214.556 64.8683 215.493 64.9126C217.199 64.9922 218.87 63.4081 219.532 65.6206C222.405 65.7976 222.299 60.8416 222.299 60.8416C222.891 64.6117 221.813 69.6561 216.2 69.8597C212.594 69.9836 210.8 65.9657 211.286 62.4522Z" fill="#181B47"/>
<path d="M211.701 60.3724C211.799 60.3724 211.896 60.3282 211.958 60.2397C212.117 59.9919 212.302 59.8414 212.506 59.806C212.868 59.7352 213.213 59.983 213.222 59.9919C213.354 60.0892 213.531 60.0538 213.628 59.9299C213.725 59.7972 213.699 59.6202 213.566 59.5228C213.54 59.5051 213.018 59.1246 212.4 59.2396C212.02 59.3104 211.71 59.5494 211.463 59.9388C211.374 60.0715 211.419 60.2574 211.551 60.337C211.595 60.3547 211.648 60.3636 211.701 60.3724Z" fill="#181B47"/>
<path d="M218.622 60.1778C218.684 60.1778 218.746 60.1513 218.799 60.107C218.923 60.0008 218.931 59.815 218.825 59.6999C218.428 59.2397 217.995 58.9919 217.544 58.9742C216.96 58.9477 216.572 59.3282 216.554 59.3459C216.439 59.461 216.439 59.6468 216.554 59.7619C216.669 59.8769 216.846 59.8769 216.96 59.7707C216.969 59.7619 217.199 59.5495 217.526 59.5672C217.809 59.5849 218.101 59.753 218.383 60.0893C218.445 60.1513 218.534 60.1867 218.622 60.1778Z" fill="#181B47"/>
<path d="M224.496 62.9382C225.192 62.2184 225.279 61.1719 224.69 60.6006C224.101 60.0294 223.059 60.1497 222.363 60.8694C221.667 61.5892 221.58 62.6357 222.169 63.207C222.758 63.7782 223.8 63.6579 224.496 62.9382Z" fill="#F37A50"/>
<path d="M223.103 62.877C223.068 62.8681 223.041 62.8504 223.015 62.8239C222.661 62.4699 222.564 62.0185 222.767 61.6291C222.98 61.2309 223.43 61.0008 223.855 61.0716C223.97 61.0893 224.049 61.2043 224.031 61.3282C224.014 61.4433 223.899 61.5229 223.775 61.5052C223.545 61.461 223.271 61.6026 223.148 61.8327C223.033 62.0451 223.094 62.2929 223.315 62.5141C223.404 62.6026 223.404 62.7354 223.315 62.8239C223.262 62.8858 223.183 62.9035 223.103 62.877Z" fill="#DE623C"/>
<path d="M217.594 61.6361C217.884 61.4372 217.958 61.0407 217.76 60.7503C217.561 60.4599 217.165 60.3857 216.875 60.5846C216.585 60.7834 216.511 61.18 216.71 61.4703C216.908 61.7607 217.304 61.8349 217.594 61.6361Z" fill="black"/>
<path d="M213.074 61.578C213.339 61.3957 213.407 61.0322 213.225 60.766C213.043 60.4998 212.68 60.4318 212.414 60.6141C212.149 60.7963 212.081 61.1599 212.263 61.426C212.445 61.6922 212.808 61.7602 213.074 61.578Z" fill="black"/>
<path d="M214.035 65.9922C213.946 65.8771 214.035 65.7178 214.176 65.7267C214.539 65.7532 215.131 65.7886 215.696 65.7621C216.262 65.7355 216.854 65.6559 217.217 65.6028C217.358 65.5762 217.455 65.7355 217.376 65.8506C217.128 66.2134 216.616 66.771 215.741 66.8064C214.866 66.8418 214.309 66.3285 214.035 65.9922Z" fill="white"/>
<path d="M182.94 96.7372C195.383 96.7372 205.47 86.6373 205.47 74.1785C205.47 61.7197 195.383 51.6199 182.94 51.6199C170.497 51.6199 160.41 61.7197 160.41 74.1785C160.41 86.6373 170.497 96.7372 182.94 96.7372Z" fill="#E62552"/>
<path d="M182.94 91.6485C192.576 91.6485 200.388 83.827 200.388 74.1786C200.388 64.5303 192.576 56.7087 182.94 56.7087C173.304 56.7087 165.493 64.5303 165.493 74.1786C165.493 83.827 173.304 91.6485 182.94 91.6485Z" fill="white"/>
<path d="M182.94 87.2588C190.155 87.2588 196.004 81.4025 196.004 74.1784C196.004 66.9544 190.155 61.0981 182.94 61.0981C175.725 61.0981 169.877 66.9544 169.877 74.1784C169.877 81.4025 175.725 87.2588 182.94 87.2588Z" fill="#E62552"/>
<path d="M182.949 82.3293C187.445 82.3293 191.09 78.68 191.09 74.1784C191.09 69.6768 187.445 66.0276 182.949 66.0276C178.453 66.0276 174.809 69.6768 174.809 74.1784C174.809 78.68 178.453 82.3293 182.949 82.3293Z" fill="white"/>
<path d="M182.949 77.6301C184.853 77.6301 186.396 76.0848 186.396 74.1786C186.396 72.2723 184.853 70.7271 182.949 70.7271C181.045 70.7271 179.502 72.2723 179.502 74.1786C179.502 76.0848 181.045 77.6301 182.949 77.6301Z" fill="#E62552"/>
<path d="M135.096 77.453C134.884 81.763 141.398 91.1882 145.773 93.1883C148.222 91.8431 148.655 87.4801 148.655 87.4801C148.655 87.4801 142.751 80.878 141.778 78.3203C141.389 77.2937 139.852 74.2316 138.252 74.1785C135.812 74.09 135.149 76.3822 135.096 77.453Z" fill="#0E6A41"/>
<path d="M162.938 88.4181C162.938 88.4181 153.163 88.0464 151.245 87.834C149.238 87.6216 148.213 90.7457 148.328 92.6838C154.055 93.029 159.35 92.2148 163.981 90.6306C163.734 89.5509 162.938 88.4181 162.938 88.4181Z" fill="#F37A50"/>
<path d="M163.539 90.7722C163.097 90.2235 162.611 89.1349 162.443 88.6216C162.346 88.3119 162.876 87.5773 163.221 87.2145C163.08 86.2852 162.885 85.8604 163.38 85.4356C163.38 85.4356 164.131 86.4888 164.458 86.7366C164.732 86.7189 165.024 86.6038 165.484 86.3295C166.483 85.7188 167.287 84.5595 167.782 84.9666C168.109 85.2321 166.544 86.4888 165.917 86.9932C166.836 86.5861 167.755 85.3206 168.197 85.6038C168.736 85.9578 167.163 87.2941 166.509 87.657C167.614 87.4623 168.171 86.1259 168.515 86.356C168.887 86.6304 168.259 87.8782 167.075 88.303C168.197 88.1083 168.595 87.0906 168.869 87.3738C169.152 87.6747 168.454 88.7809 166.933 89.6217C165.908 90.1881 163.539 90.7722 163.539 90.7722Z" fill="#F37A50"/>
<path d="M147.992 86.6481C148.107 86.3118 148.487 87.0286 148.894 87.0729C149.3 87.1171 149.636 86.8516 149.662 87.3118C149.68 87.772 150.352 91.7103 148.239 93.79C147.647 93.8697 145.579 93.7989 144.686 92.6395C145.959 91.7811 147.992 86.6481 147.992 86.6481Z" fill="#47A859"/>
<path d="M231.023 72.506C232.083 77.0107 225.357 89.3564 221.141 92.3123C218.304 91.3742 217.447 87.2236 217.447 87.2236C217.447 87.2236 220.903 77.9665 221.424 75.0902C221.636 73.9309 222.679 70.0988 224.358 69.7271C226.904 69.1607 230.758 71.3821 231.023 72.506Z" fill="#30357F"/>
<path d="M205.196 87.8165C205.452 87.02 206.46 85.3827 206.08 84.8694C205.868 84.5862 205.072 84.3384 204.657 84.0021C204.383 83.4269 204.471 83.0994 204.295 82.4003C204.135 81.7542 204.012 81.5949 203.764 81.6569L203.145 83.241C202.96 83.6393 202.978 83.8694 201.236 83.3738C199.902 83.0021 198.735 82.241 198.364 82.8959C198.116 83.3295 200.061 84.0641 200.962 84.365C199.769 84.2942 198.532 83.2764 198.16 83.7809C197.71 84.3915 199.725 85.0641 200.609 85.188C199.301 85.427 198.417 84.3384 198.125 84.7367C197.825 85.2057 198.894 86.1969 200.397 86.1704C199.071 86.4182 198.355 85.5774 198.169 86.0199C197.984 86.4713 200.008 87.2943 202.058 87.4005C203.676 87.4713 205.196 87.8165 205.196 87.8165Z" fill="#F37A50"/>
<path d="M205.408 84.365C205.408 84.365 216.244 86.7014 218.41 86.958C220.681 87.2235 221.742 90.2148 221.132 92.3123C214.212 93.4008 209.288 90.7193 204.577 87.8253C205.116 86.6837 205.408 84.365 205.408 84.365Z" fill="#30357F"/>
<path d="M174.093 54.3899C174.517 54.4696 175.03 54.0448 175.198 53.4784C175.18 53.4607 175.198 53.4341 175.198 53.4341C175.242 53.4695 175.286 53.4695 175.357 53.4872C175.719 53.5049 176.134 53.2129 176.232 52.8146C176.338 52.4164 176.161 52.0447 175.781 52.0004C175.489 51.9562 175.127 52.1597 174.968 52.4606C174.906 52.4075 174.8 52.3456 174.685 52.3367C174.393 52.2925 174.031 52.496 173.801 52.8235C173.73 52.8058 173.668 52.7881 173.598 52.7704C173.218 52.735 172.749 53.0713 172.555 53.5492C172.466 53.4695 172.387 53.4341 172.272 53.4253C171.839 53.3899 171.379 53.7262 171.229 54.2041C171.07 54.682 171.308 55.1157 171.759 55.1776C172.139 55.213 172.502 55.0094 172.714 54.6643C172.802 54.7439 172.908 54.7971 173.023 54.8059C173.315 54.8502 173.677 54.6466 173.907 54.3191C173.96 54.3634 174.022 54.3722 174.093 54.3899Z" fill="#F3906D"/>
<path d="M190.276 51.682C190.692 51.567 191.24 51.9387 191.461 52.4874C191.443 52.5051 191.47 52.5316 191.47 52.5316C191.505 52.4874 191.558 52.4874 191.62 52.4697C191.982 52.4166 192.415 52.6732 192.557 53.0538C192.698 53.4343 192.557 53.8326 192.177 53.9034C191.894 53.9742 191.514 53.7972 191.328 53.5228C191.266 53.5848 191.169 53.6467 191.054 53.6733C190.771 53.7441 190.391 53.5671 190.126 53.2662C190.064 53.2927 189.993 53.3104 189.932 53.337C189.552 53.4078 189.065 53.1157 188.818 52.6555C188.738 52.7352 188.659 52.7794 188.544 52.806C188.12 52.8768 187.634 52.5847 187.43 52.1245C187.236 51.6643 187.43 51.2041 187.872 51.1156C188.252 51.0448 188.623 51.213 188.871 51.5404C188.951 51.4608 189.048 51.39 189.163 51.3723C189.446 51.3015 189.826 51.4785 190.091 51.7794C190.153 51.7263 190.214 51.6997 190.276 51.682Z" fill="#F3906D"/>
<path d="M183.214 74.09L150.997 43.8407L151.28 43.5398L183.497 73.7979L183.214 74.09Z" fill="#2C2858"/>
<path d="M151.28 43.5399L151.572 42L155.673 45.8852L155.885 47.903L151.28 43.5399Z" fill="#3F964F"/>
<path d="M150.997 43.8408L149.477 44.2214L153.578 48.0977L155.602 48.195L150.997 43.8408Z" fill="#3F964F"/>
<path d="M184.107 74.6566L182.596 71.0281L182.154 72.5326L181.88 72.8246L180.412 73.276L184.107 74.6566Z" fill="#494C7F"/>
<path d="M100.558 118.52C102.223 118.52 103.572 117.168 103.572 115.502C103.572 113.835 102.223 112.484 100.558 112.484C98.8936 112.484 97.5441 113.835 97.5441 115.502C97.5441 117.168 98.8936 118.52 100.558 118.52Z" fill="#F0F4FF"/>
<path d="M72.0356 133.343C73.051 133.343 73.8741 132.519 73.8741 131.502C73.8741 130.486 73.051 129.662 72.0356 129.662C71.0202 129.662 70.1971 130.486 70.1971 131.502C70.1971 132.519 71.0202 133.343 72.0356 133.343Z" fill="#F0F4FF"/>
<path d="M151.089 108.705C152.104 108.705 152.928 107.881 152.928 106.864C152.928 105.847 152.104 105.023 151.089 105.023C150.074 105.023 149.251 105.847 149.251 106.864C149.251 107.881 150.074 108.705 151.089 108.705Z" fill="#F0F4FF"/>
<path d="M66.8296 44.914C67.845 44.914 68.6681 44.0899 68.6681 43.0732C68.6681 42.0566 67.845 41.2324 66.8296 41.2324C65.8143 41.2324 64.9912 42.0566 64.9912 43.0732C64.9912 44.0899 65.8143 44.914 66.8296 44.914Z" fill="#F0F4FF"/>
<path d="M241.597 103.97C242.613 103.97 243.436 103.146 243.436 102.129C243.436 101.113 242.613 100.289 241.597 100.289C240.582 100.289 239.759 101.113 239.759 102.129C239.759 103.146 240.582 103.97 241.597 103.97Z" fill="#F0F4FF"/>
<path d="M68.4117 121.883C66.7501 121.883 65.3978 123.237 65.3978 124.9C65.3978 126.564 66.7501 127.918 68.4117 127.918C70.0734 127.918 71.4169 126.564 71.4169 124.9C71.4169 123.237 70.0734 121.883 68.4117 121.883ZM68.4117 126.547C67.5014 126.547 66.7678 125.812 66.7678 124.9C66.7678 123.989 67.5102 123.254 68.4117 123.254C69.3221 123.254 70.0557 123.989 70.0557 124.9C70.0557 125.812 69.3133 126.547 68.4117 126.547Z" fill="#F0F4FF"/>
<path d="M95.9532 19.7092C94.2915 19.7092 92.9392 21.0633 92.9392 22.7271C92.9392 24.3909 94.2915 25.7449 95.9532 25.7449C97.6148 25.7449 98.9583 24.3909 98.9583 22.7271C98.9583 21.0633 97.606 19.7092 95.9532 19.7092ZM95.9532 24.3643C95.0428 24.3643 94.3092 23.6298 94.3092 22.7182C94.3092 21.8067 95.0428 21.0721 95.9532 21.0721C96.8636 21.0721 97.5972 21.8067 97.5972 22.7182C97.5972 23.6298 96.8547 24.3643 95.9532 24.3643Z" fill="#F0F4FF"/>
<path d="M181.724 39.2854C180.062 39.2854 178.71 40.6395 178.71 42.3033C178.71 43.9671 180.062 45.3211 181.724 45.3211C183.386 45.3211 184.738 43.9671 184.738 42.3033C184.738 40.6395 183.386 39.2854 181.724 39.2854ZM181.724 43.9494C180.814 43.9494 180.08 43.206 180.08 42.3033C180.08 41.3917 180.814 40.6572 181.724 40.6572C182.634 40.6572 183.368 41.3917 183.368 42.3033C183.368 43.206 182.634 43.9494 181.724 43.9494Z" fill="#F0F4FF"/>
<path d="M169.898 125.715C168.236 125.715 166.884 127.069 166.884 128.732C166.884 130.396 168.236 131.75 169.898 131.75C171.56 131.75 172.903 130.396 172.903 128.732C172.912 127.069 171.56 125.715 169.898 125.715ZM169.898 130.37C168.987 130.37 168.254 129.626 168.254 128.724C168.254 127.812 168.996 127.078 169.898 127.078C170.808 127.078 171.542 127.812 171.542 128.724C171.542 129.635 170.808 130.37 169.898 130.37Z" fill="#F0F4FF"/>
</svg>
