<svg width="20" height="21" viewBox="0 0 20 21" fill="none" xmlns="http://www.w3.org/2000/svg">
<path d="M10 8.83334C11.3807 8.83334 12.5 7.71406 12.5 6.33334C12.5 4.95263 11.3807 3.83334 10 3.83334C8.61929 3.83334 7.5 4.95263 7.5 6.33334C7.5 7.71406 8.61929 8.83334 10 8.83334Z" stroke="#757575" stroke-width="1.5" stroke-linecap="round" stroke-linejoin="round"/>
<path d="M3.41663 14.6667C3.57993 13.8659 3.97511 13.1309 4.55297 12.553C5.13084 11.9752 5.86588 11.58 6.66663 11.4167" stroke="#757575" stroke-width="1.5" stroke-linecap="round" stroke-linejoin="round"/>
<path d="M9.16665 11.3333H12.5C13.605 11.3333 14.6649 11.7723 15.4463 12.5537C16.2277 13.3351 16.6666 14.3949 16.6666 15.5V18H3.33331V17.1667" stroke="#757575" stroke-width="1.5" stroke-linecap="round" stroke-linejoin="round"/>
</svg>
