<svg width="36" height="36" viewBox="0 0 36 36" fill="none" xmlns="http://www.w3.org/2000/svg">
<path d="M0 18C0 8.05888 8.05888 0 18 0C27.9411 0 36 8.05888 36 18C36 27.9411 27.9411 36 18 36C8.05888 36 0 27.9411 0 18Z" fill="white"/>
<path d="M18 26.3333C22.6024 26.3333 26.3333 22.6024 26.3333 18C26.3333 13.3976 22.6024 9.66666 18 9.66666C13.3976 9.66666 9.66666 13.3976 9.66666 18C9.66666 22.6024 13.3976 26.3333 18 26.3333Z" stroke="#0D47A1" stroke-width="1.5" stroke-linecap="round" stroke-linejoin="round"/>
<path d="M18 21.3333L21.3333 18L18 14.6667" stroke="#0D47A1" stroke-width="1.5" stroke-linecap="round" stroke-linejoin="round"/>
<path d="M14.6667 18H21.3333" stroke="#0D47A1" stroke-width="1.5" stroke-linecap="round" stroke-linejoin="round"/>
</svg>
