<svg width="18" height="18" viewBox="0 0 18 18" fill="none" xmlns="http://www.w3.org/2000/svg">
<path d="M9.22394 0.33197C7.53094 0.33197 5.87595 0.834005 4.46826 1.77459C3.06058 2.71518 1.96342 4.05206 1.31554 5.6162C0.667649 7.18034 0.498133 8.90147 0.828422 10.5619C1.15871 12.2224 1.97397 13.7477 3.17111 14.9448C4.36825 16.1419 5.89349 16.9572 7.55397 17.2875C9.21445 17.6178 10.9356 17.4483 12.4997 16.8004C14.0638 16.1525 15.4007 15.0553 16.3413 13.6477C17.2819 12.24 17.7839 10.585 17.7839 8.89197C17.7839 7.76786 17.5625 6.65475 17.1324 5.6162C16.7022 4.57765 16.0716 3.63401 15.2768 2.83914C14.4819 2.04427 13.5383 1.41374 12.4997 0.983561C11.4612 0.553381 10.3481 0.33197 9.22394 0.33197ZM9.22394 15.74C7.86954 15.74 6.54555 15.3383 5.4194 14.5859C4.29325 13.8334 3.41553 12.7639 2.89722 11.5126C2.37891 10.2613 2.2433 8.88437 2.50753 7.55599C2.77176 6.22761 3.42397 5.00741 4.38168 4.0497C5.33939 3.09199 6.55958 2.43978 7.88797 2.17555C9.21635 1.91132 10.5933 2.04693 11.8446 2.56524C13.0959 3.08355 14.1654 3.96128 14.9178 5.08743C15.6703 6.21357 16.0719 7.53756 16.0719 8.89197C16.0719 10.7082 15.3505 12.45 14.0662 13.7342C12.782 15.0185 11.0401 15.74 9.22394 15.74Z" fill="#AFAFAF"/>
<path d="M11.5437 6.57223C11.4641 6.492 11.3695 6.42832 11.2652 6.38486C11.1609 6.34141 11.049 6.31903 10.936 6.31903C10.823 6.31903 10.7111 6.34141 10.6068 6.38486C10.5025 6.42832 10.4078 6.492 10.3282 6.57223L9.22396 7.68503L8.11972 6.57223C7.95854 6.41105 7.73992 6.32049 7.51196 6.32049C7.28401 6.32049 7.06539 6.41105 6.9042 6.57223C6.74302 6.73342 6.65246 6.95204 6.65246 7.17999C6.65246 7.40795 6.74302 7.62657 6.9042 7.78775L8.017 8.89199L6.9042 9.99623C6.82397 10.0758 6.76029 10.1705 6.71683 10.2748C6.67338 10.3791 6.651 10.491 6.651 10.604C6.651 10.717 6.67338 10.8289 6.71683 10.9332C6.76029 11.0375 6.82397 11.1322 6.9042 11.2118C6.98378 11.292 7.07846 11.3557 7.18277 11.3991C7.28708 11.4426 7.39896 11.465 7.51196 11.465C7.62497 11.465 7.73685 11.4426 7.84116 11.3991C7.94547 11.3557 8.04015 11.292 8.11972 11.2118L9.22396 10.099L10.3282 11.2118C10.4078 11.292 10.5025 11.3557 10.6068 11.3991C10.7111 11.4426 10.823 11.465 10.936 11.465C11.049 11.465 11.1609 11.4426 11.2652 11.3991C11.3695 11.3557 11.4641 11.292 11.5437 11.2118C11.624 11.1322 11.6876 11.0375 11.7311 10.9332C11.7746 10.8289 11.7969 10.717 11.7969 10.604C11.7969 10.491 11.7746 10.3791 11.7311 10.2748C11.6876 10.1705 11.624 10.0758 11.5437 9.99623L10.4309 8.89199L11.5437 7.78775C11.624 7.70818 11.6876 7.6135 11.7311 7.50919C11.7746 7.40488 11.7969 7.293 11.7969 7.17999C11.7969 7.06699 11.7746 6.95511 11.7311 6.8508C11.6876 6.74648 11.624 6.65181 11.5437 6.57223Z" fill="#AFAFAF"/>
</svg>
