<svg width="36" height="36" viewBox="0 0 36 36" fill="none" xmlns="http://www.w3.org/2000/svg">
<rect width="36" height="36" rx="18" fill="#E7EDF6"/>
<g clip-path="url(#clip0_5330_3795)">
<path d="M21.75 24.75V23.25C21.75 22.4544 21.4339 21.6913 20.8713 21.1287C20.3087 20.5661 19.5456 20.25 18.75 20.25H12.75C11.9544 20.25 11.1913 20.5661 10.6287 21.1287C10.0661 21.6913 9.75 22.4544 9.75 23.25V24.75" stroke="#0D47A1" stroke-width="2" stroke-linecap="round" stroke-linejoin="round"/>
<path d="M15.75 17.25C17.4069 17.25 18.75 15.9069 18.75 14.25C18.75 12.5931 17.4069 11.25 15.75 11.25C14.0931 11.25 12.75 12.5931 12.75 14.25C12.75 15.9069 14.0931 17.25 15.75 17.25Z" stroke="#0D47A1" stroke-width="2" stroke-linecap="round" stroke-linejoin="round"/>
<path d="M26.25 24.75V23.25C26.2495 22.5853 26.0283 21.9396 25.621 21.4142C25.2138 20.8889 24.6436 20.5137 24 20.3475" stroke="#0D47A1" stroke-width="2" stroke-linecap="round" stroke-linejoin="round"/>
<path d="M21 11.3475C21.6453 11.5127 22.2173 11.888 22.6257 12.4142C23.0342 12.9404 23.2559 13.5876 23.2559 14.2538C23.2559 14.9199 23.0342 15.5671 22.6257 16.0933C22.2173 16.6195 21.6453 16.9948 21 17.16" stroke="#0D47A1" stroke-width="2" stroke-linecap="round" stroke-linejoin="round"/>
</g>
<defs>
<clipPath id="clip0_5330_3795">
<rect width="18" height="18" fill="white" transform="translate(9 9)"/>
</clipPath>
</defs>
</svg>
