<svg width="17" height="16" viewBox="0 0 17 16" fill="none" xmlns="http://www.w3.org/2000/svg">
<path d="M9.95841 1.3335H4.62508C4.27146 1.3335 3.93232 1.47397 3.68227 1.72402C3.43222 1.97407 3.29175 2.31321 3.29175 2.66683V13.3335C3.29175 13.6871 3.43222 14.0263 3.68227 14.2763C3.93232 14.5264 4.27146 14.6668 4.62508 14.6668H12.6251C12.9787 14.6668 13.3178 14.5264 13.5679 14.2763C13.8179 14.0263 13.9584 13.6871 13.9584 13.3335V5.3335L9.95841 1.3335Z" stroke="#0D47A1" stroke-linecap="round" stroke-linejoin="round"/>
<path d="M9.95825 1.3335V5.3335H13.9583" stroke="#0D47A1" stroke-linecap="round" stroke-linejoin="round"/>
<path d="M11.2916 8.6665H5.95825" stroke="#0D47A1" stroke-linecap="round" stroke-linejoin="round"/>
<path d="M11.2916 11.3335H5.95825" stroke="#0D47A1" stroke-linecap="round" stroke-linejoin="round"/>
<path d="M7.29158 6H6.62492H5.95825" stroke="#0D47A1" stroke-linecap="round" stroke-linejoin="round"/>
</svg>
