<svg width="39" height="36" viewBox="0 0 39 36" fill="none" xmlns="http://www.w3.org/2000/svg">
<rect width="39" height="36" rx="8" fill="#D8D9E8"/>
<path d="M22.3431 12.6667V13.1667H22.8431H24.1764C24.5742 13.1667 24.9558 13.3247 25.2371 13.606L25.5906 13.2525L25.2371 13.606C25.5184 13.8873 25.6764 14.2689 25.6764 14.6667V22.6667C25.6764 23.0645 25.5184 23.446 25.2371 23.7273C24.9558 24.0086 24.5742 24.1667 24.1764 24.1667H14.8431C14.4453 24.1667 14.0637 24.0086 13.7824 23.7273L13.4289 24.0809L13.7824 23.7273C13.5011 23.446 13.3431 23.0645 13.3431 22.6667V14.6667C13.3431 14.2689 13.5011 13.8873 13.7824 13.606C14.0637 13.3247 14.4453 13.1667 14.8431 13.1667H16.1764H16.6764V12.6667V12C16.6764 11.9558 16.694 11.9134 16.7252 11.8822C16.7565 11.8509 16.7989 11.8333 16.8431 11.8333C16.8873 11.8333 16.9297 11.8509 16.9609 11.8822C16.9922 11.9134 17.0097 11.9558 17.0097 12V12.6667V13.1667H17.5097H21.5097H22.0097V12.6667V12C22.0097 11.9558 22.0273 11.9134 22.0586 11.8822C22.0898 11.8509 22.1322 11.8333 22.1764 11.8333C22.2206 11.8333 22.263 11.8509 22.2943 11.8822C22.3255 11.9134 22.3431 11.9558 22.3431 12V12.6667ZM14.1764 17.5H13.6764V18V22.6667C13.6764 22.9761 13.7993 23.2728 14.0181 23.4916C14.2369 23.7104 14.5337 23.8333 14.8431 23.8333H24.1764C24.4858 23.8333 24.7826 23.7104 25.0014 23.4916L24.6478 23.1381L25.0014 23.4916C25.2202 23.2728 25.3431 22.9761 25.3431 22.6667V18V17.5H24.8431H14.1764ZM24.8431 17.1667H25.3431V16.6667V14.6667C25.3431 14.3573 25.2202 14.0605 25.0014 13.8417C24.7826 13.6229 24.4858 13.5 24.1764 13.5H22.8431H22.3431V14V14.6667C22.3431 14.7109 22.3255 14.7533 22.2943 14.7845C22.263 14.8158 22.2206 14.8333 22.1764 14.8333C22.1322 14.8333 22.0898 14.8158 22.0586 14.7845C22.0273 14.7533 22.0097 14.7109 22.0097 14.6667V14V13.5H21.5097H17.5097H17.0097V14V14.6667C17.0097 14.7109 16.9922 14.7533 16.9609 14.7845C16.9297 14.8158 16.8873 14.8333 16.8431 14.8333C16.7989 14.8333 16.7565 14.8158 16.7252 14.7845C16.694 14.7533 16.6764 14.7109 16.6764 14.6667V14V13.5H16.1764H14.8431C14.5337 13.5 14.2369 13.6229 14.0181 13.8417C13.7993 14.0605 13.6764 14.3573 13.6764 14.6667V16.6667V17.1667H14.1764H24.8431Z" fill="black" stroke="#0D47A1"/>
</svg>
