<svg width="18" height="18" viewBox="0 0 18 18" fill="none" xmlns="http://www.w3.org/2000/svg">
<path d="M6.25583 1.74416C5.93083 2.06916 5.94833 2.595 6.14083 3.01333C6.34191 3.45104 6.40413 3.93982 6.31914 4.41394C6.23414 4.88807 6.006 5.3248 5.6654 5.6654C5.3248 6.006 4.88807 6.23414 4.41394 6.31914C3.93982 6.40413 3.45104 6.34191 3.01333 6.14083C2.595 5.94916 2.06916 5.93083 1.74416 6.25583L1.25583 6.74416C1.0996 6.90044 1.01184 7.11236 1.01184 7.33333C1.01184 7.5543 1.0996 7.76622 1.25583 7.9225L10.0775 16.7442C10.2338 16.9004 10.4457 16.9882 10.6667 16.9882C10.8876 16.9882 11.0996 16.9004 11.2558 16.7442L11.7442 16.2558C12.0692 15.9308 12.0517 15.405 11.8592 14.9867C11.6581 14.549 11.5959 14.0602 11.6809 13.586C11.7658 13.1119 11.994 12.6752 12.3346 12.3346C12.6752 11.994 13.1119 11.7658 13.586 11.6809C14.0602 11.5959 14.549 11.6581 14.9867 11.8592C15.405 12.0508 15.9308 12.0692 16.2558 11.7442L16.7442 11.2558C16.9004 11.0996 16.9882 10.8876 16.9882 10.6667C16.9882 10.4457 16.9004 10.2338 16.7442 10.0775L7.9225 1.25583C7.76622 1.0996 7.5543 1.01184 7.33333 1.01184C7.11236 1.01184 6.90044 1.0996 6.74416 1.25583L6.25583 1.74416V1.74416Z" stroke="#AFAFAF" stroke-width="2" stroke-linecap="round" stroke-linejoin="round"/>
</svg>
