<svg width="25" height="25" viewBox="0 0 25 25" fill="none" xmlns="http://www.w3.org/2000/svg">
<path d="M8.33334 11.2083H7.72917C6.9047 11.1785 6.0829 11.3184 5.31477 11.6195C4.54664 11.9205 3.84857 12.3762 3.2639 12.9583L3.09723 13.1527V18.9027H5.93056V15.6388L6.31251 15.2083L6.48612 15.0069C7.39023 14.0781 8.51583 13.3946 9.75695 13.0208C9.13556 12.548 8.64548 11.924 8.33334 11.2083Z" fill="white"/>
<path d="M21.7639 12.9375C21.1792 12.3555 20.4811 11.8998 19.713 11.5987C18.9449 11.2977 18.1231 11.1577 17.2986 11.1875C17.0457 11.1882 16.7931 11.2021 16.5417 11.2292C16.2237 11.9007 15.747 12.4846 15.1528 12.9306C16.4778 13.2971 17.678 14.0173 18.625 15.0139L18.7986 15.2084L19.1736 15.6389V18.9097H21.9097V13.132L21.7639 12.9375Z" fill="white"/>
<path d="M7.70835 9.85419H7.92362C7.8236 8.99533 7.9743 8.12588 8.35753 7.35078C8.74077 6.57569 9.34016 5.92808 10.0833 5.48614C9.81395 5.07458 9.44228 4.74003 9.00474 4.51527C8.5672 4.2905 8.07879 4.18322 7.58733 4.20394C7.09587 4.22465 6.61822 4.37264 6.20114 4.63341C5.78406 4.89419 5.44186 5.25882 5.20804 5.69159C4.97422 6.12436 4.8568 6.61043 4.86728 7.10222C4.87776 7.594 5.01579 8.07463 5.26783 8.49704C5.51988 8.91946 5.8773 9.26917 6.30511 9.51194C6.73293 9.75471 7.21645 9.88222 7.70835 9.88197V9.85419Z" fill="white"/>
<path d="M16.9653 9.33329C16.9737 9.4929 16.9737 9.65285 16.9653 9.81246C17.0985 9.83358 17.2331 9.84519 17.3681 9.84718H17.5C17.9897 9.82107 18.4644 9.66859 18.8777 9.4046C19.291 9.1406 19.6289 8.77409 19.8585 8.34073C20.0881 7.90738 20.2016 7.42195 20.1879 6.93172C20.1743 6.44148 20.0339 5.96314 19.7805 5.54326C19.527 5.12338 19.1692 4.77628 18.7418 4.53574C18.3144 4.2952 17.8321 4.16943 17.3416 4.17066C16.8512 4.1719 16.3695 4.3001 15.9433 4.54278C15.5171 4.78547 15.161 5.13437 14.9097 5.55551C15.5383 5.96589 16.0551 6.52586 16.4139 7.18521C16.7726 7.84456 16.9621 8.58266 16.9653 9.33329Z" fill="white"/>
<path d="M12.4097 12.4444C14.1241 12.4444 15.5139 11.0546 15.5139 9.34025C15.5139 7.62587 14.1241 6.23608 12.4097 6.23608C10.6953 6.23608 9.30554 7.62587 9.30554 9.34025C9.30554 11.0546 10.6953 12.4444 12.4097 12.4444Z" fill="white"/>
<path d="M12.5764 14.0972C11.6695 14.0606 10.7645 14.2078 9.91599 14.53C9.06746 14.8522 8.29289 15.3428 7.63888 15.9722L7.46527 16.1666V20.5624C7.46798 20.7056 7.49887 20.8469 7.55618 20.9781C7.61349 21.1094 7.6961 21.228 7.79928 21.3273C7.90246 21.4267 8.0242 21.5047 8.15754 21.5569C8.29087 21.6092 8.4332 21.6347 8.57638 21.6319H16.5555C16.6987 21.6347 16.8411 21.6092 16.9744 21.5569C17.1077 21.5047 17.2295 21.4267 17.3326 21.3273C17.4358 21.228 17.5184 21.1094 17.5757 20.9781C17.6331 20.8469 17.6639 20.7056 17.6667 20.5624V16.1805L17.5 15.9722C16.8502 15.3409 16.0783 14.8489 15.2317 14.5265C14.3851 14.2041 13.4815 14.058 12.5764 14.0972Z" fill="white"/>
</svg>
