<svg width="24" height="24" viewBox="0 0 24 24" fill="none" xmlns="http://www.w3.org/2000/svg">
<circle cx="12" cy="12" r="12" fill="#E11900"/>
<path d="M13.2222 8.44447C14.2041 8.44447 15 7.64853 15 6.66669C15 5.68485 14.2041 4.88892 13.2222 4.88892C12.2404 4.88892 11.4445 5.68485 11.4445 6.66669C11.4445 7.64853 12.2404 8.44447 13.2222 8.44447Z" fill="white"/>
<path d="M15.04 15.6579C14.9909 15.6248 14.9357 15.6019 14.8776 15.5905C14.8195 15.5791 14.7597 15.5794 14.7018 15.5914C14.6438 15.6034 14.5888 15.6269 14.5401 15.6604C14.4913 15.694 14.4497 15.7369 14.4178 15.7868C13.9881 16.423 13.4618 16.9884 12.8578 17.4623C12.7111 17.5734 12.1644 17.9956 11.9333 17.9068C11.7733 17.8579 11.8666 17.5423 11.8978 17.409L12.1333 16.7112C12.2311 16.4268 13.9333 11.3779 14.12 10.8001C14.3955 9.95564 14.2755 9.12453 13.0178 9.32453C12.6755 9.36009 9.20442 9.80898 9.1422 9.81342C9.08384 9.81721 9.02679 9.83247 8.97432 9.85831C8.92185 9.88415 8.87498 9.92007 8.83639 9.96402C8.79781 10.008 8.76825 10.0591 8.74942 10.1145C8.73059 10.1698 8.72285 10.2284 8.72665 10.2868C8.73044 10.3451 8.74569 10.4022 8.77153 10.4546C8.79737 10.5071 8.8333 10.554 8.87725 10.5926C8.9212 10.6311 8.97232 10.6607 9.0277 10.6795C9.08307 10.6984 9.14161 10.7061 9.19998 10.7023C9.19998 10.7023 10.5333 10.529 10.68 10.5156C10.7551 10.5083 10.8307 10.5229 10.8978 10.5576C10.9648 10.5923 11.0204 10.6456 11.0578 10.7112C11.1383 10.9601 11.1273 11.2297 11.0266 11.4712C10.9111 11.9156 9.08442 17.0623 9.02665 17.3601C8.96468 17.6093 8.98188 17.8716 9.07587 18.1105C9.16986 18.3495 9.33596 18.5532 9.55109 18.6934C9.95487 18.9625 10.4356 19.0921 10.92 19.0623C11.3909 19.0566 11.8566 18.9631 12.2933 18.7868C13.4 18.3423 14.5555 17.1601 15.1644 16.2312C15.2169 16.1368 15.2331 16.0266 15.2102 15.9211C15.1873 15.8156 15.1268 15.722 15.04 15.6579Z" fill="white"/>
</svg>
