<svg width="16" height="16" viewBox="0 0 16 16" fill="none" xmlns="http://www.w3.org/2000/svg">
<circle cx="8" cy="8" r="8" fill="white"/>
<path d="M8.76394 5.77776C9.37759 5.77776 9.87505 5.2803 9.87505 4.66665C9.87505 4.053 9.37759 3.55554 8.76394 3.55554C8.15029 3.55554 7.65283 4.053 7.65283 4.66665C7.65283 5.2803 8.15029 5.77776 8.76394 5.77776Z" fill="#AFAFAF"/>
<mask id="path-3-inside-1_6063_4291" fill="white">
<path d="M9.90003 10.2862C9.86934 10.2655 9.83483 10.2512 9.79853 10.2441C9.76223 10.2369 9.72487 10.2371 9.68864 10.2446C9.65242 10.2521 9.61806 10.2668 9.58758 10.2878C9.5571 10.3087 9.53111 10.3356 9.51114 10.3667C9.24261 10.7644 8.91365 11.1177 8.53614 11.4139C8.44448 11.4834 8.10281 11.7473 7.95837 11.6917C7.85837 11.6612 7.9167 11.4639 7.93614 11.3806L8.08337 10.9445C8.14448 10.7667 9.20837 7.61117 9.32503 7.25005C9.49726 6.72228 9.42226 6.20283 8.63614 6.32783C8.42226 6.35005 6.25281 6.63061 6.21392 6.63339C6.17744 6.63576 6.14179 6.64529 6.109 6.66144C6.0762 6.67759 6.04691 6.70004 6.02279 6.72751C5.99867 6.75498 5.9802 6.78694 5.96843 6.82155C5.95667 6.85615 5.95183 6.89274 5.9542 6.92922C5.95657 6.9657 5.9661 7.00135 5.98225 7.03415C5.9984 7.06694 6.02086 7.09623 6.04833 7.12035C6.0758 7.14447 6.10775 7.16294 6.14236 7.17471C6.17697 7.18648 6.21355 7.19131 6.25003 7.18894C6.25003 7.18894 7.08337 7.08061 7.17503 7.07228C7.22199 7.06769 7.26926 7.07679 7.31116 7.09848C7.35305 7.12017 7.38778 7.15351 7.41114 7.1945C7.46148 7.35009 7.45458 7.51854 7.3917 7.6695C7.31948 7.94728 6.17781 11.1639 6.1417 11.3501C6.10297 11.5058 6.11372 11.6697 6.17247 11.8191C6.23121 11.9684 6.33502 12.0958 6.46948 12.1834C6.72184 12.3516 7.02232 12.4326 7.32503 12.4139C7.61936 12.4103 7.91044 12.3519 8.18337 12.2417C8.87503 11.9639 9.59726 11.2251 9.97781 10.6445C10.0106 10.5855 10.0208 10.5166 10.0064 10.4507C9.99213 10.3847 9.95431 10.3263 9.90003 10.2862Z"/>
</mask>
<path d="M9.90003 10.2862C9.86934 10.2655 9.83483 10.2512 9.79853 10.2441C9.76223 10.2369 9.72487 10.2371 9.68864 10.2446C9.65242 10.2521 9.61806 10.2668 9.58758 10.2878C9.5571 10.3087 9.53111 10.3356 9.51114 10.3667C9.24261 10.7644 8.91365 11.1177 8.53614 11.4139C8.44448 11.4834 8.10281 11.7473 7.95837 11.6917C7.85837 11.6612 7.9167 11.4639 7.93614 11.3806L8.08337 10.9445C8.14448 10.7667 9.20837 7.61117 9.32503 7.25005C9.49726 6.72228 9.42226 6.20283 8.63614 6.32783C8.42226 6.35005 6.25281 6.63061 6.21392 6.63339C6.17744 6.63576 6.14179 6.64529 6.109 6.66144C6.0762 6.67759 6.04691 6.70004 6.02279 6.72751C5.99867 6.75498 5.9802 6.78694 5.96843 6.82155C5.95667 6.85615 5.95183 6.89274 5.9542 6.92922C5.95657 6.9657 5.9661 7.00135 5.98225 7.03415C5.9984 7.06694 6.02086 7.09623 6.04833 7.12035C6.0758 7.14447 6.10775 7.16294 6.14236 7.17471C6.17697 7.18648 6.21355 7.19131 6.25003 7.18894C6.25003 7.18894 7.08337 7.08061 7.17503 7.07228C7.22199 7.06769 7.26926 7.07679 7.31116 7.09848C7.35305 7.12017 7.38778 7.15351 7.41114 7.1945C7.46148 7.35009 7.45458 7.51854 7.3917 7.6695C7.31948 7.94728 6.17781 11.1639 6.1417 11.3501C6.10297 11.5058 6.11372 11.6697 6.17247 11.8191C6.23121 11.9684 6.33502 12.0958 6.46948 12.1834C6.72184 12.3516 7.02232 12.4326 7.32503 12.4139C7.61936 12.4103 7.91044 12.3519 8.18337 12.2417C8.87503 11.9639 9.59726 11.2251 9.97781 10.6445C10.0106 10.5855 10.0208 10.5166 10.0064 10.4507C9.99213 10.3847 9.95431 10.3263 9.90003 10.2862Z" fill="white"/>
<path d="M9.51114 10.3667L10.7543 11.2061L10.7643 11.1913L10.7739 11.1763L9.51114 10.3667ZM8.53614 11.4139L9.44193 12.6096L9.45208 12.6019L9.46211 12.594L8.53614 11.4139ZM7.95837 11.6917L8.49683 10.2917L8.44737 10.2727L8.39669 10.2572L7.95837 11.6917ZM7.93614 11.3806L6.51494 10.9008L6.49181 10.9694L6.47538 11.0398L7.93614 11.3806ZM8.08337 10.9445L6.66481 10.4569L6.66216 10.4647L8.08337 10.9445ZM9.32503 7.25005L7.89903 6.78473L7.89768 6.78891L9.32503 7.25005ZM8.63614 6.32783L8.79115 7.8198L8.83157 7.8156L8.8717 7.80922L8.63614 6.32783ZM6.21392 6.63339L6.31122 8.13026L6.32079 8.12958L6.21392 6.63339ZM6.25003 7.18894L6.34733 8.68578L7.75003 8.59461V7.18894H6.25003ZM7.17503 7.07228L7.31084 8.56615L7.32079 8.56518L7.17503 7.07228ZM7.41114 7.1945L8.83833 6.73282L8.79077 6.58582L8.71425 6.4516L7.41114 7.1945ZM7.3917 7.6695L6.00703 7.09272L5.96649 7.19003L5.93997 7.29205L7.3917 7.6695ZM6.1417 11.3501L7.59736 11.7121L7.60679 11.6741L7.61424 11.6358L6.1417 11.3501ZM6.46948 12.1834L7.30139 10.9352L7.29494 10.9309L7.28845 10.9267L6.46948 12.1834ZM7.32503 12.4139L7.30671 10.9141L7.26979 10.9145L7.23294 10.9168L7.32503 12.4139ZM8.18337 12.2417L7.62435 10.8498L7.62167 10.8509L8.18337 12.2417ZM9.97781 10.6445L11.2323 11.4668L11.2624 11.4209L11.289 11.373L9.97781 10.6445ZM10.7373 9.04157C10.5408 8.90942 10.32 8.81784 10.0876 8.7722L9.50941 11.716C9.34969 11.6846 9.19785 11.6216 9.06279 11.5308L10.7373 9.04157ZM10.0876 8.7722C9.85532 8.72657 9.61622 8.7278 9.38439 8.77582L9.9929 11.7135C9.83351 11.7465 9.66914 11.7473 9.50941 11.716L10.0876 8.7722ZM9.38439 8.77582C9.15256 8.82385 8.93264 8.91769 8.73756 9.05186L10.4376 11.5237C10.3035 11.6159 10.1523 11.6804 9.9929 11.7135L9.38439 8.77582ZM8.73756 9.05186C8.54248 9.18604 8.37617 9.35782 8.24839 9.55712L10.7739 11.1763C10.6861 11.3133 10.5717 11.4314 10.4376 11.5237L8.73756 9.05186ZM8.26801 9.5273C8.08684 9.79562 7.86489 10.034 7.61018 10.2339L9.46211 12.594C9.96242 12.2014 10.3984 11.7332 10.7543 11.2061L8.26801 9.5273ZM7.63036 10.2183C7.57283 10.2619 7.53307 10.2912 7.50566 10.3073C7.48899 10.3171 7.53217 10.2887 7.62028 10.2592C7.66656 10.2437 7.76128 10.2155 7.89068 10.2042C8.01717 10.1932 8.23986 10.1929 8.49683 10.2917L7.4199 13.0917C7.96437 13.3012 8.44099 13.1481 8.5731 13.1039C8.76876 13.0383 8.93017 12.95 9.02843 12.8921C9.23089 12.7728 9.40779 12.6354 9.44193 12.6096L7.63036 10.2183ZM8.39669 10.2572C8.93403 10.4214 9.21901 10.8361 9.32833 11.1538C9.41636 11.4096 9.40208 11.6146 9.39869 11.6622C9.3922 11.7537 9.36504 11.858 9.39691 11.7215L6.47538 11.0398C6.4878 10.9865 6.42176 11.2312 6.40623 11.4497C6.39834 11.5608 6.387 11.8261 6.49161 12.1301C6.61752 12.4959 6.9327 12.9468 7.52004 13.1262L8.39669 10.2572ZM9.35735 11.8604L9.50457 11.4243L6.66216 10.4647L6.51494 10.9008L9.35735 11.8604ZM9.5019 11.4321C9.56387 11.2518 10.6314 8.08579 10.7524 7.7112L7.89768 6.78891C7.78536 7.13654 6.72508 10.2816 6.66484 10.4569L9.5019 11.4321ZM10.751 7.71538C10.8657 7.36406 11.0605 6.58751 10.6654 5.84185C10.4342 5.40553 10.0513 5.08544 9.58587 4.92597C9.16137 4.78051 8.74241 4.79209 8.40059 4.84644L8.8717 7.80922C8.92293 7.80107 8.80814 7.83071 8.61342 7.76398C8.37779 7.68325 8.15024 7.50256 8.01453 7.24645C7.89897 7.02835 7.89995 6.85121 7.90183 6.80495C7.90398 6.75188 7.91243 6.74369 7.89903 6.78473L10.751 7.71538ZM8.48113 4.83586C8.35113 4.84937 7.72675 4.92884 7.16948 4.99997C6.88165 5.03671 6.60124 5.0726 6.38911 5.09963C6.12833 5.13286 6.06156 5.14045 6.10705 5.1372L6.32079 8.12958C6.38573 8.12494 6.60472 8.09641 6.76833 8.07557C6.9806 8.04852 7.26321 8.01235 7.54934 7.97583C7.83626 7.9392 8.1276 7.90211 8.36028 7.87281C8.47673 7.85815 8.5774 7.84558 8.655 7.83605C8.69386 7.83128 8.72587 7.82741 8.75063 7.82447C8.76299 7.82301 8.77281 7.82187 8.78031 7.82101C8.78832 7.8201 8.79144 7.81977 8.79115 7.8198L8.48113 4.83586ZM6.11663 5.13655C5.88358 5.15169 5.6558 5.2126 5.44629 5.31577L6.7717 8.00711C6.62778 8.07799 6.47131 8.11982 6.31122 8.13023L6.11663 5.13655ZM5.44629 5.31577C5.23678 5.41895 5.04965 5.56238 4.89557 5.73788L7.15002 7.71714C7.04417 7.8377 6.91562 7.93623 6.7717 8.00711L5.44629 5.31577ZM4.89557 5.73788C4.74149 5.91339 4.62349 6.11752 4.5483 6.33862L7.38857 7.30447C7.33692 7.45636 7.25586 7.59658 7.15002 7.71714L4.89557 5.73788ZM4.5483 6.33862C4.47311 6.55972 4.44221 6.79347 4.45736 7.02652L7.45104 6.83193C7.46145 6.99201 7.44022 7.15258 7.38857 7.30447L4.5483 6.33862ZM4.45736 7.02652C4.47251 7.25956 4.53341 7.48734 4.63659 7.69685L7.32792 6.37144C7.3988 6.51536 7.44063 6.67183 7.45104 6.83193L4.45736 7.02652ZM4.63659 7.69685C4.73976 7.90636 4.88319 8.0935 5.0587 8.24758L7.03795 5.99313C7.15852 6.09897 7.25705 6.22752 7.32792 6.37144L4.63659 7.69685ZM5.0587 8.24758C5.2342 8.40165 5.43832 8.51965 5.65943 8.59484L6.62529 5.75457C6.77717 5.80622 6.9174 5.88729 7.03795 5.99313L5.0587 8.24758ZM5.65943 8.59484C5.88054 8.67003 6.11428 8.70093 6.34733 8.68578L6.15274 5.6921C6.31282 5.6817 6.4734 5.70292 6.62529 5.75457L5.65943 8.59484ZM6.25003 7.18894C6.44341 8.67643 6.44341 8.67643 6.44341 8.67643C6.44341 8.67643 6.44342 8.67642 6.44343 8.67642C6.44345 8.67642 6.44349 8.67642 6.44353 8.67641C6.44363 8.6764 6.44377 8.67638 6.44396 8.67635C6.44434 8.6763 6.44493 8.67623 6.4457 8.67613C6.44724 8.67593 6.44955 8.67563 6.45258 8.67524C6.45863 8.67445 6.46755 8.67329 6.47895 8.67181C6.50175 8.66886 6.53446 8.66462 6.57402 8.6595C6.65318 8.64927 6.75952 8.63555 6.86855 8.6216C6.97787 8.60761 7.08863 8.59355 7.1771 8.58254C7.28183 8.5695 7.3193 8.56535 7.31084 8.56612L7.03923 5.57844C6.95758 5.58586 6.68426 5.62072 6.48777 5.64587C6.377 5.66004 6.26928 5.67393 6.18933 5.68427C6.14933 5.68944 6.11622 5.69373 6.09309 5.69673C6.08153 5.69823 6.07245 5.69941 6.06625 5.70021C6.06315 5.70062 6.06077 5.70093 6.05915 5.70114C6.05835 5.70124 6.05773 5.70132 6.05731 5.70137C6.05711 5.7014 6.05695 5.70142 6.05684 5.70144C6.05678 5.70144 6.05674 5.70145 6.05671 5.70145C6.0567 5.70145 6.05668 5.70146 6.05668 5.70146C6.05667 5.70146 6.05666 5.70146 6.25003 7.18894ZM7.32079 8.56518C7.07962 8.58872 6.83679 8.54198 6.6216 8.43059L8.00072 5.76637C7.70173 5.61161 7.36435 5.54666 7.02928 5.57937L7.32079 8.56518ZM6.6216 8.43059C6.4064 8.31919 6.22804 8.14791 6.10803 7.9374L8.71425 6.4516C8.54752 6.15912 8.29971 5.92114 8.00072 5.76637L6.6216 8.43059ZM5.98396 7.65618C5.92425 7.47161 5.93243 7.27179 6.00703 7.09272L8.77637 8.24628C8.97673 7.7653 8.9987 7.22857 8.83833 6.73282L5.98396 7.65618ZM5.93997 7.29205C5.94044 7.29024 5.88312 7.46681 5.75204 7.84923C5.63538 8.18958 5.48587 8.62035 5.33594 9.05272C5.18676 9.48295 5.03708 9.91497 4.92236 10.2514C4.86519 10.4191 4.81501 10.5679 4.77731 10.683C4.75912 10.7386 4.69633 10.9243 4.66916 11.0643L7.61424 11.6358C7.59609 11.7293 7.57689 11.7738 7.62832 11.6167C7.66025 11.5192 7.70575 11.384 7.76182 11.2196C7.87357 10.8919 8.0206 10.4675 8.17037 10.0356C8.44787 9.23532 8.78741 8.26243 8.84343 8.04695L5.93997 7.29205ZM4.68604 10.988C4.57207 11.4463 4.60371 11.9287 4.77656 12.3681L7.56837 11.27C7.62373 11.4108 7.63386 11.5653 7.59736 11.7121L4.68604 10.988ZM4.77656 12.3681C4.94941 12.8076 5.25488 13.1823 5.65051 13.4401L7.28845 10.9267C7.41517 11.0093 7.513 11.1293 7.56837 11.27L4.77656 12.3681ZM5.63757 13.4316C6.16249 13.7814 6.78749 13.9498 7.41712 13.9111L7.23294 10.9168C7.25716 10.9153 7.28119 10.9218 7.30139 10.9352L5.63757 13.4316ZM7.34336 13.9138C7.824 13.908 8.29935 13.8126 8.74506 13.6326L7.62167 10.8509C7.52152 10.8913 7.41471 10.9127 7.30671 10.9141L7.34336 13.9138ZM8.74238 13.6337C9.32124 13.4012 9.82889 13.017 10.2177 12.656C10.6163 12.2861 10.9719 11.8641 11.2323 11.4668L8.72331 9.82217C8.60318 10.0054 8.40742 10.2432 8.17676 10.4573C7.93645 10.6804 7.73716 10.8045 7.62435 10.8498L8.74238 13.6337ZM11.289 11.373C11.4988 10.9955 11.5639 10.5545 11.4723 10.1325L8.54058 10.7688C8.4776 10.4787 8.52239 10.1756 8.66658 9.91603L11.289 11.373ZM11.4723 10.1325C11.3807 9.71048 11.1386 9.33623 10.7913 9.07964L9.0088 11.4927C8.76999 11.3163 8.60356 11.059 8.54058 10.7688L11.4723 10.1325Z" fill="#AFAFAF" mask="url(#path-3-inside-1_6063_4291)"/>
</svg>
