<svg width="39" height="36" viewBox="0 0 39 36" fill="none" xmlns="http://www.w3.org/2000/svg">
<rect width="39" height="36" rx="8" fill="#D8D9E8"/>
<g clip-path="url(#clip0_4600_114302)">
<path d="M25.5 16.6667C25.5 21.3333 19.5 25.3333 19.5 25.3333C19.5 25.3333 13.5 21.3333 13.5 16.6667C13.5 15.0754 14.1321 13.5492 15.2574 12.424C16.3826 11.2988 17.9087 10.6667 19.5 10.6667C21.0913 10.6667 22.6174 11.2988 23.7426 12.424C24.8679 13.5492 25.5 15.0754 25.5 16.6667Z" stroke="#0D47A1" stroke-width="2" stroke-linecap="round" stroke-linejoin="round"/>
<path d="M19.5 18.6667C20.6046 18.6667 21.5 17.7712 21.5 16.6667C21.5 15.5621 20.6046 14.6667 19.5 14.6667C18.3954 14.6667 17.5 15.5621 17.5 16.6667C17.5 17.7712 18.3954 18.6667 19.5 18.6667Z" stroke="#0D47A1" stroke-width="2" stroke-linecap="round" stroke-linejoin="round"/>
</g>
<defs>
<clipPath id="clip0_4600_114302">
<rect width="16" height="16" fill="white" transform="translate(11.5 10)"/>
</clipPath>
</defs>
</svg>
