<svg width="36" height="36" viewBox="0 0 36 36" fill="none" xmlns="http://www.w3.org/2000/svg">
<rect width="36" height="36" rx="18" fill="#E7EDF6"/>
<path d="M13.5 22.5L25.125 10.875M24.3188 25.47L23.7285 25.3522C22.8473 25.176 22.446 23.9996 22.7262 23.1458C23.4589 20.9108 22.9219 18.042 22.6249 16.8034C22.5327 16.4194 22.2282 16.1306 21.8449 16.0346L20.9963 15.8228C20.7984 15.7733 20.6178 15.671 20.4736 15.5268C20.3294 15.3826 20.2271 15.202 20.1777 15.0041L19.9658 14.1559C19.8698 13.7722 19.5814 13.4681 19.197 13.3759C17.9588 13.0789 15.0893 12.5415 12.8547 13.2746C12.0012 13.5548 10.8248 13.1531 10.6485 12.2719L10.53 11.6816L24.3188 25.47ZM11.25 13.125L23.25 25.125L11.25 13.125Z" stroke="#0D47A1" stroke-width="1.5" stroke-linecap="round" stroke-linejoin="round"/>
</svg>
