<svg width="17" height="16" viewBox="0 0 17 16" fill="none" xmlns="http://www.w3.org/2000/svg">
<path d="M12.5659 1.0382C12.6574 1.076 12.7355 1.14007 12.7905 1.22231C12.8455 1.30455 12.8749 1.40126 12.8749 1.5002V4.0002H15.3749C15.474 4.00003 15.5708 4.02926 15.6532 4.08418C15.7356 4.13911 15.7998 4.21727 15.8377 4.30874C15.8756 4.40021 15.8855 4.50089 15.8662 4.598C15.8468 4.6951 15.799 4.78428 15.7289 4.8542L13.7289 6.8542C13.6824 6.90061 13.6272 6.93738 13.5665 6.96244C13.5057 6.98749 13.4406 7.00032 13.3749 7.0002H10.5819L9.84193 7.7412C9.88148 7.88945 9.88641 8.04481 9.85636 8.19527C9.82631 8.34573 9.76207 8.48726 9.66861 8.60895C9.57515 8.73063 9.45497 8.8292 9.31735 8.89704C9.17973 8.96488 9.02836 9.00018 8.87493 9.0002C8.60971 9.0002 8.35536 8.89485 8.16782 8.70731C7.98029 8.51977 7.87493 8.26542 7.87493 8.0002L7.87593 7.9542C7.88279 7.80483 7.92306 7.65889 7.99378 7.52713C8.0645 7.39538 8.16387 7.28116 8.28457 7.19289C8.40527 7.10462 8.54423 7.04454 8.69123 7.01708C8.83822 6.98961 8.9895 6.99547 9.13393 7.0342L9.87493 6.2932V3.5002C9.87481 3.4345 9.88765 3.36942 9.9127 3.30867C9.93775 3.24793 9.97453 3.19272 10.0209 3.1462L12.0209 1.1462C12.0909 1.07632 12.18 1.02876 12.277 1.00954C12.3741 0.990314 12.4746 1.00029 12.5659 1.0382V1.0382ZM13.1679 6.0002L14.1679 5.0002H12.3749C12.2423 5.0002 12.1151 4.94753 12.0214 4.85376C11.9276 4.75999 11.8749 4.63281 11.8749 4.5002V2.7072L10.8749 3.7072V6.0002H13.1679ZM14.8199 7.1762C14.9925 8.42135 14.7696 9.68923 14.1827 10.8009C13.5959 11.9125 12.6747 12.8118 11.5492 13.3717C10.4238 13.9316 9.15089 14.1239 7.91026 13.9214C6.66964 13.7189 5.52394 13.1319 4.6349 12.2432C3.74587 11.3545 3.1584 10.2091 2.95544 8.96851C2.75248 7.72796 2.94427 6.455 3.50374 5.32933C4.06321 4.20365 4.9621 3.28212 6.07351 2.69483C7.18492 2.10754 8.45272 1.88415 9.69793 2.0562L9.31493 2.4392C9.15641 2.59773 9.03545 2.78977 8.96093 3.0012L8.87493 3.0002C7.88239 3.00035 6.91235 3.2959 6.08835 3.8492C5.26434 4.4025 4.62365 5.18853 4.24788 6.10718C3.8721 7.02583 3.77823 8.03554 3.97823 9.00772C4.17823 9.9799 4.66304 10.8706 5.37094 11.5663C6.07883 12.262 6.97776 12.7313 7.95326 12.9144C8.92877 13.0975 9.93669 12.9861 10.8487 12.5945C11.7607 12.2028 12.5355 11.5486 13.0744 10.7151C13.6133 9.88161 13.892 8.9066 13.8749 7.9142C14.0856 7.83971 14.2769 7.71911 14.4349 7.5612L14.8189 7.1762H14.8199ZM8.87493 4.5002C8.18269 4.5002 7.50601 4.70548 6.93043 5.09006C6.35486 5.47465 5.90626 6.02127 5.64135 6.66081C5.37644 7.30035 5.30713 8.00409 5.44218 8.68302C5.57723 9.36195 5.91057 9.98559 6.40006 10.4751C6.88954 10.9646 7.51318 11.2979 8.19211 11.433C8.87105 11.568 9.57478 11.4987 10.2143 11.2338C10.8539 10.9689 11.4005 10.5203 11.7851 9.9447C12.1697 9.36913 12.3749 8.69244 12.3749 8.0002H11.3749C11.3749 8.49466 11.2283 8.97801 10.9536 9.38913C10.6789 9.80025 10.2885 10.1207 9.83164 10.3099C9.37482 10.4991 8.87216 10.5486 8.3872 10.4522C7.90225 10.3557 7.45679 10.1176 7.10716 9.76797C6.75753 9.41834 6.51943 8.97288 6.42297 8.48793C6.3265 8.00298 6.37601 7.50031 6.56523 7.0435C6.75445 6.58668 7.07488 6.19623 7.486 5.92153C7.89713 5.64683 8.38048 5.5002 8.87493 5.5002V4.5002Z" fill="#0D47A1"/>
</svg>
