<svg width="20" height="20" viewBox="0 0 20 20" fill="none" xmlns="http://www.w3.org/2000/svg">
<path d="M10.0003 18.3334C14.6027 18.3334 18.3337 14.6024 18.3337 10C18.3337 5.39765 14.6027 1.66669 10.0003 1.66669C5.39795 1.66669 1.66699 5.39765 1.66699 10C1.66699 14.6024 5.39795 18.3334 10.0003 18.3334Z" stroke="#AFAFAF" stroke-width="2" stroke-linecap="round" stroke-linejoin="round"/>
<path d="M10 15C12.7614 15 15 12.7614 15 10C15 7.23858 12.7614 5 10 5C7.23858 5 5 7.23858 5 10C5 12.7614 7.23858 15 10 15Z" stroke="#AFAFAF" stroke-width="2" stroke-linecap="round" stroke-linejoin="round"/>
<path d="M9.99967 11.6667C10.9201 11.6667 11.6663 10.9205 11.6663 10C11.6663 9.07957 10.9201 8.33337 9.99967 8.33337C9.0792 8.33337 8.33301 9.07957 8.33301 10C8.33301 10.9205 9.0792 11.6667 9.99967 11.6667Z" stroke="#AFAFAF" stroke-width="2" stroke-linecap="round" stroke-linejoin="round"/>
</svg>
