<svg width="240" height="322" viewBox="0 0 240 322" fill="none" xmlns="http://www.w3.org/2000/svg">
<path d="M227.373 71.4978C221.562 67.5242 203.152 62.073 189.727 89.2824C186.113 96.6106 183.277 104.385 178.672 111.134C171.39 121.803 159.309 129.065 146.457 130.496C133.618 131.914 120.239 127.481 110.801 118.655C105.676 113.889 101.769 108.006 97.8887 102.175C86.2874 84.7098 74.6861 67.2513 63.0782 49.7862C56.7884 40.3215 42.6445 20.7997 35.7756 11.741C17.2788 -12.6463 -15.3418 2.64232 8.26007 41.9855C14.9759 53.174 29.0066 71.2515 38.1451 80.6963C39.9023 82.8594 43.9624 86.9195 45.9858 88.7166C57.2543 98.7072 69.3481 103.067 78.3735 115.56C80.1706 118.043 81.9278 120.505 83.6716 122.928C85.3423 125.244 87.0528 127.734 87.1993 130.582C87.4788 135.934 81.8812 140.12 76.5298 140.253C73.8808 140.313 71.3316 139.681 68.8822 138.669C72.7093 145.219 75.984 152.128 80.763 158.011C82.3604 159.975 84.1043 161.805 85.8415 163.642C87.9381 165.872 90.0147 168.115 91.7785 170.618C94.98 175.19 97.0567 181.061 95.3594 186.379C94.9933 187.537 94.4076 188.695 93.4159 189.394C92.4242 190.08 91.1728 190.253 89.9748 190.346C84.9229 190.732 79.8644 190.199 74.9524 188.981C76.4965 190.745 78.0407 192.496 79.5849 194.26C82.2872 197.348 85.0827 200.589 86.0544 204.576C87.5454 210.76 83.6117 217.762 77.5548 219.698C74.1537 220.797 70.4596 220.411 66.9386 219.765C65.1349 219.432 63.3378 219.026 61.5673 218.554C48.3487 215.059 36.1217 207.904 26.6237 198.067C26.697 200.949 27.4291 203.911 28.5407 206.56C34.7573 221.289 50.0526 229.822 60.1097 242.249C70.8457 255.521 75.2452 272.846 77.0689 289.825C77.7878 296.508 78.1539 310.172 78.4867 322H180.655C179.703 305.247 178.878 284.5 178.545 273.052C178.219 261.684 178.246 250.163 181.008 239.127C183.484 229.25 188.07 220.058 191.764 210.573C196.822 197.607 200.243 184.023 202.307 170.265C204.13 158.151 204.996 145.618 210.227 134.536C214.434 125.617 221.21 118.209 228.078 111.134C233.297 105.742 238.941 99.8121 239.593 92.3441C240.339 83.9311 234.348 76.2634 227.373 71.4978Z" fill="#FFD6B0"/>
<path fill-rule="evenodd" clip-rule="evenodd" d="M63.5906 262.682H180.515C184.202 262.682 187.191 259.694 187.191 256.007V39.4962C187.191 35.8088 184.202 32.8203 180.515 32.8203H63.5906C59.9032 32.8203 56.908 35.8088 56.908 39.5029V256.013C56.9147 259.694 59.9032 262.682 63.5906 262.682Z" fill="#0D47A1"/>
<path d="M180.655 51.5634H62.3193V244.006H180.655V51.5634Z" fill="#F8F8FA"/>
<path fill-rule="evenodd" clip-rule="evenodd" d="M140.606 40.9938C140.606 42.0853 141.491 42.9706 142.583 42.9706C143.675 42.9706 144.56 42.0853 144.56 40.9938C144.56 39.9022 143.675 39.017 142.583 39.017C141.491 39.017 140.606 39.9022 140.606 40.9938Z" fill="#F9F8F6"/>
<path d="M139.362 40.0087H97.7754V41.9855H139.362V40.0087Z" fill="#F9F8F6"/>
<path d="M140.187 91.9249H163.01V114.462" stroke="#222221" stroke-width="1.99678" stroke-miterlimit="10" stroke-linecap="round" stroke-linejoin="round"/>
<path d="M78.0206 163.769V186.599H100.558" stroke="#222221" stroke-width="1.99678" stroke-miterlimit="10" stroke-linecap="round" stroke-linejoin="round"/>
<path d="M78.0206 114.608V91.7784H100.558" stroke="#222221" stroke-width="1.99678" stroke-miterlimit="10" stroke-linecap="round" stroke-linejoin="round"/>
<path d="M162.864 163.769V186.599H140.327" stroke="#222221" stroke-width="1.99678" stroke-miterlimit="10" stroke-linecap="round" stroke-linejoin="round"/>
<path d="M127.301 170.431H124.592V173.147H127.301V170.431Z" fill="#222221"/>
<path d="M154.477 173.147V170.431V167.716V165V162.285V159.569V156.853V154.138H151.762H149.039H146.324H143.608H140.886H138.177H135.455V156.853V159.569V162.285V165V167.716V170.431V173.147H138.177H140.886H143.608H146.324H149.039H151.762H154.477ZM151.762 170.431H149.039H146.324H143.608H140.886H138.177V167.716V165V162.285V159.569V156.853H140.886H143.608H146.324H149.039H151.762V159.569V162.285V165V167.716V170.431Z" fill="#222221"/>
<path d="M143.608 167.716H140.886V165V162.278V159.562H143.608H146.324H149.039V162.278V165V167.716H146.324H143.608Z" fill="#222221"/>
<path d="M130.023 165H132.739V167.716V170.431H130.023V167.716H127.301V165V162.278H130.023V165Z" fill="#222221"/>
<path d="M97.4293 159.562H100.138V162.278V165V167.716H97.4293H94.7071H91.9915V165V162.278V159.562H94.7071H97.4293Z" fill="#222221"/>
<path d="M121.877 159.562V156.847H124.592V154.131H127.301V156.847V159.562V162.278H124.592V159.562H121.877Z" fill="#222221"/>
<path d="M89.2759 154.131H86.5602V156.847V159.562V162.278V164.994V167.709V170.425V173.14H89.2759H91.9915H94.7071H97.4294H100.138H102.854H105.57V170.425V167.709V164.994V162.278V159.562V156.847V154.131H102.854H100.138H97.4294H94.7071H91.9915H89.2759ZM89.2759 156.847H91.9915H94.7071H97.4294H100.138H102.854V159.562V162.278V164.994V167.709V170.425H100.138H97.4294H94.7071H91.9915H89.2759V167.709V164.994V162.278V159.562V156.847Z" fill="#222221"/>
<path d="M132.739 154.131H130.023V156.847H132.739V154.131Z" fill="#222221"/>
<path d="M94.7071 151.415H91.9915H89.2759H86.5602V148.693H89.2759H91.9915V145.978H94.7071V148.693V151.415Z" fill="#222221"/>
<path d="M105.576 148.693V151.415H102.854H100.138V148.693H102.854H105.576Z" fill="#222221"/>
<path d="M140.886 151.415H138.177H135.455H132.739V148.693H130.023V151.415H127.301V148.693V145.978H124.592V143.262V140.546H127.301V143.262H130.023V145.978H132.739H135.455V143.262H132.739H130.023V140.546H127.301V137.831V135.115V132.4H130.023V135.115H132.739V137.831H135.455V135.115H138.177H140.886V137.831H138.177V140.546H140.886V143.262H138.177V145.978H140.886V148.693H143.608V151.415H140.886Z" fill="#222221"/>
<path d="M149.039 151.415V148.693V145.978H151.762V143.262H154.477V145.978V148.693V151.415H151.762H149.039Z" fill="#222221"/>
<path d="M146.324 148.693H143.608V145.978V143.262V140.546H146.324V143.262H149.039V145.978H146.324V148.693Z" fill="#222221"/>
<path d="M91.9914 143.262H89.2758V145.978H91.9914V143.262Z" fill="#222221"/>
<path d="M119.154 143.262H116.439V145.978H119.154V143.262Z" fill="#222221"/>
<path d="M89.2759 140.546H86.5602V143.262H89.2759V140.546Z" fill="#222221"/>
<path d="M97.4293 143.262H100.138V145.978V148.693H97.4293V145.978H94.7071V143.262V140.546H97.4293V143.262Z" fill="#222221"/>
<path d="M105.576 140.546H108.292V137.831H105.576V135.115H108.292V132.4H111.007H113.723V135.115V137.831V140.546V143.262H111.007V145.978H113.723H116.439V148.693V151.415H119.154H121.877V154.131V156.847H119.154V154.131H116.439V156.847H113.723V154.131V151.415H111.007V154.131V156.847V159.562H113.723H116.439V156.847H119.154V159.562V162.278H116.439V165H119.154H121.877V162.278H124.592V165V167.716V170.431H121.877V173.147H119.154H116.439V170.431H119.154V167.716H116.439V170.431H113.723H111.007V173.147H108.292V170.431V167.716H111.007H113.723V165V162.278H111.007H108.292V159.562V156.847V154.131V151.415V148.693V145.978H105.576H102.854V143.262H105.576V140.546Z" fill="#222221"/>
<path d="M94.7071 137.831H91.9915V140.546H94.7071V137.831Z" fill="#222221"/>
<path d="M100.138 137.831H102.854H105.576V140.546H102.854V143.262H100.138V140.546V137.831Z" fill="#222221"/>
<path d="M151.762 137.831H149.039V135.115H151.762V132.4H154.477V135.115V137.831V140.546H151.762V137.831Z" fill="#222221"/>
<path d="M89.2759 135.115H86.5602V132.4H89.2759H91.9915V135.115V137.831H89.2759V135.115Z" fill="#222221"/>
<path d="M105.576 132.4V135.115H102.854H100.138V132.4H97.4293V135.115H100.138V137.831H97.4293H94.7071V135.115V132.4V129.677H97.4293H100.138H102.854V132.4H105.576Z" fill="#222221"/>
<path d="M143.608 135.115V132.4H146.324H149.039V135.115H146.324H143.608Z" fill="#222221"/>
<path d="M127.301 129.677H124.592V132.393H127.301V129.677Z" fill="#222221"/>
<path d="M89.2759 129.677H86.5602V126.962H89.2759H91.9915H94.7071V129.677H91.9915H89.2759Z" fill="#222221"/>
<path d="M130.023 129.677V132.393H132.739V129.677H135.455V132.393H138.177H140.886V129.677H143.608V126.962V124.246H146.324V121.53H143.608V118.815H146.324V116.099H149.039H151.762V113.384H154.477V110.668H151.762H149.039V113.384H146.324H143.608V110.668V107.952H140.886H138.177V110.668H140.886V113.384H138.177V116.099H135.455V113.384V110.668V107.952V105.237H132.739H130.023V107.952H127.308V105.237H124.599H121.883H119.168V107.952H116.452V110.668H119.168V113.384V116.099H116.452H113.736V118.815V121.53V124.246H111.021H108.298V126.962H105.583H102.867V129.677H105.583H108.298H111.021V126.962H113.736V129.677V132.393H116.452H119.168V135.115V137.831H116.452V140.546H119.168H121.883V137.831H124.599V135.115H121.883V132.4V129.684H119.168H116.452V126.968V124.253H119.168V121.537H116.452V118.821H119.168H121.883V116.106H124.599V113.39H121.883V110.675V107.959H124.599V110.675H127.308V113.39H130.023V116.106H127.308H124.599V118.821V121.537H127.308H130.023V124.253V126.968H127.308V129.684H130.023V129.677ZM132.739 126.962V124.246V121.53V118.815H135.455H138.177H140.886V121.53V124.246V126.962H138.177H135.455H132.739Z" fill="#222221"/>
<path d="M151.762 126.962H149.039V129.677H151.762V126.962Z" fill="#222221"/>
<path d="M124.592 126.962H121.877V124.246V121.53H124.592V124.246V126.962Z" fill="#222221"/>
<path d="M149.039 124.246H146.324V126.962H149.039V124.246Z" fill="#222221"/>
<path d="M102.854 124.246H105.57V121.53V118.815V116.099V113.384V110.668V107.952V105.237H102.854H100.138H97.4294H94.7071H91.9915H89.2759H86.5602V107.952V110.668V113.384V116.099V118.815V121.53V124.246H89.2759H91.9915H94.7071H97.4294H100.138H102.854ZM102.854 121.53H100.138H97.4294H94.7071H91.9915H89.2759V118.815V116.099V113.384V110.668V107.952H91.9915H94.7071H97.4294H100.138H102.854V110.668V113.384V116.099V118.815V121.53Z" fill="#222221"/>
<path d="M138.177 121.53H135.455V124.246H138.177V121.53Z" fill="#222221"/>
<path d="M151.762 121.53H149.039V118.815H151.762V116.099H154.477V118.815V121.53V124.246V126.962H151.762V124.246V121.53Z" fill="#222221"/>
<path d="M111.014 118.815H108.292V121.53H111.014V118.815Z" fill="#222221"/>
<path d="M94.7071 118.815H91.9915V116.099V113.384V110.661H94.7071H97.4293H100.138V113.384V116.099V118.815H97.4293H94.7071Z" fill="#222221"/>
<path d="M111.007 113.384H108.292V110.661V107.946V105.23H111.007H113.723V107.946H111.007V110.661H113.723V113.384V116.099H111.007V113.384Z" fill="#222221"/>
<path d="M146.324 105.23H143.608V107.946H146.324V105.23Z" fill="#222221"/>
<path d="M154.477 105.23H151.762V107.946H154.477V105.23Z" fill="#222221"/>
<path d="M151.209 223.792H89.8216C87.9912 223.792 86.4936 222.294 86.4936 220.464V211.865C86.4936 210.034 87.9912 208.537 89.8216 208.537H151.209C153.039 208.537 154.537 210.034 154.537 211.865V220.464C154.537 222.294 153.039 223.792 151.209 223.792Z" fill="#F0047F"/>
<path d="M15.7412 171.749C17.7845 166.644 22.8896 160.135 34.3378 164.86C53.4603 172.761 72.5162 190.752 74.2068 192.682C77.162 196.063 80.2237 199.611 81.2887 203.977C82.9194 210.753 78.613 218.414 71.977 220.537C68.2564 221.735 64.2096 221.316 60.3491 220.604C58.3723 220.238 32.9268 206.38 24.8332 197.994V197.987C24.3073 197.441 23.7948 196.902 23.289 196.343C17.2321 189.614 12.3666 180.142 15.7412 171.749Z" fill="#FFD6B0"/>
<path d="M71.2316 189.794C64.8752 183.95 49.6332 171.177 34.3312 164.86C27.0962 161.872 22.4038 163.376 19.4086 166.178C29.6255 176.122 57.1876 198.539 71.2316 189.794Z" fill="#D8A093"/>
<path d="M9.61777 131.042C11.9939 125.118 17.9244 117.55 31.2162 123.041C53.427 132.213 75.5646 153.113 77.5281 155.356C80.9626 159.283 84.5235 163.409 85.7548 168.475C87.6517 176.342 82.6465 185.248 74.9389 187.717C70.6126 189.108 65.9202 188.615 61.4341 187.797C59.1378 187.371 29.5855 171.27 20.1741 161.532V161.519C19.5684 160.887 18.9693 160.261 18.3836 159.609C11.3483 151.795 5.69744 140.793 9.61777 131.042Z" fill="#FFD6B0"/>
<path d="M22.517 121.144C22.9363 121.65 23.3623 122.143 23.7949 122.622C24.3806 123.274 24.9797 123.907 25.5853 124.532V124.546C34.9902 134.283 64.5491 150.384 66.8454 150.81C69.0751 151.222 71.3647 151.542 73.6278 151.602C65.9934 144.64 48.6281 130.236 31.2096 123.048C27.8683 121.664 24.993 121.104 22.517 121.144Z" fill="#D8A093"/>
<path d="M15.029 88.7167C17.4052 82.793 23.3356 75.2252 36.6275 80.7163C58.8383 89.8948 80.9759 110.788 82.9393 113.031C86.3738 116.958 89.9281 121.084 91.1661 126.15C93.063 134.017 88.0577 142.923 80.3502 145.392C76.0238 146.783 71.3314 146.297 66.8453 145.472C64.549 145.046 34.9968 128.945 25.5853 119.208V119.194C24.9796 118.562 24.3806 117.936 23.7949 117.284C16.7662 109.47 11.1153 98.4676 15.029 88.7167Z" fill="#FFD6B0"/>
<path d="M86.5735 122.775C84.783 120.911 82.6132 119.194 80.1106 117.757C70.5394 112.265 59.8367 112.958 56.2025 119.287C52.5684 125.624 57.3806 135.208 66.9518 140.693C69.308 142.044 71.7308 143.016 74.0936 143.628C76.5829 141.332 84.2106 133.558 86.5735 122.775Z" fill="#FEF3EF"/>
<path d="M80.3302 165.36C78.6729 163.636 76.6628 162.045 74.3465 160.714C65.4875 155.635 55.5835 156.268 52.2156 162.132C48.8544 167.995 53.3072 176.868 62.1662 181.946C64.3493 183.197 66.5857 184.096 68.7822 184.662C71.0851 182.539 78.1404 175.344 80.3302 165.36Z" fill="#FEF3EF"/>
<path d="M75.1519 201.328C73.8008 199.924 72.1568 198.626 70.2665 197.541C63.0382 193.394 54.9512 193.914 52.2023 198.699C49.4601 203.485 53.0942 210.726 60.3226 214.873C62.0997 215.891 63.9301 216.63 65.7205 217.089C67.6041 215.346 73.3682 209.475 75.1519 201.328Z" fill="#FEF3EF"/>
</svg>
