<svg width="18" height="18" viewBox="0 0 18 18" fill="none" xmlns="http://www.w3.org/2000/svg">
<path d="M4.49999 14L17.4167 1.08333M16.5208 17.3L15.865 17.1692C14.8858 16.9733 14.44 15.6662 14.7512 14.7175C15.5654 12.2342 14.9687 9.04667 14.6387 7.67042C14.5362 7.24375 14.1979 6.92292 13.7721 6.81625L12.8292 6.58083C12.6093 6.52589 12.4086 6.41224 12.2484 6.25202C12.0882 6.09181 11.9745 5.89106 11.9196 5.67125L11.6842 4.72875C11.5775 4.3025 11.2571 3.96458 10.83 3.86208C9.45416 3.53208 6.26582 2.935 3.78291 3.74958C2.83457 4.06083 1.52749 3.61458 1.33166 2.63542L1.19999 1.97958L16.5208 17.3ZM1.99999 3.58333L15.3333 16.9167L1.99999 3.58333Z" stroke="#0D47A1" stroke-linecap="round" stroke-linejoin="round"/>
</svg>
