<svg width="16" height="16" viewBox="0 0 16 16" fill="none" xmlns="http://www.w3.org/2000/svg">
<path d="M8.00008 7.99992C9.84103 7.99992 11.3334 6.50753 11.3334 4.66658C11.3334 2.82564 9.84103 1.33325 8.00008 1.33325C6.15913 1.33325 4.66675 2.82564 4.66675 4.66658C4.66675 6.50753 6.15913 7.99992 8.00008 7.99992Z" stroke="#545454" stroke-width="2"/>
<path d="M11.3333 14.6666H3.51063C3.32155 14.6666 3.13462 14.6265 2.96226 14.5487C2.78989 14.471 2.63603 14.3575 2.51088 14.2158C2.38573 14.0741 2.29215 13.9073 2.23636 13.7267C2.18057 13.546 2.16385 13.3555 2.18729 13.1679L2.44729 11.0853C2.50776 10.6014 2.7429 10.1563 3.10851 9.83366C3.47412 9.51102 3.94501 9.33306 4.43263 9.33325H4.66663" stroke="#545454" stroke-width="2" stroke-linecap="round" stroke-linejoin="round"/>
<path d="M12.6667 8.6665V12.6665" stroke="#545454" stroke-width="2" stroke-linecap="round" stroke-linejoin="round"/>
<path d="M10.6667 10.6665H14.6667" stroke="#545454" stroke-width="2" stroke-linecap="round" stroke-linejoin="round"/>
</svg>
