<svg width="20" height="20" viewBox="0 0 20 20" fill="none" xmlns="http://www.w3.org/2000/svg">
<path d="M14.6137 1.29751C14.728 1.34476 14.8257 1.42485 14.8945 1.52765C14.9632 1.63045 15 1.75134 15 1.87501V5.00001H18.125C18.2487 4.99979 18.3698 5.03633 18.4728 5.10499C18.5758 5.17365 18.6561 5.27134 18.7035 5.38568C18.7508 5.50002 18.7632 5.62586 18.739 5.74725C18.7148 5.86864 18.6551 5.9801 18.5675 6.06751L16.0675 8.56751C16.0093 8.62551 15.9403 8.67149 15.8644 8.7028C15.7885 8.73412 15.7071 8.75016 15.625 8.75001H12.1337L11.2087 9.67626C11.2582 9.86157 11.2643 10.0558 11.2268 10.2438C11.1892 10.4319 11.1089 10.6088 10.9921 10.7609C10.8752 10.913 10.725 11.0363 10.553 11.1211C10.381 11.2059 10.1918 11.25 9.99997 11.25C9.66845 11.25 9.35051 11.1183 9.11609 10.8839C8.88167 10.6495 8.74997 10.3315 8.74997 10L8.75122 9.94251C8.75979 9.75579 8.81013 9.57337 8.89853 9.40867C8.98694 9.24398 9.11115 9.10121 9.26202 8.99087C9.4129 8.88053 9.5866 8.80543 9.77034 8.7711C9.95408 8.73677 10.1432 8.74409 10.3237 8.79251L11.25 7.86626V4.37501C11.2498 4.29288 11.2659 4.21153 11.2972 4.1356C11.3285 4.05967 11.3745 3.99066 11.4325 3.93251L13.9325 1.43251C14.0199 1.34516 14.1314 1.28571 14.2526 1.26168C14.3739 1.23765 14.4995 1.25012 14.6137 1.29751ZM15.3662 7.50001L16.6162 6.25001H14.375C14.2092 6.25001 14.0502 6.18416 13.933 6.06695C13.8158 5.94974 13.75 5.79077 13.75 5.62501V3.38376L12.5 4.63376V7.50001H15.3662ZM17.4312 8.97001C17.6469 10.5264 17.3683 12.1113 16.6347 13.5008C15.9011 14.8904 14.7497 16.0145 13.3428 16.7143C11.936 17.4142 10.3449 17.6546 8.79414 17.4015C7.24336 17.1484 5.81123 16.4146 4.69994 15.3038C3.58865 14.1929 2.85432 12.7611 2.60061 11.2104C2.34691 9.65971 2.58665 8.06851 3.28598 6.66141C3.98532 5.25432 5.10893 4.10241 6.4982 3.3683C7.88746 2.63418 9.47221 2.35495 11.0287 2.57001L10.55 3.04876C10.3518 3.24692 10.2006 3.48697 10.1075 3.75126L9.99997 3.75001C8.7593 3.7502 7.54675 4.11963 6.51675 4.81126C5.48674 5.50289 4.68588 6.48542 4.21615 7.63374C3.74643 8.78205 3.6291 10.0442 3.8791 11.2594C4.1291 12.4746 4.73512 13.588 5.61998 14.4576C6.50485 15.3272 7.62851 15.9139 8.84789 16.1427C10.0673 16.3716 11.3272 16.2324 12.4672 15.7428C13.6072 15.2533 14.5757 14.4355 15.2493 13.3936C15.923 12.3518 16.2713 11.133 16.25 9.89251C16.5133 9.79939 16.7524 9.64864 16.95 9.45126L17.43 8.97001H17.4312ZM9.99997 5.62501C9.13468 5.62501 8.28882 5.8816 7.56935 6.36233C6.84989 6.84306 6.28913 7.52635 5.958 8.32577C5.62687 9.1252 5.54023 10.0049 5.70904 10.8535C5.87785 11.7022 6.29453 12.4817 6.90638 13.0936C7.51823 13.7055 8.29778 14.1221 9.14645 14.2909C9.99512 14.4598 10.8748 14.3731 11.6742 14.042C12.4736 13.7109 13.1569 13.1501 13.6377 12.4306C14.1184 11.7112 14.375 10.8653 14.375 10H13.125C13.125 10.6181 12.9417 11.2223 12.5983 11.7362C12.2549 12.2501 11.7669 12.6506 11.1959 12.8871C10.6248 13.1237 9.99651 13.1855 9.39031 13.065C8.78412 12.9444 8.2273 12.6468 7.79026 12.2097C7.35322 11.7727 7.0556 11.2159 6.93502 10.6097C6.81444 10.0035 6.87632 9.37515 7.11285 8.80413C7.34937 8.23311 7.74991 7.74505 8.26381 7.40167C8.77772 7.05829 9.38191 6.87501 9.99997 6.87501V5.62501Z" fill="#F8F8FB"/>
</svg>
