<svg width="23" height="22" viewBox="0 0 23 22" fill="none" xmlns="http://www.w3.org/2000/svg">
<path d="M5.733 4.834L6.178 2.608C6.26866 2.15444 6.51371 1.74633 6.87144 1.45314C7.22918 1.15995 7.67747 0.999817 8.14 1H14.86C15.3225 0.999817 15.7708 1.15995 16.1286 1.45314C16.4863 1.74633 16.7313 2.15444 16.822 2.608L17.267 4.834C17.3369 5.18279 17.5043 5.50459 17.7498 5.76198C17.9953 6.01938 18.3089 6.20178 18.654 6.288C19.467 6.49138 20.1887 6.96068 20.7044 7.6213C21.22 8.28192 21.5001 9.09595 21.5 9.934V17C21.5 18.0609 21.0786 19.0783 20.3284 19.8284C19.5783 20.5786 18.5609 21 17.5 21H5.5C4.43913 21 3.42172 20.5786 2.67157 19.8284C1.92143 19.0783 1.5 18.0609 1.5 17V9.934C1.49992 9.09595 1.77998 8.28192 2.29564 7.6213C2.81131 6.96068 3.533 6.49138 4.346 6.288C4.69111 6.20178 5.00466 6.01938 5.25019 5.76198C5.49572 5.50459 5.66315 5.18279 5.733 4.834V4.834Z" stroke="white" stroke-width="2" stroke-linecap="round" stroke-linejoin="round"/>
<path d="M11.5 17C13.7091 17 15.5 15.2091 15.5 13C15.5 10.7909 13.7091 9 11.5 9C9.29086 9 7.5 10.7909 7.5 13C7.5 15.2091 9.29086 17 11.5 17Z" stroke="white" stroke-width="2" stroke-linecap="round" stroke-linejoin="round"/>
<path d="M10.5 5H12.5" stroke="white" stroke-width="2" stroke-linecap="round" stroke-linejoin="round"/>
</svg>
