<svg width="20" height="20" viewBox="0 0 20 20" fill="none" xmlns="http://www.w3.org/2000/svg">
<path d="M4.99995 15L17.9166 2.08337M17.0208 18.3L16.365 18.1692C15.3858 17.9734 14.94 16.6663 15.2512 15.7175C16.0654 13.2342 15.4687 10.0467 15.1387 8.67046C15.0362 8.24379 14.6979 7.92296 14.272 7.81629L13.3291 7.58087C13.1093 7.52593 12.9086 7.41228 12.7483 7.25206C12.5881 7.09185 12.4745 6.8911 12.4195 6.67129L12.1841 5.72879C12.0775 5.30254 11.757 4.96462 11.33 4.86212C9.95412 4.53212 6.76578 3.93504 4.28287 4.74962C3.33453 5.06087 2.02745 4.61462 1.83162 3.63546L1.69995 2.97962L17.0208 18.3ZM2.49995 4.58337L15.8333 17.9167L2.49995 4.58337Z" stroke="#F8F8FB" stroke-linecap="round" stroke-linejoin="round"/>
</svg>
