<svg width="56" height="56" viewBox="0 0 56 56" fill="none" xmlns="http://www.w3.org/2000/svg">
<circle cx="28" cy="28" r="28" fill="black" fill-opacity="0.2"/>
<path d="M37.7 19.3333H34.0545L31.95 17H25.05L22.9455 19.3333H19.3C18.035 19.3333 17 20.3833 17 21.6667V35.6667C17 36.9617 18.035 38 19.3 38H37.7C38.9765 38 40 36.9617 40 35.6667V21.6667C40 20.3833 38.9765 19.3333 37.7 19.3333ZM37.7 35.6667H19.3V21.6667H23.9575L26.062 19.3333H30.938L33.1 21.6667H37.7V35.6667ZM20.45 27.5H22.865C23.4975 24.3383 26.5335 22.3083 29.65 22.95C30.524 23.125 31.2945 23.5217 31.95 24L30.294 25.6917C29.7765 25.365 29.167 25.1667 28.5 25.1667C27.051 25.1667 25.74 26.1 25.257 27.5H27.35L23.9 31L20.45 27.5ZM34.1465 29.8333C33.514 32.995 30.478 35.025 27.35 34.3833C26.4875 34.1967 25.717 33.8117 25.05 33.3333L26.706 31.6417C27.235 31.9683 27.8445 32.1667 28.5 32.1667C29.9605 32.1667 31.2715 31.2333 31.7545 29.8333H29.65L33.1 26.3333L36.55 29.8333H34.1465Z" fill="white"/>
</svg>
