<svg width="75" height="75" viewBox="0 0 75 75" fill="none" xmlns="http://www.w3.org/2000/svg">
<rect x="0.5" y="0.5" width="74" height="74" rx="1.5" fill="#F5F5F5" stroke="#757575" stroke-dasharray="4 4"/>
<path d="M22.2339 47.0001H23.1859L20.6339 44.2161L23.1619 41.4241H22.2419L19.9379 44.0081V41.4241H19.2099V47.0001H19.9379V44.4561L22.2339 47.0001Z" fill="#545454"/>
<path d="M24.031 47.0001H24.759V41.0801H24.031V47.0001Z" fill="#545454"/>
<path d="M26.0317 47.0001H26.7597V42.6161H26.0317V47.0001ZM26.4077 41.9041C26.6717 41.9041 26.8877 41.6881 26.8877 41.4081C26.8877 41.1281 26.6717 40.9121 26.4077 40.9121C26.1277 40.9121 25.9117 41.1281 25.9117 41.4081C25.9117 41.6881 26.1277 41.9041 26.4077 41.9041Z" fill="#545454"/>
<path d="M28.0325 47.0001H28.7605V45.0641L30.4805 47.0001H31.4725L29.4005 44.8001L31.4645 42.6161H30.4485L28.7605 44.5601V41.0801H28.0325V47.0001Z" fill="#545454"/>
<path d="M38.2345 42.6161H37.5065V45.0241C37.5065 45.9681 37.0025 46.4321 36.2505 46.4321C35.5145 46.4321 35.0265 45.9761 35.0265 45.0881V42.6161H34.3065V45.1841C34.3065 46.4401 35.0985 47.0641 36.1065 47.0641C36.6905 47.0641 37.2265 46.8081 37.5065 46.3521V47.0001H38.2345V42.6161Z" fill="#545454"/>
<path d="M42.7037 47.0001H43.4237V44.4161C43.4237 43.1601 42.6477 42.5361 41.6317 42.5361C41.0397 42.5361 40.5117 42.7841 40.2237 43.2401V42.6161H39.4957V47.0001H40.2237V44.5761C40.2237 43.6321 40.7357 43.1681 41.4797 43.1681C42.2157 43.1681 42.7037 43.6241 42.7037 44.5201V47.0001Z" fill="#545454"/>
<path d="M44.8049 45.8001C44.8049 46.6801 45.2449 47.0001 46.0209 47.0001H46.6769V46.3841H46.1409C45.6929 46.3841 45.5329 46.2321 45.5329 45.8001V43.2161H46.6769V42.6161H45.5329V41.5121H44.8049V42.6161H44.2369V43.2161H44.8049V45.8001Z" fill="#545454"/>
<path d="M51.4789 42.6161H50.7509V45.0241C50.7509 45.9681 50.2469 46.4321 49.4949 46.4321C48.7589 46.4321 48.2709 45.9761 48.2709 45.0881V42.6161H47.5509V45.1841C47.5509 46.4401 48.3429 47.0641 49.3509 47.0641C49.9349 47.0641 50.4709 46.8081 50.7509 46.3521V47.0001H51.4789V42.6161Z" fill="#545454"/>
<path d="M52.7401 47.0001H53.4681V45.0641L55.1881 47.0001H56.1801L54.1081 44.8001L56.1721 42.6161H55.1561L53.4681 44.5601V41.0801H52.7401V47.0001Z" fill="#545454"/>
<path d="M19.676 54.6161H18.948V57.0241C18.948 57.9681 18.444 58.4321 17.692 58.4321C16.956 58.4321 16.468 57.9761 16.468 57.0881V54.6161H15.748V57.1841C15.748 58.4401 16.54 59.0641 17.548 59.0641C18.132 59.0641 18.668 58.8081 18.948 58.3521V59.0001H19.676V54.6161Z" fill="#545454"/>
<path d="M21.6652 55.4241V54.6161H20.9372V61.0801H21.6652V58.1921C21.9372 58.6401 22.5052 59.0721 23.3052 59.0721C24.4812 59.0721 25.3852 58.1521 25.3852 56.7921C25.3852 55.4241 24.4812 54.5441 23.3052 54.5441C22.5052 54.5441 21.9292 54.9601 21.6652 55.4241ZM24.6412 56.7921C24.6412 57.8241 23.9612 58.4321 23.1532 58.4321C22.3612 58.4321 21.6652 57.8321 21.6652 56.8001C21.6652 55.7841 22.3612 55.1761 23.1532 55.1761C23.9612 55.1761 24.6412 55.7601 24.6412 56.7921Z" fill="#545454"/>
<path d="M26.3755 59.0001H27.1035V53.0801H26.3755V59.0001Z" fill="#545454"/>
<path d="M32.5362 56.8001C32.5362 55.4161 31.5682 54.5441 30.3202 54.5441C29.0802 54.5441 28.1042 55.4161 28.1042 56.8001C28.1042 58.1921 29.0482 59.0721 30.2882 59.0721C31.5362 59.0721 32.5362 58.1921 32.5362 56.8001ZM28.8482 56.8001C28.8482 55.6961 29.5442 55.1761 30.3122 55.1761C31.0642 55.1761 31.7922 55.6961 31.7922 56.8001C31.7922 57.9121 31.0482 58.4321 30.2882 58.4321C29.5282 58.4321 28.8482 57.9121 28.8482 56.8001Z" fill="#545454"/>
<path d="M33.2534 56.7921C33.2534 58.1521 34.1574 59.0721 35.3254 59.0721C36.1334 59.0721 36.7014 58.6561 36.9654 58.1841V59.0001H37.7014V54.6161H36.9654V55.4161C36.7094 54.9601 36.1494 54.5441 35.3334 54.5441C34.1574 54.5441 33.2534 55.4241 33.2534 56.7921ZM36.9654 56.8001C36.9654 57.8321 36.2774 58.4321 35.4774 58.4321C34.6774 58.4321 33.9974 57.8241 33.9974 56.7921C33.9974 55.7601 34.6774 55.1761 35.4774 55.1761C36.2774 55.1761 36.9654 55.7841 36.9654 56.8001Z" fill="#545454"/>
<path d="M38.6917 56.7921C38.6917 58.1521 39.5957 59.0721 40.7717 59.0721C41.5717 59.0721 42.1397 58.6641 42.4037 58.1761V59.0001H43.1397V53.0801H42.4037V55.4001C42.0997 54.8961 41.4677 54.5441 40.7797 54.5441C39.5957 54.5441 38.6917 55.4241 38.6917 56.7921ZM42.4037 56.8001C42.4037 57.8321 41.7157 58.4321 40.9157 58.4321C40.1157 58.4321 39.4357 57.8241 39.4357 56.7921C39.4357 55.7601 40.1157 55.1761 40.9157 55.1761C41.7157 55.1761 42.4037 55.7841 42.4037 56.8001Z" fill="#545454"/>
<path d="M46.7027 59.0001H47.4307V55.2161H48.3507V54.6161H47.4307V54.3041C47.4307 53.7361 47.6467 53.4961 48.3027 53.4961V52.8881C47.1827 52.8881 46.7027 53.3281 46.7027 54.3041V54.6161H46.1347V55.2161H46.7027V59.0001Z" fill="#545454"/>
<path d="M53.3915 56.8001C53.3915 55.4161 52.4235 54.5441 51.1755 54.5441C49.9355 54.5441 48.9595 55.4161 48.9595 56.8001C48.9595 58.1921 49.9035 59.0721 51.1435 59.0721C52.3915 59.0721 53.3915 58.1921 53.3915 56.8001ZM49.7035 56.8001C49.7035 55.6961 50.3995 55.1761 51.1675 55.1761C51.9195 55.1761 52.6475 55.6961 52.6475 56.8001C52.6475 57.9121 51.9035 58.4321 51.1435 58.4321C50.3835 58.4321 49.7035 57.9121 49.7035 56.8001Z" fill="#545454"/>
<path d="M54.5407 57.8001C54.5407 58.6801 54.9807 59.0001 55.7567 59.0001H56.4127V58.3841H55.8767C55.4287 58.3841 55.2687 58.2321 55.2687 57.8001V55.2161H56.4127V54.6161H55.2687V53.5121H54.5407V54.6161H53.9727V55.2161H54.5407V57.8001Z" fill="#545454"/>
<path d="M61.4868 56.8001C61.4868 55.4161 60.5188 54.5441 59.2708 54.5441C58.0308 54.5441 57.0548 55.4161 57.0548 56.8001C57.0548 58.1921 57.9988 59.0721 59.2388 59.0721C60.4868 59.0721 61.4868 58.1921 61.4868 56.8001ZM57.7988 56.8001C57.7988 55.6961 58.4948 55.1761 59.2628 55.1761C60.0148 55.1761 60.7428 55.6961 60.7428 56.8001C60.7428 57.9121 59.9988 58.4321 59.2388 58.4321C58.4788 58.4321 57.7988 57.9121 57.7988 56.8001Z" fill="#545454"/>
<g clip-path="url(#clip0_241_2371)">
<path d="M37.5 29.6875C41.8147 29.6875 45.3125 26.1897 45.3125 21.875C45.3125 17.5603 41.8147 14.0625 37.5 14.0625C33.1853 14.0625 29.6875 17.5603 29.6875 21.875C29.6875 26.1897 33.1853 29.6875 37.5 29.6875Z" fill="#F6F6F6" stroke="#2D9CDB" stroke-width="2" stroke-linecap="round" stroke-linejoin="round"/>
<path d="M37.5 18.75V25" stroke="#2D9CDB" stroke-width="2" stroke-linecap="round" stroke-linejoin="round"/>
<path d="M34.375 21.875H40.625" stroke="#2D9CDB" stroke-width="2" stroke-linecap="round" stroke-linejoin="round"/>
</g>
<defs>
<clipPath id="clip0_241_2371">
<rect width="18.75" height="18.75" fill="white" transform="translate(28.125 12.5)"/>
</clipPath>
</defs>
</svg>
