<svg width="16" height="16" viewBox="0 0 16 16" fill="none" xmlns="http://www.w3.org/2000/svg">
<circle cx="8" cy="8" r="8" fill="#757575"/>
<path d="M9.22236 4.44435C10.2042 4.44435 11.0001 3.64841 11.0001 2.66657C11.0001 1.68473 10.2042 0.888794 9.22236 0.888794C8.24052 0.888794 7.44458 1.68473 7.44458 2.66657C7.44458 3.64841 8.24052 4.44435 9.22236 4.44435Z" fill="white"/>
<path d="M11.0399 11.6579C10.9907 11.6248 10.9355 11.6019 10.8774 11.5905C10.8194 11.5791 10.7596 11.5794 10.7016 11.5914C10.6437 11.6034 10.5887 11.6269 10.5399 11.6604C10.4912 11.694 10.4496 11.7369 10.4176 11.7868C9.98799 12.423 9.46165 12.9884 8.85764 13.4623C8.71097 13.5734 8.1643 13.9956 7.93319 13.9068C7.77319 13.8579 7.86652 13.5423 7.89764 13.409L8.13319 12.7112C8.23097 12.4268 9.93319 7.37786 10.1199 6.80009C10.3954 5.95564 10.2754 5.12453 9.01764 5.32453C8.67541 5.36009 5.2043 5.80898 5.14208 5.81342C5.08371 5.81721 5.02667 5.83247 4.9742 5.85831C4.92173 5.88415 4.87486 5.92007 4.83627 5.96402C4.79768 6.00797 4.76813 6.0591 4.7493 6.11447C4.73047 6.16985 4.72273 6.22839 4.72652 6.28675C4.73032 6.34512 4.74557 6.40216 4.77141 6.45464C4.79725 6.50711 4.83317 6.55397 4.87713 6.59256C4.92108 6.63115 4.9722 6.6607 5.02758 6.67953C5.08295 6.69836 5.14149 6.7061 5.19986 6.70231C5.19986 6.70231 6.53319 6.52898 6.67986 6.51564C6.75498 6.50831 6.83062 6.52287 6.89766 6.55757C6.96469 6.59227 7.02025 6.64562 7.05764 6.7112C7.13817 6.96014 7.12713 7.22967 7.02652 7.4712C6.91097 7.91564 5.0843 13.0623 5.02652 13.3601C4.96455 13.6093 4.98176 13.8716 5.07575 14.1105C5.16974 14.3495 5.33584 14.5532 5.55097 14.6934C5.95475 14.9625 6.43552 15.0921 6.91986 15.0623C7.39078 15.0566 7.8565 14.9631 8.29319 14.7868C9.39986 14.3423 10.5554 13.1601 11.1643 12.2312C11.2167 12.1368 11.233 12.0266 11.2101 11.9211C11.1872 11.8156 11.1267 11.722 11.0399 11.6579V11.6579Z" fill="white"/>
</svg>
