<svg width="21" height="20" viewBox="0 0 21 20" fill="none" xmlns="http://www.w3.org/2000/svg">
<path d="M8.00595 2.74416C7.68095 3.06916 7.69845 3.595 7.89095 4.01333C8.09203 4.45104 8.15426 4.93982 8.06926 5.41394C7.98427 5.88807 7.75613 6.3248 7.41553 6.6654C7.07492 7.006 6.63819 7.23414 6.16407 7.31914C5.68994 7.40413 5.20116 7.34191 4.76345 7.14083C4.34512 6.94916 3.81928 6.93083 3.49428 7.25583L3.00595 7.74416C2.84973 7.90044 2.76196 8.11236 2.76196 8.33333C2.76196 8.5543 2.84973 8.76622 3.00595 8.9225L11.8276 17.7442C11.9839 17.9004 12.1958 17.9882 12.4168 17.9882C12.6378 17.9882 12.8497 17.9004 13.006 17.7442L13.4943 17.2558C13.8193 16.9308 13.8018 16.405 13.6093 15.9867C13.4082 15.549 13.346 15.0602 13.431 14.586C13.516 14.1119 13.7441 13.6752 14.0847 13.3346C14.4253 12.994 14.862 12.7658 15.3362 12.6809C15.8103 12.5959 16.2991 12.6581 16.7368 12.8592C17.1551 13.0508 17.681 13.0692 18.006 12.7442L18.4943 12.2558C18.6505 12.0996 18.7383 11.8876 18.7383 11.6667C18.7383 11.4457 18.6505 11.2338 18.4943 11.0775L9.67262 2.25583C9.51634 2.0996 9.30442 2.01184 9.08345 2.01184C8.86248 2.01184 8.65056 2.0996 8.49429 2.25583L8.00595 2.74416V2.74416Z" stroke="#AFAFAF" stroke-width="2" stroke-linecap="round" stroke-linejoin="round"/>
</svg>
